<?xml version="1.0" encoding="UTF-8"?>
<svg version="1.1" xmlns="http://www.w3.org/2000/svg" width="512" height="512">
<path d="M0 0 C1.01201477 0.00054382 2.02402954 0.00108765 3.06671143 0.00164795 C19.59530572 0.04238044 35.52913999 0.94575778 51.75 4.375 C52.79188477 4.59462402 53.83376953 4.81424805 54.90722656 5.04052734 C101.20049311 15.13814785 143.61413721 37.49728758 177.75 70.375 C178.7390332 71.32318604 178.7390332 71.32318604 179.74804688 72.29052734 C189.23630305 81.43497479 197.9762044 90.73234009 205.75 101.375 C206.60806152 102.52605017 207.46613451 103.67709177 208.32421875 104.828125 C214.36177396 113.01775981 219.74457302 121.52038276 224.75 130.375 C225.1521875 131.08221191 225.554375 131.78942383 225.96875 132.51806641 C240.72220851 158.72274447 250.25170334 187.66046386 254.75 217.375 C254.92732666 218.49382568 255.10465332 219.61265137 255.28735352 220.76538086 C256.96876341 232.48735947 257.10734341 244.10998976 257.0625 255.9375 C257.06034485 256.95790375 257.0581897 257.9783075 257.05596924 259.02963257 C257.00633352 273.65710524 256.75919712 288.00763838 253.75 302.375 C253.45198486 303.83728027 253.45198486 303.83728027 253.14794922 305.32910156 C243.02732806 353.7109774 221.1108123 397.69928269 186.75 433.375 C186.11787598 434.03435547 185.48575195 434.69371094 184.83447266 435.37304688 C175.69002521 444.86130305 166.39265991 453.6012044 155.75 461.375 C154.59894983 462.23306152 153.44790823 463.09113451 152.296875 463.94921875 C144.10724019 469.98677396 135.60461724 475.36957302 126.75 480.375 C126.04278809 480.7771875 125.33557617 481.179375 124.60693359 481.59375 C101.47154164 494.6191741 76.30037591 503.36801461 50.3125 508.6875 C49.59360596 508.83485596 48.87471191 508.98221191 48.1340332 509.1340332 C32.60737908 512.08515207 17.20686592 512.78207988 1.4375 512.75 C-0.07677582 512.74918427 -0.07677582 512.74918427 -1.62164307 512.74835205 C-18.13123539 512.70758601 -34.04782001 511.80029309 -50.25 508.375 C-51.29188477 508.15537598 -52.33376953 507.93575195 -53.40722656 507.70947266 C-99.70049311 497.61185215 -142.11413721 475.25271242 -176.25 442.375 C-176.90935547 441.74287598 -177.56871094 441.11075195 -178.24804688 440.45947266 C-187.73630305 431.31502521 -196.4762044 422.01765991 -204.25 411.375 C-205.10806152 410.22394983 -205.96613451 409.07290823 -206.82421875 407.921875 C-212.86236829 399.73069386 -218.22095521 391.21695895 -223.25 382.375 C-223.61448242 381.74319824 -223.97896484 381.11139648 -224.35449219 380.46044922 C-239.28473018 354.37535999 -248.76385054 325.03914886 -253.25 295.375 C-253.51490234 293.69132324 -253.51490234 293.69132324 -253.78515625 291.97363281 C-255.4420586 280.36052257 -255.64873513 268.84320055 -255.625 257.125 C-255.62445618 256.11298523 -255.62391235 255.10097046 -255.62335205 254.05828857 C-255.58261956 237.52969428 -254.67924222 221.59586001 -251.25 205.375 C-251.03037598 204.33311523 -250.81075195 203.29123047 -250.58447266 202.21777344 C-240.48685215 155.92450689 -218.12771242 113.51086279 -185.25 79.375 C-184.61787598 78.71564453 -183.98575195 78.05628906 -183.33447266 77.37695312 C-174.19002521 67.88869695 -164.89265991 59.1487956 -154.25 51.375 C-153.09894983 50.51693848 -151.94790823 49.65886549 -150.796875 48.80078125 C-142.60724019 42.76322604 -134.10461724 37.38042698 -125.25 32.375 C-124.54278809 31.9728125 -123.83557617 31.570625 -123.10693359 31.15625 C-96.90419713 16.40388463 -67.96369203 6.86864194 -38.25 2.375 C-37.12754883 2.19839844 -36.00509766 2.02179687 -34.84863281 1.83984375 C-23.23552257 0.1829414 -11.71820055 -0.02373513 0 0 Z " fill="#2490F7" transform="translate(255.25,-0.375)"/>
<path d="M0 0 C1.51802216 0.00081573 1.51802216 0.00081573 3.06671143 0.00164795 C34.11391977 0.07815961 63.69867466 5.24392154 92.75 16.375 C92.75 17.035 92.75 17.695 92.75 18.375 C93.48734375 18.64183594 94.2246875 18.90867187 94.984375 19.18359375 C109.03653444 25.23713701 119.36823207 39.59450972 125.5 53.0625 C133.05678389 72.24126836 132.017446 92.31079385 124.2175293 111.20825195 C121.80361307 116.67040348 118.78113345 121.01002527 114.75 125.375 C114.11707031 126.12136719 113.48414063 126.86773437 112.83203125 127.63671875 C98.99390991 142.92875152 79.90153266 145.33802452 60.41601562 147.74804688 C46.75172058 149.60465092 34.46484623 156.55637816 25.86328125 167.64453125 C21.68017319 174.1466957 20.81434221 180.74088304 21.75 188.375 C23.52242304 195.61239408 26.88349826 200.79657799 32.75 205.375 C37.92649528 208.48089717 42.6537712 209.45781913 48.62890625 209.5859375 C68.97423377 210.16093751 87.26242472 213.72439931 102.28515625 228.56640625 C113.33704058 241.15959934 119.17571317 255.13293888 118.9765625 271.98828125 C118.97049484 272.89129974 118.96442719 273.79431824 118.95817566 274.72470093 C118.83250776 284.37021709 118.15858056 293.96243769 117.31567383 303.56884766 C117.06212684 306.50432031 116.83624111 309.44111773 116.61132812 312.37890625 C115.17340893 329.88680986 111.68911758 345.765383 103.9375 361.625 C103.40906494 362.73125732 102.88062988 363.83751465 102.33618164 364.97729492 C100.8255106 368.11905781 99.2902319 371.247655 97.75 374.375 C97.36908203 375.1705127 96.98816406 375.96602539 96.59570312 376.78564453 C89.74432085 391.09004198 80.19999242 401.46090548 68.40820312 411.89013672 C65.30758237 414.66663487 62.28474335 417.52694495 59.25 420.375 C53.82349289 425.45258188 48.36638586 430.49291736 42.87109375 435.49609375 C40.50077869 437.66688474 38.1700858 439.87573544 35.84765625 442.09765625 C35.17798828 442.73445313 34.50832031 443.37125 33.81835938 444.02734375 C32.51059755 445.27270993 31.20822362 446.52376609 29.91210938 447.78125 C26.07244954 451.42665363 22.96588853 454.16024032 17.46875 454.52734375 C13.22558747 454.11647414 11.18765345 453.72147565 7.75 451 C4.45368785 446.67359031 4.30780775 442.63874605 4.75 437.375 C5.39477381 434.17895124 6.31295158 431.09177014 7.26953125 427.9765625 C7.52876877 427.10156097 7.78800629 426.22655945 8.05509949 425.32504272 C8.88074878 422.54687809 9.72132173 419.77349734 10.5625 417 C11.11623009 415.14613045 11.66897338 413.29196585 12.22070312 411.4375 C13.24370893 408.00547188 14.27190776 404.57511464 15.30786133 401.14697266 C15.54211319 400.36900833 15.77636505 399.59104401 16.01771545 398.789505 C16.53349521 397.08886444 17.05613641 395.39029734 17.58372498 393.69328308 C17.85483597 392.8132814 18.12594696 391.93327972 18.40527344 391.02661133 C18.65235046 390.23313797 18.89942749 389.43966461 19.1539917 388.62214661 C22.45331029 376.18263432 18.86264115 364.45222351 12.625 353.6875 C4.85714697 342.15092167 -6.23770649 337.03100045 -19.5625 334.25 C-30.28912868 331.53679392 -44.33055174 321.36240072 -50.4375 312.125 C-50.90542969 311.43921875 -51.37335938 310.7534375 -51.85546875 310.046875 C-55.74893726 302.58712022 -56.75096407 295.72917967 -56.6875 287.375 C-56.70748047 286.44171875 -56.72746094 285.5084375 -56.74804688 284.546875 C-56.74147716 275.1390441 -53.70014838 268.29877904 -47.38671875 261.41015625 C-44.88474128 259.02710275 -42.22311004 256.93846834 -39.5 254.8125 C-33.69852658 250.17291289 -31.74304802 247.31938413 -30.8125 239.875 C-31.33942412 235.65960702 -32.35415002 232.48595626 -35.25 229.375 C-41.93662164 225.51058537 -49.74757691 223.40911972 -57.05273438 221.01953125 C-65.79817981 218.06200494 -71.30049168 214.53663955 -76 206.3125 C-78.33811516 200.48637699 -78.22409986 193.29346453 -76.2578125 187.40234375 C-74.31509293 181.56665512 -73.93647181 174.62850829 -76.265625 168.859375 C-77.91475953 166.17704775 -79.63572288 163.95906677 -81.91796875 161.7890625 C-83.25 160.375 -83.25 160.375 -83.25 158.375 C-83.91 158.375 -84.57 158.375 -85.25 158.375 C-86.875 157 -86.875 157 -88.25 155.375 C-88.25 154.715 -88.25 154.055 -88.25 153.375 C-88.91 153.375 -89.57 153.375 -90.25 153.375 C-90.25 152.715 -90.25 152.055 -90.25 151.375 C-91.13751953 150.98634766 -91.13751953 150.98634766 -92.04296875 150.58984375 C-94.40332672 149.29060246 -95.76687931 147.93025327 -97.5625 145.9375 C-102.33730988 141.10224949 -106.71136321 139.23531973 -113.51220703 139.01220703 C-121.42515527 139.09657956 -128.47351691 141.57913393 -135.8671875 144.1171875 C-137.33729898 144.60720583 -138.80794246 145.09563067 -140.27908325 145.58255005 C-144.11911556 146.85820121 -147.95163854 148.1550635 -151.78289795 149.45678711 C-155.68164051 150.77719621 -159.58718056 152.07716665 -163.4921875 153.37890625 C-170.35544729 155.66974505 -177.21261215 157.97803644 -184.06564331 160.29928589 C-185.11648102 160.65427155 -186.16731873 161.0092572 -187.25 161.375 C-188.32251007 161.74368195 -189.39502014 162.11236389 -190.50003052 162.49221802 C-197.02356106 164.58637043 -203.35078942 164.16070515 -209.5625 161.3125 C-216.08919579 157.62439889 -220.43947802 152.70882745 -222.78515625 145.546875 C-224.65387198 136.81573258 -223.1011493 129.05053307 -218.37890625 121.58984375 C-217.20154506 119.82305142 -216.01215637 118.06423032 -214.8125 116.3125 C-214.18432373 115.3851001 -213.55614746 114.4577002 -212.90893555 113.50219727 C-204.57064821 101.30733304 -195.50253223 90.01987179 -185.25 79.375 C-184.61787598 78.71564453 -183.98575195 78.05628906 -183.33447266 77.37695312 C-174.19002521 67.88869695 -164.89265991 59.1487956 -154.25 51.375 C-153.09894983 50.51693848 -151.94790823 49.65886549 -150.796875 48.80078125 C-142.60724019 42.76322604 -134.10461724 37.38042698 -125.25 32.375 C-124.54278809 31.9728125 -123.83557617 31.570625 -123.10693359 31.15625 C-96.90419713 16.40388463 -67.96369203 6.86864194 -38.25 2.375 C-37.12754883 2.19839844 -36.00509766 2.02179687 -34.84863281 1.83984375 C-23.23552257 0.1829414 -11.71820055 -0.02373513 0 0 Z " fill="#7FBE2B" transform="translate(255.25,-0.375)"/>
<path d="M0 0 C0.99758914 2.99276743 0.99343393 4.54423301 0.8125 7.625 C0.74356111 14.37116322 3.26532696 19.06439948 6.625 24.75 C12.50902481 30.32433929 18.68806417 32.58039145 26.73120117 32.39916992 C32.77132752 31.66157887 38.3960757 29.58130049 44.10351562 27.55529785 C46.42554505 26.73208052 48.75425802 25.93118742 51.0859375 25.13574219 C54.37441898 24.01254876 57.66044243 22.88263208 60.94433594 21.74609375 C68.48268473 19.13974004 76.0307468 16.56498287 83.60089111 14.05236816 C85.94390726 13.26875989 88.27907598 12.46436744 90.61474609 11.65917969 C99.96928032 8.50927391 109.66973749 5.54463302 119.25 9.5 C123.20064982 11.78939331 126.24188006 14.97086325 129.3359375 18.29296875 C130.90476973 20.08917372 130.90476973 20.08917372 133 21 C133 21.66 133 22.32 133 23 C133.66 23 134.32 23 135 23 C135 23.66 135 24.32 135 25 C135.99 25.33 136.98 25.66 138 26 C138 26.66 138 27.32 138 28 C138.66 28 139.32 28 140 28 C141.65625 29.828125 141.65625 29.828125 143.5 32.25 C144.1084375 33.03890625 144.716875 33.8278125 145.34375 34.640625 C148.46956777 39.09344088 149.27570668 41.86091734 149.25 47.375 C149.25773437 49.02628906 149.25773437 49.02628906 149.265625 50.7109375 C148.99056269 54.11685615 148.10542572 56.78188805 147 60 C145.93098223 68.23706324 147.02470334 75.21885492 152 82 C155.74164089 85.55588567 159.76067721 87.31118199 164.5625 89 C165.61497925 89.38454346 165.61497925 89.38454346 166.6887207 89.77685547 C170.98961105 91.3348585 175.32439056 92.75002507 179.6875 94.125 C185.24843121 95.96357346 188.58253632 97.8004874 191.8125 102.8125 C193.74345112 107.99557932 193.47443123 111.50179612 191.8125 116.75 C189.23220039 121.56343163 184.98647825 124.71799836 180.77270508 128.05566406 C173.98471101 133.43710127 168.90079624 139.79890008 167.62109375 148.60839844 C167.4646706 151.37688765 167.44454103 154.10277191 167.5 156.875 C167.51921509 158.33135864 167.51921509 158.33135864 167.53881836 159.81713867 C167.8703603 171.52538965 171.23601816 179.27389187 179 188 C181.73574464 190.49192301 184.62526846 192.61459494 187.6875 194.6875 C188.50476563 195.24711426 189.32203125 195.80672852 190.1640625 196.38330078 C196.83090477 200.71497246 203.40345259 203.04548711 211.05029297 205.0402832 C221.42074576 207.76713009 229.97031237 212.95546855 236 222 C243.73297648 235.83550611 246.42465165 248.05475956 242.2421875 263.640625 C241.47409011 266.18662498 240.68645367 268.71835561 239.875 271.25 C239.46139916 272.60096503 239.05004945 273.95262115 238.64086914 275.30493164 C237.45292509 279.2116139 236.22968608 283.10625122 235 287 C234.06796537 289.96735796 233.1382286 292.93519961 232.22119141 295.90722656 C231.71890306 297.52894509 231.20525424 299.14721439 230.67724609 300.76074219 C228.88000145 306.49388817 227.76751033 312.08094552 230.1875 317.8125 C234.08802411 322.5200291 238.0422448 323.41590635 244 324 C240.309308 328.5210977 236.53373649 332.4713493 232.0703125 336.23046875 C230.67583381 337.42235337 229.31609327 338.65596501 227.9921875 339.92578125 C223.47973106 344.19934294 220.27209044 346.40265805 214 347 C210.07751411 345.888629 207.66084533 344.55917682 204.5625 341.9375 C201.5180483 336.21393081 202.60910911 329.76482889 204.28515625 323.68408203 C204.8654601 321.78823237 205.45850567 319.89624819 206.0625 318.0078125 C206.70128216 315.89866793 207.33927726 313.78928485 207.9765625 311.6796875 C208.97982582 308.41445052 209.99138312 305.15232948 211.01855469 301.89453125 C216.13763297 285.55725906 221.84282995 266.92686154 213.6015625 250.60546875 C206.05954311 238.33589086 197.18768178 231.679528 183.23828125 227.921875 C175.97530805 225.85424934 170.11311279 223.11700856 163.9375 218.75 C163.2357666 218.2562085 162.5340332 217.76241699 161.81103516 217.25366211 C151.95684443 210.21380245 144.58269222 202.35736534 142 190 C141.75790445 186.77389339 141.76895573 183.54682172 141.75 180.3125 C141.7190625 179.02182617 141.7190625 179.02182617 141.6875 177.70507812 C141.62901812 168.00439581 144.25148353 160.08729742 151 153 C153.74349843 150.63422962 156.5384216 148.37882827 159.4140625 146.17578125 C164.06473668 142.26275177 166.65653766 138.91942985 167.375 132.8125 C166.87900092 127.7698427 165.3733578 124.74379774 162 121 C156.92001464 117.99866171 151.09453349 116.30678683 145.50170898 114.51513672 C135.98800456 111.44444663 129.04654402 108.61294815 123.0625 100.3125 C120.23177082 94.1515012 120.05229587 87.13926994 122 80.6875 C124.05739309 73.10086298 124.32346666 65.27924088 120.50732422 58.22436523 C117.22353304 53.37845959 113.0140062 49.36010252 108.875 45.25 C107.97523438 44.31800781 107.07546875 43.38601562 106.1484375 42.42578125 C99.75409376 36.02225023 93.92334807 31.37167125 84.66162109 30.79052734 C80.76286397 31.01356599 77.35059152 31.82153919 73.65625 32.9921875 C72.93731567 33.21180145 72.21838135 33.43141541 71.47766113 33.65768433 C68.98099708 34.42584108 66.49029674 35.21145182 64 36 C63.04883301 36.29942505 62.09766602 36.5988501 61.11767578 36.90734863 C54.68842177 38.93400627 48.2673364 40.98549902 41.84960938 43.04833984 C38.47851061 44.1319073 35.10652847 45.21268855 31.734375 46.29296875 C29.56244908 46.98942457 27.39057231 47.68603365 25.21875 48.3828125 C23.72788879 48.86102951 23.72788879 48.86102951 22.20690918 49.34890747 C17.07625378 50.9983746 11.95812154 52.67499204 6.86082458 54.42514038 C0.43752937 56.40947199 -5.53163866 55.56308603 -11.5 52.6875 C-13.90625 51.38671875 -13.90625 51.38671875 -16 50 C-16.6084375 49.61457031 -17.216875 49.22914063 -17.84375 48.83203125 C-19.4439613 46.29656132 -19.09782527 44.27353554 -18.60986328 41.39501953 C-17.37700354 36.55340463 -15.40414267 32.01932041 -13.4375 27.4375 C-12.99293457 26.38498047 -12.54836914 25.33246094 -12.09033203 24.24804688 C-8.51151447 15.90215744 -4.51724559 7.87363476 0 0 Z " fill="#178EFB" transform="translate(32,130)"/>
<path d="M0 0 C21.44112933 24.14036889 31.28365614 64.84510278 36 96 C36.17732666 97.11882568 36.35465332 98.23765137 36.53735352 99.39038086 C38.21876341 111.11235947 38.35734341 122.73498976 38.3125 134.5625 C38.30926727 136.09310562 38.30926727 136.09310562 38.30596924 137.65463257 C38.25633352 152.28210524 38.00919712 166.63263838 35 181 C34.80132324 181.97485352 34.60264648 182.94970703 34.39794922 183.95410156 C24.75746901 230.04065188 4.43022267 271.42054912 -26.75 306.6875 C-27.59046875 307.64011719 -28.4309375 308.59273438 -29.296875 309.57421875 C-33.30651162 313.17246202 -37.09516845 314.76189606 -42.5 315.4375 C-48.18579369 314.72677579 -51.52235262 312.55342417 -55.4375 308.4375 C-57.66278544 303.54187202 -57.72542157 299.30558475 -57 294 C-55.49275031 290.07231913 -53.43909566 286.58400777 -51.25 283 C-45.47308915 273.27046594 -39.91944245 263.23595828 -39.859375 251.66796875 C-39.67108093 239.21738554 -39.24110835 228.47916665 -34 217 C-33.3503125 215.53433594 -33.3503125 215.53433594 -32.6875 214.0390625 C-27.89599354 204.31992725 -20.28498977 196.66962775 -12.06640625 189.74609375 C-8.76271855 186.95450887 -5.58421324 184.02488175 -2.3828125 181.1171875 C-0.40331239 179.35835297 1.61493441 177.70754085 3.6875 176.0625 C16.25524241 165.2943639 23.12325152 147.19231065 24.3828125 130.984375 C24.96584551 111.16125268 17.98555951 94.68980931 5.421875 79.60522461 C-6.6807134 64.84564434 -11.46163369 47.13032446 -10.22753906 28.28515625 C-9.19500789 17.91552991 -5.48599397 8.79587699 0 0 Z " fill="#037D73" transform="translate(474,121)"/>
<path d="M0 0 C7.31605543 6.25414696 10.62409482 14.08952391 14.0625 22.875 C22.57899386 44.32139344 34.35304455 59.46194163 54.5 70.9375 C61.47247547 74.91590352 67.37403383 79.21420524 73 85 C73.61875 85.58652344 74.2375 86.17304688 74.875 86.77734375 C86.8196738 98.96197752 91.27399834 116.13864811 91.16015625 132.69555664 C90.94612373 140.48267578 89.92733181 148.20999427 89 155.9375 C88.8065105 157.60342508 88.61379791 159.26944059 88.421875 160.93554688 C87.95683048 164.95812579 87.48141544 168.97934888 87 173 C70.46637069 169.27045997 53.56249738 153.83665908 41 143 C40.25492187 142.36578125 39.50984375 141.7315625 38.7421875 141.078125 C25.23720167 129.26698485 12.56581257 116.51639772 2 102 C1.14350934 100.85005169 0.28673567 99.70031411 -0.5703125 98.55078125 C-6.6109414 90.35910474 -11.97005071 81.84354922 -17 73 C-17.36448242 72.36819824 -17.72896484 71.73639648 -18.10449219 71.08544922 C-28.13816854 53.55529711 -38.52902116 33.53256987 -37 13 C-35.26701481 6.86147416 -29.54613535 1.01113488 -24.05078125 -2.10546875 C-15.5508885 -5.66239833 -7.86715111 -4.45678975 0 0 Z " fill="#94D42A" transform="translate(49,309)"/>
<path d="M0 0 C30.59014361 4.42988381 63.42496585 32.22015997 85 53 C85.65935547 53.63212402 86.31871094 54.26424805 86.99804688 54.91552734 C96.48135014 64.05520134 105.25137877 73.34377813 113 84 C113.68280029 84.93150879 113.68280029 84.93150879 114.37939453 85.88183594 C117.30627106 89.88532319 120.19855652 93.90759282 123 98 C123.6290625 98.83402344 124.258125 99.66804688 124.90625 100.52734375 C126 103 126 103 125.34375 105.94921875 C124.67859375 107.45935547 124.67859375 107.45935547 124 109 C123.39671875 110.43279297 123.39671875 110.43279297 122.78125 111.89453125 C121.92995831 113.83329617 121.07580922 115.77080904 120.21875 117.70703125 C113.67397486 135.39051023 116.29048194 154.16723808 124 171 C126.80506778 176.36831936 130.13138248 180.85514533 134 185.5 C146.19987564 200.16287653 152.71873307 217.79704325 151.22314453 236.99121094 C148.78334957 258.95470434 136.78347484 276.18360375 120 290 C119.67 290 119.34 290 119 290 C119.47988514 283.44577923 120.1374713 276.95423895 121.01953125 270.44140625 C122.32309544 259.9337652 122.35376459 249.44976931 122.3125 238.875 C122.31034485 237.88077026 122.3081897 236.88654053 122.30596924 235.86218262 C122.25564113 221.39619635 121.96676694 207.20980887 119 193 C118.69400879 191.51161621 118.69400879 191.51161621 118.38183594 189.99316406 C113.89257419 168.76228863 107.32547995 148.58667214 98 129 C97.67918457 128.31599121 97.35836914 127.63198242 97.02783203 126.92724609 C87.20058823 106.06993179 74.18204739 87.29498307 59 70 C58.26136719 69.14921875 57.52273438 68.2984375 56.76171875 67.421875 C52.35790452 62.43034882 47.7544087 57.65648484 43.0625 52.9375 C42.49418457 52.36451172 41.92586914 51.79152344 41.34033203 51.20117188 C38.44586992 48.2371023 38.44586992 48.2371023 35 46 C34.34943164 44.23163691 33.77990622 42.43318877 33.25 40.625 C28.10885913 24.80898118 18.36735587 13.6169955 5 4 C3.33001351 2.67082708 1.66142513 1.33985898 0 0 Z " fill="#1A55C7" transform="translate(348,17)"/>
<path d="M0 0 C1.29886148 2.59772295 0.9586986 4.35763853 0.8125 7.25 C0.77907492 12.35735157 1.36563747 15.17435524 5 19 C10.2793639 22.51957594 14.8101861 22.54294705 20.9375 21.5 C21.618125 21.335 22.29875 21.17 23 21 C14.36626614 31.40475619 4.78159339 39.91957052 -6 48 C-6.57943359 48.43489746 -7.15886719 48.86979492 -7.75585938 49.31787109 C-16.48609306 55.82115534 -25.52484893 61.64379142 -35 67 C-36.06081787 67.60328125 -36.06081787 67.60328125 -37.14306641 68.21875 C-60.27845836 81.2441741 -85.44962409 89.99301461 -111.4375 95.3125 C-112.15639404 95.45985596 -112.87528809 95.60721191 -113.6159668 95.7590332 C-128.10549209 98.51302715 -142.35220355 99.28367421 -157.0625 99.125 C-158.71939551 99.11492966 -160.37629708 99.10581112 -162.03320312 99.09765625 C-166.02229036 99.07601061 -170.01107426 99.04171509 -174 99 C-173.505 98.01 -173.505 98.01 -173 97 C-170.84887695 96.50097656 -170.84887695 96.50097656 -167.98828125 96.140625 C-166.40358032 95.92660034 -166.40358032 95.92660034 -164.78686523 95.70825195 C-163.64032471 95.55702881 -162.49378418 95.40580566 -161.3125 95.25 C-118.54665014 89.08210166 -77.5476193 71.28413168 -44 44 C-43.18144531 43.37222656 -42.36289062 42.74445313 -41.51953125 42.09765625 C-29.20563108 32.59606607 -17.01208832 21.44587573 -7.25 9.3125 C-6.51265625 8.40113281 -5.7753125 7.48976563 -5.015625 6.55078125 C-3.30873462 4.39070486 -1.63759385 2.21282461 0 0 Z " fill="#0E6CE2" transform="translate(417,413)"/>
<path d="M0 0 C-0.6112019 3.34552618 -1.30083687 6.67181996 -2 10 C-2.21011719 11.06992187 -2.42023438 12.13984375 -2.63671875 13.2421875 C-8.96409565 41.94687295 -22.86985741 70.21887654 -40 94 C-40.33 93.34 -40.66 92.68 -41 92 C-39.68170176 88.91012046 -38.22149831 85.93657581 -36.71289062 82.9375 C-32.43582859 74.19016163 -31.79579561 66.55618535 -31.6875 56.9375 C-31.41585221 46.70716968 -30.29197558 38.40035956 -26 29 C-25.566875 28.02289063 -25.13375 27.04578125 -24.6875 26.0390625 C-21.07927496 18.72010602 -9.18742166 0 0 0 Z " fill="#339456" transform="translate(466,309)"/>
<path d="M0 0 C0.99 0.495 0.99 0.495 2 1 C-15.01787272 20.11674369 -30.42508277 26.93185638 -55.6875 30.6875 C-57.17912624 30.91412337 -58.67066354 31.14133301 -60.16210938 31.36914062 C-63.77374135 31.91950919 -67.38650484 32.46198292 -71 33 C-68.81013792 23.44726645 -59.14321254 17.38320057 -51.3046875 12.35546875 C-45.52269962 8.96033744 -39.8328118 7.96814365 -33.17285156 7.24609375 C-29.95264747 6.8813785 -26.75575839 6.3856209 -23.55395508 5.88671875 C-21.94886185 5.63757934 -20.34195857 5.39970873 -18.7331543 5.17578125 C-13.24139389 4.36912889 -8.21454094 2.88166372 -3 1 C-2.01 0.67 -1.02 0.34 0 0 Z " fill="#0778EE" transform="translate(350,139)"/>
<path d="M0 0 C3.55780196 0.60990891 6.6828589 1.5783681 10 3 C9.67 3.66 9.34 4.32 9 5 C5.22454612 3.90931332 2.52956528 3.0916909 0 0 Z " fill="#0D77DF" transform="translate(348,17)"/>
</svg>
