<?xml version="1.0" encoding="UTF-8"?>
<svg version="1.1" xmlns="http://www.w3.org/2000/svg" width="512" height="512">
<path d="M0 0 C1.51427582 0.00081573 1.51427582 0.00081573 3.05914307 0.00164795 C19.57229403 0.04242277 35.48017849 0.96211211 51.6875 4.375 C52.71875 4.58930664 53.75 4.80361328 54.8125 5.02441406 C91.68596499 12.94068608 127.03718894 29.00699612 156.6875 52.375 C157.68007813 53.15617187 158.67265625 53.93734375 159.6953125 54.7421875 C162.39444147 56.91502391 165.05094824 59.12677757 167.6875 61.375 C168.44675781 62.02210937 169.20601563 62.66921875 169.98828125 63.3359375 C183.1307278 74.86594943 195.36853664 87.24789616 205.6875 101.375 C206.54556152 102.52605017 207.40363451 103.67709177 208.26171875 104.828125 C214.29927396 113.01775981 219.68207302 121.52038276 224.6875 130.375 C225.0896875 131.08221191 225.491875 131.78942383 225.90625 132.51806641 C240.65861537 158.72080287 250.19385806 187.66130797 254.6875 217.375 C254.86410156 218.49745117 255.04070312 219.61990234 255.22265625 220.77636719 C256.8795586 232.38947743 257.08623513 243.90679945 257.0625 255.625 C257.06168427 257.14302216 257.06168427 257.14302216 257.06085205 258.69171143 C257.02011956 275.22030572 256.11674222 291.15413999 252.6875 307.375 C252.46787598 308.41688477 252.24825195 309.45876953 252.02197266 310.53222656 C241.92435215 356.82549311 219.56521242 399.23913721 186.6875 433.375 C186.05537598 434.03435547 185.42325195 434.69371094 184.77197266 435.37304688 C175.62752521 444.86130305 166.33015991 453.6012044 155.6875 461.375 C154.53644983 462.23306152 153.38540823 463.09113451 152.234375 463.94921875 C144.04474019 469.98677396 135.54211724 475.36957302 126.6875 480.375 C125.98028809 480.7771875 125.27307617 481.179375 124.54443359 481.59375 C98.33975553 496.34720851 69.40203614 505.87670334 39.6875 510.375 C38.56867432 510.55232666 37.44984863 510.72965332 36.29711914 510.91235352 C24.57514053 512.59376341 12.95251024 512.73234341 1.125 512.6875 C-0.40560562 512.68426727 -0.40560562 512.68426727 -1.96713257 512.68096924 C-16.59460524 512.63133352 -30.94513838 512.38419712 -45.3125 509.375 C-46.77478027 509.07698486 -46.77478027 509.07698486 -48.26660156 508.77294922 C-91.53631524 499.72170074 -131.73769334 481.33729329 -165.3125 452.375 C-166.05757813 451.74078125 -166.80265625 451.1065625 -167.5703125 450.453125 C-181.07529833 438.64198485 -193.74668743 425.89139772 -204.3125 411.375 C-205.16899066 410.22505169 -206.02576433 409.07531411 -206.8828125 407.92578125 C-212.92284209 399.73565742 -218.30617614 391.23120382 -223.3125 382.375 C-223.7146875 381.66778809 -224.116875 380.96057617 -224.53125 380.23193359 C-239.28470851 354.02725553 -248.81420334 325.08953614 -253.3125 295.375 C-253.48982666 294.25617432 -253.66715332 293.13734863 -253.84985352 291.98461914 C-255.53126346 280.26264016 -255.66983932 268.64000982 -255.625 256.8125 C-255.62284485 255.79176392 -255.6206897 254.77102783 -255.61846924 253.71936035 C-255.56880885 239.07901952 -255.26684012 224.76181354 -252.3125 210.375 C-252.11382324 209.36244141 -251.91514648 208.34988281 -251.71044922 207.30664062 C-242.06299569 159.06214645 -219.46934884 114.83894866 -185.3125 79.375 C-184.68037598 78.71564453 -184.04825195 78.05628906 -183.39697266 77.37695312 C-174.25252521 67.88869695 -164.95515991 59.1487956 -154.3125 51.375 C-153.16144983 50.51693848 -152.01040823 49.65886549 -150.859375 48.80078125 C-142.66974019 42.76322604 -134.16711724 37.38042698 -125.3125 32.375 C-124.60528809 31.9728125 -123.89807617 31.570625 -123.16943359 31.15625 C-100.03404164 18.1308259 -74.86287591 9.38198539 -48.875 4.0625 C-48.15610596 3.91514404 -47.43721191 3.76778809 -46.6965332 3.6159668 C-31.16987908 0.66484793 -15.76936592 -0.03207988 0 0 Z " fill="#FDB97E" transform="translate(255.3125,-0.375)"/>
<path d="M0 0 C1.52165515 2.79762639 2.40416927 5.29775359 3 8.421875 C3.165 9.28425781 3.33 10.14664063 3.5 11.03515625 C3.665 11.93105469 3.83 12.82695312 4 13.75 C4.165 14.59949219 4.33 15.44898438 4.5 16.32421875 C7.45361584 32.03837803 8.40732403 47.29139835 8.375 63.25 C8.37418427 64.76802216 8.37418427 64.76802216 8.37335205 66.31671143 C8.33261956 82.84530572 7.42924222 98.77913999 4 115 C3.78037598 116.04188477 3.56075195 117.08376953 3.33447266 118.15722656 C-7.89267939 169.62891158 -34.00436108 212.92884897 -70.875 250 C-71.96385498 251.09598511 -71.96385498 251.09598511 -73.07470703 252.21411133 C-75.03049602 254.16377572 -77.01177236 256.08354757 -79 258 C-79.76183594 258.77472656 -80.52367187 259.54945313 -81.30859375 260.34765625 C-85.61402384 262.99090288 -90.25804477 263.56650745 -95.1875 264.4375 C-96.30406982 264.64648926 -97.42063965 264.85547852 -98.57104492 265.07080078 C-100.90934307 265.50834063 -103.24864186 265.94056364 -105.58886719 266.36767578 C-108.69383185 266.94324538 -111.78861062 267.55309893 -114.8828125 268.18359375 C-128.94783223 271.02800696 -143.08101683 273.36791435 -157.25 275.625 C-158.1646402 275.77120789 -159.0792804 275.91741577 -160.02163696 276.0680542 C-181.01207281 279.41293902 -201.95888798 282.49302226 -223.18798828 283.79052734 C-225.68814536 283.97676929 -228.13902658 284.26844276 -230.62109375 284.61328125 C-244.40933816 286.14619736 -253.60057384 278.08944713 -264 270 C-264.58539551 269.55350098 -265.17079102 269.10700195 -265.77392578 268.64697266 C-268.95230758 266.21004212 -271.98272194 263.63219002 -275 261 C-276.13645781 260.04371233 -277.27459293 259.08941576 -278.4140625 258.13671875 C-288.35101679 249.79085375 -297.69813301 241.00185168 -306 231 C-306.43038574 230.4834082 -306.86077148 229.96681641 -307.30419922 229.43457031 C-327.84980593 204.65182358 -343.96944757 176.62149109 -354 146 C-354.2175293 145.35240723 -354.43505859 144.70481445 -354.65917969 144.03759766 C-363.58661845 117.42410585 -369.22258873 89.18646614 -367 61 C-366.505 60.505 -366.505 60.505 -366 60 C-359.22808585 60.14656716 -352.73542629 61.66490422 -346.1875 63.25 C-335.49539637 65.70749589 -324.73923231 67.29896777 -313.875 68.75 C-312.6905983 68.90982361 -312.6905983 68.90982361 -311.48226929 69.07287598 C-251.13688858 77.16147631 -189.66344557 69.12077011 -131 54 C-129.41199244 53.61109383 -127.82349816 53.22416602 -126.234375 52.83984375 C-55.95863337 38.0389891 -55.95863337 38.0389891 0 0 Z " fill="#FDB97E" transform="translate(504,192)"/>
<path d="M0 0 C1.51427582 0.00081573 1.51427582 0.00081573 3.05914307 0.00164795 C19.57229403 0.04242277 35.48017849 0.96211211 51.6875 4.375 C52.71875 4.58930664 53.75 4.80361328 54.8125 5.02441406 C91.68596499 12.94068608 127.03718894 29.00699612 156.6875 52.375 C157.68007813 53.15617187 158.67265625 53.93734375 159.6953125 54.7421875 C162.39444147 56.91502391 165.05094824 59.12677757 167.6875 61.375 C168.44675781 62.02210937 169.20601563 62.66921875 169.98828125 63.3359375 C183.15861734 74.89041723 195.23680359 87.31373313 205.6875 101.375 C206.3475 102.17808594 207.0075 102.98117188 207.6875 103.80859375 C210.12291459 106.79084912 211.54921561 108.68357804 212.3125 112.5 C210.35810149 121.49023313 201.95668326 127.32386344 194.625 132.05078125 C190.03766004 134.92650944 185.37520352 137.6668243 180.6875 140.375 C180.07165039 140.7359375 179.45580078 141.096875 178.82128906 141.46875 C145.95060874 160.58264929 106.73441523 172.53308059 69.6875 180.375 C68.96208008 180.53419922 68.23666016 180.69339844 67.48925781 180.85742188 C37.5496894 187.40869398 8.26089803 189.75124712 -22.3125 189.375 C-23.1998584 189.36774902 -24.0872168 189.36049805 -25.00146484 189.35302734 C-64.05254223 188.87511538 -104.06737901 177.63465238 -138.42333984 159.37255859 C-140.4032788 158.32706485 -142.39711058 157.31243739 -144.39453125 156.30078125 C-166.93368804 144.78007019 -192.83135368 130.01748122 -210.3125 111.375 C-208.74399855 106.27490409 -205.60629899 102.71543905 -202.25 98.6875 C-201.65856201 97.97126465 -201.06712402 97.2550293 -200.45776367 96.51708984 C-186.67664961 79.90922487 -171.80298742 64.10551452 -154.3125 51.375 C-153.16255169 50.51850934 -152.01281411 49.66173567 -150.86328125 48.8046875 C-142.67315742 42.76465791 -134.16870382 37.38132386 -125.3125 32.375 C-124.60528809 31.9728125 -123.89807617 31.570625 -123.16943359 31.15625 C-100.03404164 18.1308259 -74.86287591 9.38198539 -48.875 4.0625 C-48.15610596 3.91514404 -47.43721191 3.76778809 -46.6965332 3.6159668 C-31.16987908 0.66484793 -15.76936592 -0.03207988 0 0 Z " fill="#FDCA9C" transform="translate(255.3125,-0.375)"/>
<path d="M0 0 C1.35102703 0.45471907 2.70264973 0.90767008 4.0546875 1.359375 C30.72520669 10.52549903 55.82493781 23.52338945 78 41 C78.99257813 41.78117187 79.98515625 42.56234375 81.0078125 43.3671875 C83.70694147 45.54002391 86.36344824 47.75177757 89 50 C89.75925781 50.64710937 90.51851563 51.29421875 91.30078125 51.9609375 C104.47111734 63.51541723 116.54930359 75.93873313 127 90 C127.66 90.80308594 128.32 91.60617188 129 92.43359375 C131.43541459 95.41584912 132.86171561 97.30857804 133.625 101.125 C131.67060149 110.11523313 123.26918326 115.94886344 115.9375 120.67578125 C111.35016004 123.55150944 106.68770352 126.2918243 102 129 C101.38415039 129.3609375 100.76830078 129.721875 100.13378906 130.09375 C67.26310874 149.20764929 28.04691523 161.15808059 -9 169 C-9.72541992 169.15919922 -10.45083984 169.31839844 -11.19824219 169.48242188 C-41.1378106 176.03369398 -70.42660197 178.37624712 -101 178 C-101.8873584 177.99274902 -102.7747168 177.98549805 -103.68896484 177.97802734 C-129.23748318 177.66536139 -159.29922988 172.94319482 -183 163 C-182.45844262 156.91158214 -180.57392232 151.94855325 -178.125 146.375 C-177.52933228 145.00770752 -177.52933228 145.00770752 -176.92163086 143.61279297 C-169.96006376 127.90042689 -161.93425172 113.02862879 -152 99 C-148.85603488 100.04158845 -145.71879754 101.09759948 -142.58984375 102.18359375 C-141.38457031 102.59738281 -140.17929688 103.01117188 -138.9375 103.4375 C-137.15666016 104.05431641 -137.15666016 104.05431641 -135.33984375 104.68359375 C-95.2004968 117.46430563 -42.4122574 116.77558252 -4.1875 98.0625 C2.68123674 94.49336742 9.51332598 90.63172331 13 83.4375 C14.23378376 79.19636833 14.96453346 76.27387598 13.19140625 72.09375 C5.63446717 58.49648937 -10.53207035 53.52158356 -24.59375 49.421875 C-48.5995298 42.87643943 -73.31226078 43.203076 -98 43 C-95.12772265 40.03336523 -92.36126993 37.36119565 -88.91015625 35.08984375 C-88.13768555 34.58106689 -87.36521484 34.07229004 -86.56933594 33.5480957 C-85.74208008 33.01659912 -84.91482422 32.48510254 -84.0625 31.9375 C-83.1849707 31.37313232 -82.30744141 30.80876465 -81.40332031 30.22729492 C-21.26424179 -7.93707075 -21.26424179 -7.93707075 0 0 Z " fill="#FDDABC" transform="translate(334,11)"/>
<path d="M0 0 C1.52165515 2.79762639 2.40416927 5.29775359 3 8.421875 C3.1640332 9.27305908 3.32806641 10.12424316 3.49707031 11.0012207 C4.35026705 15.66439645 5.18685849 20.32967112 6 25 C6.23203125 26.25941406 6.4640625 27.51882812 6.703125 28.81640625 C7.33748623 32.87178697 7.69987692 36.91017463 8 41 C8.15782959 42.78833252 8.15782959 42.78833252 8.31884766 44.61279297 C10.51592385 70.88673976 10.51592385 70.88673976 5.25 77.3125 C2.22191846 80.04669933 -1.16895413 81.97089364 -4.79296875 83.81347656 C-7.85007927 85.45701164 -10.54260171 87.4887847 -13.32202148 89.55810547 C-38.98865426 108.56889014 -66.04821586 124.8133924 -99 122 C-107.92455165 120.49305005 -116.27503689 117.09347778 -124.40234375 113.1953125 C-148.28015576 102.20792833 -179.67428699 102.71860029 -204.1875 111.6875 C-216.29736843 116.45457823 -226.68461532 122.42198581 -236.72460938 130.7019043 C-257.45129987 147.79487179 -281.51743869 148.88552567 -307.27148438 146.55322266 C-312.87697341 146.00224876 -318.47037345 145.35948316 -324.0625 144.6875 C-324.96505524 144.58080994 -325.86761047 144.47411987 -326.79751587 144.36419678 C-351.25721888 141.43040163 -351.25721888 141.43040163 -356 139 C-358.33693343 134.82279769 -359.11686308 130.67823884 -360 126 C-360.50875121 124.06001485 -361.01771141 122.12007387 -361.53417969 120.18212891 C-366.4383614 101.08664134 -368.55150534 80.67590857 -367 61 C-366.505 60.505 -366.505 60.505 -366 60 C-359.22808585 60.14656716 -352.73542629 61.66490422 -346.1875 63.25 C-335.49539637 65.70749589 -324.73923231 67.29896777 -313.875 68.75 C-312.6905983 68.90982361 -312.6905983 68.90982361 -311.48226929 69.07287598 C-251.13688858 77.16147631 -189.66344557 69.12077011 -131 54 C-129.41199244 53.61109383 -127.82349816 53.22416602 -126.234375 52.83984375 C-55.95863337 38.0389891 -55.95863337 38.0389891 0 0 Z " fill="#FDDABC" transform="translate(504,192)"/>
<path d="M0 0 C4.10300412 1.45299045 7.35120304 3.48605103 10.9375 5.9375 C51.66075002 32.67842405 108.38256959 48.27412949 157.07421875 51.3671875 C167.8165484 52.07885983 167.8165484 52.07885983 171.2734375 54.76953125 C173.06648078 57.08588354 174.49998751 59.48594846 176 62 C177.46279833 63.71984804 178.9647581 65.40699749 180.5 67.0625 C183.12826858 69.93290387 185.69513505 72.82417326 188.1875 75.8125 C196.92099351 85.79363544 207.2706975 94.61194655 217.93164062 102.46679688 C219.42811188 103.57607916 220.91232579 104.70196121 222.38867188 105.83789062 C236.44298236 116.71653525 236.44298236 116.71653525 253.453125 118.6015625 C254.54850586 118.44929199 254.54850586 118.44929199 255.66601562 118.29394531 C258.17127803 117.978429 260.64990742 117.83195499 263.171875 117.7109375 C303.27416417 115.57154967 344.29021604 107.77874251 383.546875 99.50952148 C388.69252652 98.42610306 393.77139159 97.57283122 399 97 C395.07186675 101.18797085 390.82939468 104.47195476 386.125 107.75 C384.99843994 108.53769775 384.99843994 108.53769775 383.84912109 109.34130859 C376.75892917 114.24783492 369.51239269 118.77175355 362 123 C361.29713867 123.39928711 360.59427734 123.79857422 359.87011719 124.20996094 C333.66087468 138.96778056 304.72086987 148.50074452 275 153 C273.88117432 153.17732666 272.76234863 153.35465332 271.60961914 153.53735352 C259.88764053 155.21876341 248.26501024 155.35734341 236.4375 155.3125 C235.41709625 155.31034485 234.3966925 155.3081897 233.34536743 155.30596924 C218.71789476 155.25633352 204.36736162 155.00919712 190 152 C188.53771973 151.70198486 188.53771973 151.70198486 187.04589844 151.39794922 C143.77618476 142.34670074 103.57480666 123.96229329 70 95 C69.25492187 94.36578125 68.50984375 93.7315625 67.7421875 93.078125 C54.23720167 81.26698485 41.56581257 68.51639772 31 54 C30.14350934 52.85005169 29.28673567 51.70031411 28.4296875 50.55078125 C20.10554664 39.26346164 13.13842752 27.31144188 6.5625 14.9375 C6.13710938 14.13997314 5.71171875 13.34244629 5.2734375 12.52075195 C3.12753194 8.4212216 1.30634876 4.46157365 0 0 Z " fill="#FDCA9C" transform="translate(20,357)"/>
<path d="M0 0 C0.66 0.33 1.32 0.66 2 1 C-8.56292601 24.33209865 -21.33350014 45.4960136 -38 65 C-38.63679688 65.74894531 -39.27359375 66.49789062 -39.9296875 67.26953125 C-45.12847776 73.2066711 -50.68324276 78.78487874 -56.25 84.375 C-57.03109131 85.16076416 -57.81218262 85.94652832 -58.61694336 86.75610352 C-60.7251864 88.85846077 -62.8589644 90.9311618 -65 93 C-66.16208984 94.18142578 -66.16208984 94.18142578 -67.34765625 95.38671875 C-71.63826872 97.99647272 -76.28705749 98.57163375 -81.1875 99.4375 C-82.30406982 99.64648926 -83.42063965 99.85547852 -84.57104492 100.07080078 C-86.90934307 100.50834063 -89.24864186 100.94056364 -91.58886719 101.36767578 C-94.69383185 101.94324538 -97.78861062 102.55309893 -100.8828125 103.18359375 C-114.94783223 106.02800696 -129.08101683 108.36791435 -143.25 110.625 C-144.1646402 110.77120789 -145.0792804 110.91741577 -146.02163696 111.0680542 C-167.01207281 114.41293902 -187.95888798 117.49302226 -209.18798828 118.79052734 C-211.68814536 118.97676929 -214.13902658 119.26844276 -216.62109375 119.61328125 C-230.40933816 121.14619736 -239.60057384 113.08944713 -250 105 C-250.58539551 104.55350098 -251.17079102 104.10700195 -251.77392578 103.64697266 C-254.95230758 101.21004212 -257.98272194 98.63219002 -261 96 C-262.13645781 95.04371233 -263.27459293 94.08941576 -264.4140625 93.13671875 C-278.12694333 81.61952255 -289.73808241 68.89225208 -301 55 C-300.67 54.34 -300.34 53.68 -300 53 C-298.89003662 53.08564209 -297.78007324 53.17128418 -296.63647461 53.25952148 C-292.3642436 53.58711748 -288.0914749 53.90712063 -283.81842041 54.2237854 C-281.90000664 54.36609861 -279.98167091 54.50946781 -278.06341553 54.65390015 C-268.28824065 55.38488466 -258.53463993 56.08126998 -248.73046875 56.2109375 C-248.02935471 56.22224197 -247.32824066 56.23354645 -246.60588074 56.24519348 C-243.38516977 56.29277046 -240.16992767 56.30715047 -236.94897461 56.26928711 C-228.29314262 56.34779392 -222.40523431 58.61885046 -215 63 C-188.42041734 77.86733652 -159.38272874 82.36698768 -129.76220703 74.39794922 C-113.02545762 69.63284782 -98.65670685 62.23048876 -85.9921875 50.14453125 C-73.11067133 37.86987413 -59.05493435 29.78869307 -42.63818359 22.88623047 C-27.74895099 16.62203877 -12.83397624 9.96365251 0 0 Z " fill="#FDDABC" transform="translate(490,357)"/>
<path d="M0 0 C3.19511539 2.69809744 6.35789151 5.38836802 9.38671875 8.2734375 C42.83995166 39.97650128 93.35468215 55.31734907 137.81420898 63.21362305 C138.83458252 63.40351807 139.85495605 63.59341309 140.90625 63.7890625 C142.27233398 64.03197021 142.27233398 64.03197021 143.66601562 64.27978516 C146.31192704 65.09625364 147.33608045 65.80820324 149 68 C149.90039062 69.99511719 149.90039062 69.99511719 150.65625 72.296875 C150.95047852 73.16135254 151.24470703 74.02583008 151.54785156 74.91650391 C151.86206055 75.85155762 152.17626953 76.78661133 152.5 77.75 C160.57026002 100.7194936 171.84583656 122.82291242 186.671875 142.19921875 C188 144 188 144 188 145 C176.87009398 144.52417922 166.08777438 143.26849663 155.125 141.3125 C154.36854187 141.17961578 153.61208374 141.04673157 152.83270264 140.90982056 C113.64167057 134.00790991 74.46608861 123.53063649 39.37304688 104.27880859 C37.77884398 103.41971037 36.16731102 102.59208822 34.54101562 101.79541016 C23.606373 96.40829935 17.8028265 90.92655058 13.75 79.25 C12.36984053 74.86397175 11.1678395 70.44654394 10 66 C9.42818629 64.00842249 8.85404566 62.01751129 8.27734375 60.02734375 C5.27976896 49.27450955 3.25955634 38.41211903 1.625 27.375 C1.45701904 26.24989014 1.28903809 25.12478027 1.1159668 23.96557617 C0.02335377 15.94540694 -0.17824066 8.08786051 0 0 Z " fill="#FDA95C" transform="translate(0,265)"/>
<path d="M0 0 C3.20871554 1.36080466 5.65962251 3.29080016 8.31103516 5.52734375 C26.12461966 20.50525589 46.5265973 33.03413896 67 44 C68.02746338 44.55107422 68.02746338 44.55107422 69.07568359 45.11328125 C81.04693784 51.4599179 93.54251299 56.69476105 106 62 C103.09051769 73.68140844 103.09051769 73.68140844 101.97265625 77.90625 C96.83584959 98.18892006 94.71206088 119.18494398 93 140 C48.51190961 131.99152627 1.95545645 112.27150339 -37 90 C-37.24602406 83.473888 -36.59298624 78.20711942 -34.625 72 C-34.36098389 71.15042725 -34.09696777 70.30085449 -33.82495117 69.42553711 C-25.88504588 44.62757129 -15.05965515 21.26645445 0 0 Z " fill="#FDA95C" transform="translate(44,111)"/>
<path d="M0 0 C0.33 0 0.66 0 1 0 C1 1.65 1 3.3 1 5 C1.73057617 5.28198242 2.46115234 5.56396484 3.21386719 5.85449219 C5.75544945 6.89945398 8.14576713 8.05335345 10.578125 9.328125 C48.17178025 28.75049915 91.84352718 48.59464127 134 55 C133.01 55.99 133.01 55.99 132 57 C131.52826222 60.70471407 131.66813655 64.45644059 131.6875 68.1875 C131.69595947 69.87359375 131.69595947 69.87359375 131.70458984 71.59375 C131.97681002 90.8054866 135.56942276 108.95414917 140.38330078 127.50244141 C140.99763319 129.99041471 141.51658027 132.48362263 142 135 C95.19458903 127.66049952 40.00678517 112.93445469 4.70068359 79.55371094 C2.93881436 77.90038308 2.93881436 77.90038308 0.64697266 76.18847656 C-3.15997844 72.98964785 -5.63585927 70.59014684 -6.76733398 65.64916992 C-6.9978196 61.69928419 -6.94162909 57.82099844 -6.75 53.875 C-6.71213468 52.44749164 -6.67676095 51.01991515 -6.64379883 49.59228516 C-6.16055203 32.83617356 -3.97972677 16.28583225 0 0 Z " fill="#FEC99B" transform="translate(6,196)"/>
<path d="M0 0 C1.04344574 0.00553894 2.08689148 0.01107788 3.16195679 0.01678467 C31.99856772 0.19586154 68.43911827 2.18348647 90.47265625 23.6015625 C93.35658712 26.79425134 95.10281062 29.26984628 95.26953125 33.66015625 C94.83237412 40.73737567 91.8666439 45.0435187 86.875 49.9375 C59.34918829 72.82526285 12.03904372 72.72328338 -21.36132812 69.6730957 C-45.42816898 67.15847177 -71.93708731 62.41989575 -88.46484375 43.33203125 C-91.22988003 39.57318483 -91.25670581 36.01609235 -90.8125 31.5 C-85.74621207 19.4498105 -74.2713707 14.11025154 -62.9140625 9.34423828 C-43.06005009 1.3684977 -21.15916984 -0.22167294 0 0 Z " fill="#E8AD8C" transform="translate(253.8125,53.5)"/>
<path d="M0 0 C8.20280855 0.62166955 16.14565569 2.10282482 24.1947937 3.72421265 C28.19104717 4.52735712 32.19120785 5.31052885 36.19140625 6.09375 C37.00980484 6.25409225 37.82820343 6.41443451 38.67140198 6.57963562 C62.00241129 11.13398289 85.40107644 15.1038125 109 18 C110.16869629 18.15098145 111.33739258 18.30196289 112.54150391 18.45751953 C178.62129645 26.83154109 245.84390642 16.13888176 310.546875 2.50952148 C315.69252652 1.42610306 320.77139159 0.57283122 326 0 C322.07186675 4.18797085 317.82939468 7.47195476 313.125 10.75 C311.99843994 11.53769775 311.99843994 11.53769775 310.84912109 12.34130859 C303.75892917 17.24783492 296.51239269 21.77175355 289 26 C288.29713867 26.39928711 287.59427734 26.79857422 286.87011719 27.20996094 C260.66087468 41.96778056 231.72086987 51.50074452 202 56 C200.88117432 56.17732666 199.76234863 56.35465332 198.60961914 56.53735352 C186.88764053 58.21876341 175.26501024 58.35734341 163.4375 58.3125 C162.41709625 58.31034485 161.3966925 58.3081897 160.34536743 58.30596924 C145.71789476 58.25633352 131.36736162 58.00919712 117 55 C116.02514648 54.80132324 115.05029297 54.60264648 114.04589844 54.39794922 C75.14348335 46.26026133 39.93370908 30.59203827 8 7 C7.25282715 6.45424316 6.5056543 5.90848633 5.73583984 5.34619141 C5.00187988 4.80526855 4.26791992 4.2643457 3.51171875 3.70703125 C2.83971436 3.21307861 2.16770996 2.71912598 1.4753418 2.21020508 C0.988479 1.8108374 0.50161621 1.41146973 0 1 C0 0.67 0 0.34 0 0 Z " fill="#E19974" transform="translate(93,454)"/>
<path d="M0 0 C6.58108363 5.55431724 11.63096385 11.78742281 14.37890625 20.03125 C15.31949791 32.75236678 13.56051556 42.02508421 5.2890625 52 C-4.46111554 62.36828749 -19.09039399 68.43015627 -33.1796875 69.234375 C-51.20510583 69.45220483 -67.06073573 66.20466921 -80.4921875 53.3984375 C-87.56286988 45.53635764 -90.10771299 36.71887098 -89.94140625 26.2890625 C-89.47997429 21.59596181 -87.99068379 18.06284416 -85.62109375 14.03125 C-85.04359375 13.020625 -84.46609375 12.01 -83.87109375 10.96875 C-74.38120956 -1.42082103 -61.68663644 -8.10191838 -46.3359375 -10.56640625 C-29.92921659 -12.34336971 -13.5038601 -10.14298881 0 0 Z " fill="#FDDABC" transform="translate(371.62109375,337.96875)"/>
<path d="M0 0 C-3.92813325 4.18797085 -8.17060532 7.47195476 -12.875 10.75 C-14.00156006 11.53769775 -14.00156006 11.53769775 -15.15087891 12.34130859 C-22.24107083 17.24783492 -29.48760731 21.77175355 -37 26 C-37.70286133 26.39928711 -38.40572266 26.79857422 -39.12988281 27.20996094 C-82.97434864 51.89776785 -82.97434864 51.89776785 -97.42578125 49.6171875 C-97.94527344 49.41351563 -98.46476562 49.20984375 -99 49 C-98.67 48.67 -98.34 48.34 -98 48 C-98.8343457 47.68361572 -99.66869141 47.36723145 -100.52832031 47.04125977 C-140.64705557 31.78565542 -140.64705557 31.78565542 -151.97265625 25.296875 C-155.97229458 23.58348155 -159.56619989 23.44030339 -163.875 23.3125 C-164.65875 23.27833984 -165.4425 23.24417969 -166.25 23.20898438 C-168.16618748 23.12719588 -170.08306715 23.0619054 -172 23 C-172 22.67 -172 22.34 -172 22 C-170.78775757 21.970271 -170.78775757 21.970271 -169.55102539 21.93994141 C-113.4533948 20.50428624 -54.76331035 -1.48008947 0 0 Z " fill="#E8AD8C" transform="translate(419,454)"/>
<path d="M0 0 C-2.79521734 2.88256788 -5.65806783 5.61384097 -8.6875 8.25 C-9.3784375 8.85199219 -10.069375 9.45398438 -10.78125 10.07421875 C-12.27746161 11.37286721 -13.77755936 12.66705007 -15.28125 13.95703125 C-27.71015413 24.83232237 -38.01134111 37.16923751 -47.78588867 50.43457031 C-49 52 -49 52 -51 54 C-57.92589559 53.61522802 -62.94940008 48.47438204 -67.51953125 43.72265625 C-70.29994851 40.48739501 -70.88695338 37.85592439 -71.4375 33.6875 C-70.58974906 26.54217068 -66.12700101 21.28443291 -60.6796875 16.79296875 C-43.65676495 5.40299579 -20.46243602 -1.1705207 0 0 Z " fill="#E19974" transform="translate(234,55)"/>
</svg>
