<?xml version="1.0" encoding="UTF-8"?>
<svg version="1.1" xmlns="http://www.w3.org/2000/svg" width="512" height="512">
<path d="M0 0 C0.98207428 0.00465271 1.96414856 0.00930542 2.97598267 0.01409912 C17.35427217 0.09380738 31.43295554 0.49104933 45.5625 3.375 C46.57650879 3.57367676 47.59051758 3.77235352 48.63525391 3.97705078 C91.22122682 12.49424536 130.62934593 30.95180015 163.5625 59.375 C164.33078125 60.03242187 165.0990625 60.68984375 165.890625 61.3671875 C177.67585482 71.70853154 189.08970693 82.86048438 198.5625 95.375 C198.97773926 95.91382812 199.39297852 96.45265625 199.82080078 97.0078125 C207.50758618 107.0065184 214.22047194 117.48042694 220.5625 128.375 C220.9244043 128.98746582 221.28630859 129.59993164 221.65917969 130.23095703 C234.30599267 151.81525459 242.12422256 176.26641197 247.3125 200.625 C247.61087769 202.02504272 247.61087769 202.02504272 247.9152832 203.45336914 C251.11056701 219.24336237 251.96998443 234.6208319 251.9375 250.6875 C251.93668427 252.20793915 251.93668427 252.20793915 251.93585205 253.75909424 C251.89597417 269.95621221 251.02997801 285.50008365 247.5625 301.375 C247.34287598 302.40125488 247.12325195 303.42750977 246.89697266 304.48486328 C234.50331665 360.9623941 202.86725153 414.05037248 156.5625 449.375 C156.02077148 449.79313965 155.47904297 450.2112793 154.92089844 450.64208984 C144.92514773 458.32530709 134.45311025 465.03527881 123.5625 471.375 C122.95003418 471.7369043 122.33756836 472.09880859 121.70654297 472.47167969 C100.14029878 485.10791472 75.70870018 492.91903373 51.375 498.125 C50.45001709 498.32391846 49.52503418 498.52283691 48.57202148 498.7277832 C32.7031425 501.95022043 17.08843139 502.75211893 0.9375 502.6875 C-0.03338562 502.68534485 -1.00427124 502.6831897 -2.00457764 502.68096924 C-16.34335186 502.62991637 -30.34296967 502.23449913 -44.4375 499.375 C-45.45295898 499.17632324 -46.46841797 498.97764648 -47.51464844 498.77294922 C-96.05442015 489.06354028 -138.67095785 466.43987407 -174.4375 432.375 C-175.03643066 431.80475098 -175.63536133 431.23450195 -176.25244141 430.64697266 C-184.61125166 422.62898614 -192.30021543 414.39698946 -199.18310547 405.07373047 C-200.40083722 403.42464959 -201.6386789 401.7923493 -202.87890625 400.16015625 C-226.84220047 368.13048703 -242.42286487 329.86279364 -248.4375 290.375 C-248.62006348 289.2207251 -248.80262695 288.0664502 -248.99072266 286.87719727 C-250.64930326 275.27968685 -250.83616065 263.76495975 -250.8125 252.0625 C-250.81195618 251.0488739 -250.81141235 250.0352478 -250.81085205 248.99090576 C-250.77097417 232.79378779 -249.90497801 217.24991635 -246.4375 201.375 C-246.21787598 200.34874512 -245.99825195 199.32249023 -245.77197266 198.26513672 C-236.84014297 157.56304802 -218.70083762 119.97225081 -191.4375 88.375 C-190.46876953 87.23998047 -190.46876953 87.23998047 -189.48046875 86.08203125 C-177.95657113 72.92760127 -165.55876317 60.70663558 -151.4375 50.375 C-150.30966154 49.52895808 -149.18205819 48.68260264 -148.0546875 47.8359375 C-120.66378779 27.52477284 -88.73137761 13.4826469 -55.625 5.6875 C-54.83375732 5.49712158 -54.04251465 5.30674316 -53.22729492 5.1105957 C-35.61718488 1.16222547 -18.00158042 -0.15325724 0 0 Z " fill="#DA3529" transform="translate(255.4375,4.625)"/>
<path d="M0 0 C0.66 0 1.32 0 2 0 C5.00785155 6.0157031 4.18114107 14.40174117 4.23828125 20.9921875 C4.2480751 21.92764404 4.25786896 22.86310059 4.26795959 23.8269043 C4.4373951 44.21061732 4.37004319 63.9929315 0 84 C-0.21962402 85.02625488 -0.43924805 86.05250977 -0.66552734 87.10986328 C-13.05918335 143.5873941 -44.69524847 196.67537248 -91 232 C-91.54172852 232.41813965 -92.08345703 232.8362793 -92.64160156 233.26708984 C-102.63735227 240.95030709 -113.10938975 247.66027881 -124 254 C-124.61246582 254.3619043 -125.22493164 254.72380859 -125.85595703 255.09667969 C-147.42220122 267.73291472 -171.85379982 275.54403373 -196.1875 280.75 C-197.11248291 280.94891846 -198.03746582 281.14783691 -198.99047852 281.3527832 C-214.8593575 284.57522043 -230.47406861 285.37711893 -246.625 285.3125 C-247.59588562 285.31034485 -248.56677124 285.3081897 -249.56707764 285.30596924 C-263.90585186 285.25491637 -277.90546967 284.85949913 -292 282 C-293.01545898 281.80132324 -294.03091797 281.60264648 -295.07714844 281.39794922 C-343.61692015 271.68854028 -386.23345785 249.06487407 -422 215 C-422.59893066 214.42975098 -423.19786133 213.85950195 -423.81494141 213.27197266 C-432.17375166 205.25398614 -439.86271543 197.02198946 -446.74560547 187.69873047 C-447.96333722 186.04964959 -449.2011789 184.4173493 -450.44140625 182.78515625 C-460.95090552 168.73030914 -470.29287943 153.23184431 -477 137 C-473.12211073 137 -472.04890521 138.25176146 -469.0078125 140.60546875 C-463.52492951 144.69648762 -457.90399188 148.09503935 -451.875 151.3125 C-450.32582886 152.14261597 -450.32582886 152.14261597 -448.74536133 152.98950195 C-413.98503091 171.32626516 -376.04789252 184.32517198 -337.62988281 192.43066406 C-334.89819207 193.02204011 -332.17981626 193.6570637 -329.4609375 194.3046875 C-318.91173872 196.80819944 -308.42655804 198.83110098 -297.6875 200.3203125 C-294.79479012 200.7246824 -291.92874533 201.18032169 -289.0625 201.7421875 C-279.71310235 203.57059793 -270.35496089 204.68977158 -260.875 205.625 C-259.65578857 205.74810547 -258.43657715 205.87121094 -257.18041992 205.99804688 C-237.20082296 207.88117233 -217.11536557 208.1782854 -197.0625 208.5625 C-194.90298987 208.6058754 -192.74348461 208.64949427 -190.58398438 208.69335938 C-185.38937447 208.79836138 -180.19471105 208.90013259 -175 209 C-174.86730713 208.26942383 -174.73461426 207.53884766 -174.59790039 206.78613281 C-174.04674785 204.2178385 -173.3279218 201.88766889 -172.43359375 199.421875 C-164.399859 176.67903169 -158.17762834 152.94131031 -155 129 C-154.78210815 127.38810791 -154.78210815 127.38810791 -154.55981445 125.74365234 C-150.07861195 92.97911096 -150.07861195 92.97911096 -148 60 C-147.9347185 57.63005538 -147.86752016 55.26016813 -147.8004303 52.89027405 C-147.50979051 42.59408476 -147.24781091 32.29730033 -147 22 C-141.54132443 22.41403128 -136.09105224 22.86028033 -130.65380859 23.50073242 C-119.27883977 24.82881682 -108.07460491 25.36406016 -96.625 25.3125 C-95.35189468 25.30976578 -95.35189468 25.30976578 -94.05307007 25.30697632 C-81.15720905 25.26049302 -68.64365536 24.7366753 -56 22 C-55.18692383 21.83371094 -54.37384766 21.66742188 -53.53613281 21.49609375 C-37.16824097 18.08216498 -12.2638514 12.2638514 0 0 Z " fill="#DA3529" transform="translate(503,222)"/>
<path d="M0 0 C24.8748906 14.79611796 50.61740342 29.61193909 78.796875 37.12646484 C77.57478093 66.6400367 67.73294611 95.57671754 57.796875 123.12646484 C51.52449824 123.15166757 45.25215257 123.16955548 38.97973633 123.18139648 C36.85733526 123.18634604 34.73493744 123.19310735 32.61254883 123.2019043 C-22.68463312 123.4249297 -78.72075374 117.04838952 -131.78369141 100.85742188 C-134.71196052 99.97273593 -137.65125731 99.12858718 -140.58984375 98.27880859 C-171.9540545 89.04452215 -203.6486735 76.84439976 -231.33984375 59.28076172 C-233.07207696 58.20764869 -234.85516368 57.21784357 -236.640625 56.23583984 C-247.2383075 49.7182651 -249.7321159 39.4287428 -253.203125 28.12646484 C-253.78638839 26.29441132 -254.36972044 24.46237966 -254.953125 22.63037109 C-256.95001252 16.23016547 -258.83708486 9.81232395 -260.4296875 3.29833984 C-260.60322754 2.59290039 -260.77676758 1.88746094 -260.95556641 1.16064453 C-261.23205825 -1.11127861 -260.88674469 -2.70518847 -260.203125 -4.87353516 C-259.38908203 -4.34953125 -259.38908203 -4.34953125 -258.55859375 -3.81494141 C-257.84316406 -3.35990234 -257.12773437 -2.90486328 -256.390625 -2.43603516 C-255.68292969 -1.98357422 -254.97523438 -1.53111328 -254.24609375 -1.06494141 C-246.91984021 3.20753915 -235.01734473 2.32823032 -226.95654297 0.66210938 C-219.51826089 -1.47339176 -212.58700949 -5.12110801 -205.69921875 -8.59228516 C-205.01127731 -8.93743164 -204.32333588 -9.28257812 -203.61454773 -9.63818359 C-199.50494967 -11.70347114 -195.40563522 -13.78830655 -191.31158447 -15.88421631 C-170.15597988 -26.71356085 -149.73613513 -36.46109576 -126.203125 -40.87353516 C-125.00236328 -41.16164063 -125.00236328 -41.16164063 -123.77734375 -41.45556641 C-79.50406881 -48.64409511 -36.21449448 -21.55409109 0 0 Z " fill="#E15C55" transform="translate(270.203125,307.87353515625)"/>
<path d="M0 0 C0.80763794 0.00753296 1.61527588 0.01506592 2.4473877 0.02282715 C41.02362575 0.44190735 77.60143475 14.41706108 113.6875 26.97949219 C128.55508745 32.14998021 143.46893921 36.81464384 158.75 40.625 C159.76433105 40.87797852 160.77866211 41.13095703 161.82373047 41.39160156 C170.1147062 43.41442737 178.4135448 44.99135363 186.85742188 46.21191406 C188.68438814 46.48112238 190.50655723 46.78234287 192.328125 47.0859375 C202.44604002 48.70950991 212.587552 49.10910662 222.8125 49.5 C224.6439873 53.61823429 225.59602473 57.76289995 226.43359375 62.16796875 C226.5781601 62.91187363 226.72272644 63.6557785 226.87167358 64.42222595 C227.33831692 66.84267346 227.79532623 69.26477705 228.25 71.6875 C228.48485611 72.92944122 228.48485611 72.92944122 228.72445679 74.19647217 C231.26164719 87.68375362 233.23114437 101.11804146 234.54052734 114.78515625 C234.78835602 117.25899364 235.07885951 119.72154667 235.39453125 122.1875 C237.30964043 137.55033466 237.46021735 153.03822855 237.8125 168.5 C177.24432447 162.98240223 116.31897203 132.52665364 61.34375 108.48684692 C10.36784237 85.84296451 10.36784237 85.84296451 -42.25 67.5 C-43.23210449 67.20859131 -44.21420898 66.91718262 -45.22607422 66.61694336 C-54.55182067 63.94630764 -63.00467932 63.35490376 -72.6875 63.4375 C-74.20730469 63.44426758 -74.20730469 63.44426758 -75.7578125 63.45117188 C-78.23443827 63.46285407 -80.71093657 63.47923418 -83.1875 63.5 C-82.4020208 58.91063396 -80.67531204 55.49085112 -78.25 51.5625 C-77.85103516 50.90862305 -77.45207031 50.25474609 -77.04101562 49.58105469 C-70.24520835 38.59467573 -62.55221175 28.33996956 -54.1875 18.5 C-53.44628906 17.58863281 -52.70507812 16.67726563 -51.94140625 15.73828125 C-39.3135844 0.7468463 -18.50389334 -0.26584665 0 0 Z " fill="#E15C55" transform="translate(118.1875,74.5)"/>
<path d="M0 0 C0.98207428 0.00465271 1.96414856 0.00930542 2.97598267 0.01409912 C17.35427217 0.09380738 31.43295554 0.49104933 45.5625 3.375 C46.57650879 3.57367676 47.59051758 3.77235352 48.63525391 3.97705078 C91.22122682 12.49424536 130.62934593 30.95180015 163.5625 59.375 C164.33078125 60.03242187 165.0990625 60.68984375 165.890625 61.3671875 C189.99620912 82.51943847 189.99620912 82.51943847 196.5625 93.375 C196.5625 94.035 196.5625 94.695 196.5625 95.375 C187.59837787 99.54642317 178.57574341 103.19601365 169.1875 106.3125 C168.26622314 106.61873291 167.34494629 106.92496582 166.39575195 107.24047852 C159.84493681 109.375 159.84493681 109.375 157.5625 109.375 C156.94375 108.488125 156.325 107.60125 155.6875 106.6875 C151.19863342 101.28803477 145.04906768 98.9194908 138.16455078 98.08398438 C123.94056922 97.02540578 111.50866879 98.56430778 100.140625 107.90234375 C97.20360108 110.64308142 95.04685531 113.3854112 93.2824707 116.99023438 C91.5625 119.375 91.5625 119.375 89.18432617 119.99023438 C88.25080322 119.98314453 87.31728027 119.97605469 86.35546875 119.96875 C84.78067749 119.9685083 84.78067749 119.9685083 83.17407227 119.96826172 C82.04412842 119.93748535 80.91418457 119.90670898 79.75 119.875 C78.57945068 119.8558252 77.40890137 119.83665039 76.20288086 119.81689453 C36.28905597 118.81573426 -1.87547984 105.38777076 -39.3359375 92.77734375 C-40.18656769 92.49110641 -41.03719788 92.20486908 -41.91360474 91.90995789 C-46.00075831 90.53404881 -50.08680187 89.15498814 -54.17114258 87.77075195 C-93.43594557 74.50898649 -135.52074049 63.14105339 -176.4375 76.375 C-177.76842554 76.71782078 -179.10121714 77.05369485 -180.4375 77.375 C-171.80165767 66.96770283 -162.21433274 58.46486316 -151.4375 50.375 C-150.58430176 49.73062988 -150.58430176 49.73062988 -149.71386719 49.07324219 C-121.85153536 28.16442125 -89.4632165 13.6549639 -55.625 5.6875 C-54.83375732 5.49712158 -54.04251465 5.30674316 -53.22729492 5.1105957 C-35.61718488 1.16222547 -18.00158042 -0.15325724 0 0 Z " fill="#DA3529" transform="translate(255.4375,4.625)"/>
<path d="M0 0 C3.04663952 1.37947116 5.68475721 3.14185085 8.40991211 5.06958008 C43.40533901 29.53898241 89.03576994 45.3556106 130.5 54.4375 C132.40373091 54.86029421 134.30737426 55.28348282 136.2109375 55.70703125 C137.64711426 56.02534912 137.64711426 56.02534912 139.11230469 56.35009766 C141.94715989 56.98810785 144.77476601 57.65147886 147.6015625 58.32421875 C158.13068699 60.81514909 168.59551569 62.834162 179.3125 64.3203125 C182.20520988 64.7246824 185.07125467 65.18032169 187.9375 65.7421875 C225.01057927 72.99236631 263.39830539 72.25991222 301 73 C297.66915801 91.93756529 284.51619222 111.83332089 272 126 C271.37867188 126.77601563 270.75734375 127.55203125 270.1171875 128.3515625 C262.20446012 137.98588746 251.99930647 144.63458516 240 148 C239.11417236 148.26151855 239.11417236 148.26151855 238.21044922 148.52832031 C193.16331345 158.14076413 134.40083911 136.16486742 97.03857422 112.33300781 C81.95263852 102.46843189 68.05539777 91.4342599 55 79 C54.40106934 78.42975098 53.80213867 77.85950195 53.18505859 77.27197266 C44.82624834 69.25398614 37.13728457 61.02198946 30.25439453 51.69873047 C29.03666278 50.04964959 27.7988211 48.4173493 26.55859375 46.78515625 C0 11.26710111 0 11.26710111 0 0 Z " fill="#DB3529" transform="translate(26,358)"/>
<path d="M0 0 C0.66 0 1.32 0 2 0 C5.00782979 6.01565958 4.18121962 14.40177795 4.23828125 20.9921875 C4.24798447 21.92796127 4.25768768 22.86373505 4.26768494 23.8278656 C4.29252811 26.84362112 4.30520227 29.85915247 4.3125 32.875 C4.31642761 34.41817398 4.31642761 34.41817398 4.32043457 35.99252319 C4.32464197 51.4200197 3.62406423 66.18964726 0.46337891 81.33886719 C0.01378783 83.92081803 -0.14222196 86.35995345 -0.20703125 88.9765625 C-0.47001884 93.61313727 -0.88852405 97.38290921 -4 101 C-11.15635505 105.98250108 -19.45702621 108.87727324 -27.61572266 111.79101562 C-30.50857587 112.8244458 -33.35441487 113.92087811 -36.19921875 115.078125 C-71.96202624 129.40283993 -115.97999465 136.14653785 -153 123 C-153.26306068 115.36275459 -152.34683158 107.97890782 -151.34732056 100.42300415 C-149.58066616 86.94452712 -148.3309648 73.59348177 -148 60 C-147.9347185 57.63005538 -147.86752016 55.26016813 -147.8004303 52.89027405 C-147.50979051 42.59408476 -147.24781091 32.29730033 -147 22 C-141.54132443 22.41403128 -136.09105224 22.86028033 -130.65380859 23.50073242 C-119.27883977 24.82881682 -108.07460491 25.36406016 -96.625 25.3125 C-95.35189468 25.30976578 -95.35189468 25.30976578 -94.05307007 25.30697632 C-81.15720905 25.26049302 -68.64365536 24.7366753 -56 22 C-55.18692383 21.83371094 -54.37384766 21.66742188 -53.53613281 21.49609375 C-37.16824097 18.08216498 -12.2638514 12.2638514 0 0 Z " fill="#B4271E" transform="translate(503,222)"/>
<path d="M0 0 C57.62898545 -1.94255007 115.68216828 21.61422804 159 59 C159.76828125 59.65742187 160.5365625 60.31484375 161.328125 60.9921875 C185.43370912 82.14443847 185.43370912 82.14443847 192 93 C192 93.66 192 94.32 192 95 C183.03587787 99.17142317 174.01324341 102.82101365 164.625 105.9375 C163.70372314 106.24373291 162.78244629 106.54996582 161.83325195 106.86547852 C155.28243681 109 155.28243681 109 153 109 C152.38125 108.113125 151.7625 107.22625 151.125 106.3125 C146.63613342 100.91303477 140.48656768 98.5444908 133.60205078 97.70898438 C119.37806922 96.65040578 106.94616879 98.18930778 95.578125 107.52734375 C92.57188223 110.33267426 90.42828901 113.1239543 88.625 116.8125 C88.08875 117.534375 87.5525 118.25625 87 119 C83.8125 119.3125 83.8125 119.3125 81 119 C79.45498922 114.53818408 77.9825185 110.07954223 76.78125 105.51171875 C67.47650248 70.19630657 51.45558281 27.44837137 19 7 C12.95982102 3.5723212 6.82562092 2.08297952 0 1 C0 0.67 0 0.34 0 0 Z " fill="#B4271E" transform="translate(260,5)"/>
<path d="M0 0 C0.99 0.495 0.99 0.495 2 1 C-12.84814858 20.77563152 -29.12448895 40.07921037 -49 55 C-49.53592773 55.41233887 -50.07185547 55.82467773 -50.62402344 56.24951172 C-60.62568501 63.93986495 -71.1014635 70.65566472 -82 77 C-82.61246582 77.3619043 -83.22493164 77.72380859 -83.85595703 78.09667969 C-117.72501154 97.94145791 -159.77813705 108.95019318 -199 108 C-196.02802246 106.41724917 -193.07597667 105.34371843 -189.875 104.3125 C-177.7154416 99.94088779 -167.47764739 90.62293781 -159.75 80.4375 C-159.20134277 79.71498047 -158.65268555 78.99246094 -158.08740234 78.24804688 C-153.79535507 72.4204032 -150.10843215 66.33973522 -146.625 60 C-146.1619043 59.16009521 -145.69880859 58.32019043 -145.22167969 57.45483398 C-140.85763558 49.23764686 -137.4528609 40.62772712 -134 32 C-132.82945068 31.87995605 -131.65890137 31.75991211 -130.45288086 31.63623047 C-86.55278595 27.08964592 -42.2003703 21.05777822 -2.265625 0.93359375 C-1.14414062 0.47146484 -1.14414062 0.47146484 0 0 Z " fill="#B4271E" transform="translate(461,399)"/>
<path d="M0 0 C6.4276759 4.77124401 12.5209435 10.17664581 15 18 C15.93450164 24.36471389 15.79277682 30.4937443 12.44921875 36.125 C6.94614173 43.24488402 0.52417776 47.36714999 -8 50 C-9.52753906 50.53367187 -9.52753906 50.53367187 -11.0859375 51.078125 C-26.89592384 55.50458035 -46.49415284 52.42978083 -60.5625 44.5625 C-68.3328697 39.65654272 -74.29702253 34.66338137 -78.3125 26.25 C-79.65628483 19.89756263 -80.35716983 13.56005149 -77 7.75 C-59.43244044 -16.24591237 -23.06115087 -14.53433878 0 0 Z " fill="#DB3529" transform="translate(204,324)"/>
<path d="M0 0 C4.14341283 2.79471805 7.09820277 6.11046804 9.328125 10.5703125 C10.14716313 16.86520557 9.61249669 21.57130071 5.86328125 26.76171875 C-1.67892724 35.64732315 -12.15667172 40.30861584 -23.671875 41.5703125 C-34.20955874 42.28190896 -44.24558285 41.44242187 -52.671875 34.5703125 C-56.00835212 31.1923369 -58.53482964 28.28337951 -58.921875 23.4453125 C-58.45677643 16.23628468 -56.21914133 11.18540375 -50.8984375 6.23828125 C-36.87073594 -4.27018992 -16.09308035 -8.04654017 0 0 Z " fill="#E15C55" transform="translate(405.671875,105.4296875)"/>
<path d="M0 0 C7.4986038 4.91174921 13.13200532 10.39601597 16 19 C16.65191916 24.54131282 15.55467156 27.73442036 12.4921875 32.20703125 C8.8808844 36.54626717 3.53739454 39.65369308 -2.11474609 40.20703125 C-4.64272843 40.30590528 -7.15762506 40.32885041 -9.6875 40.3125 C-10.58654053 40.30686035 -11.48558105 40.3012207 -12.41186523 40.29541016 C-18.71944561 40.17975878 -24.21615292 39.68354241 -30 37 C-30.90878906 36.5978125 -31.81757812 36.195625 -32.75390625 35.78125 C-40.2083339 32.13010176 -46.50678587 27.16805313 -50.1796875 19.5546875 C-51.64790656 14.98223386 -51.84729637 10.72632508 -51 6 C-48.15955429 0.65641152 -43.46918653 -3.19916324 -37.85546875 -5.3828125 C-25.10279392 -8.1392046 -11.5440106 -5.88518188 0 0 Z " fill="#E15C55" transform="translate(83,206)"/>
</svg>
