<?xml version="1.0" encoding="UTF-8"?>
<svg version="1.1" xmlns="http://www.w3.org/2000/svg" width="512" height="512">
<path d="M0 0 C0.98584076 0.00054382 1.97168152 0.00108765 2.98739624 0.00164795 C68.02856613 0.16600456 130.28692922 25.20305026 177.1875 70.375 C178.1765332 71.32318604 178.1765332 71.32318604 179.18554688 72.29052734 C188.67380305 81.43497479 197.4137044 90.73234009 205.1875 101.375 C206.04556152 102.52605017 206.90363451 103.67709177 207.76171875 104.828125 C213.79986829 113.01930614 219.15845521 121.53304105 224.1875 130.375 C224.55198242 131.00680176 224.91646484 131.63860352 225.29199219 132.28955078 C240.19000327 158.31833536 249.83541257 187.73638623 254.1875 217.375 C254.36410156 218.57745361 254.54070312 219.77990723 254.72265625 221.01879883 C256.3266435 232.73525845 256.58713344 244.37402164 256.5625 256.1875 C256.56168427 257.66626114 256.56168427 257.66626114 256.56085205 259.17489624 C256.39649544 324.21606613 231.35944974 386.47442922 186.1875 433.375 C185.55537598 434.03435547 184.92325195 434.69371094 184.27197266 435.37304688 C175.12752521 444.86130305 165.83015991 453.6012044 155.1875 461.375 C154.03644983 462.23306152 152.88540823 463.09113451 151.734375 463.94921875 C143.54474019 469.98677396 135.04211724 475.36957302 126.1875 480.375 C125.48028809 480.7771875 124.77307617 481.179375 124.04443359 481.59375 C97.89750209 496.3146967 68.87555577 506.01565258 39.1875 510.375 C37.98504639 510.55160156 36.78259277 510.72820312 35.54370117 510.91015625 C23.82724155 512.5141435 12.18847836 512.77463344 0.375 512.75 C-0.61084076 512.74945618 -1.59668152 512.74891235 -2.61239624 512.74835205 C-62.40726528 512.59725265 -120.39436392 491.55358384 -165.8125 452.375 C-166.55757813 451.74078125 -167.30265625 451.1065625 -168.0703125 450.453125 C-181.57529833 438.64198485 -194.24668743 425.89139772 -204.8125 411.375 C-205.66899066 410.22505169 -206.52576433 409.07531411 -207.3828125 407.92578125 C-213.42284209 399.73565742 -218.80617614 391.23120382 -223.8125 382.375 C-224.2146875 381.66778809 -224.616875 380.96057617 -225.03125 380.23193359 C-239.78361537 354.02919713 -249.31885806 325.08869203 -253.8125 295.375 C-254.07740234 293.69132324 -254.07740234 293.69132324 -254.34765625 291.97363281 C-256.0045586 280.36052257 -256.21123513 268.84320055 -256.1875 257.125 C-256.18695618 256.11298523 -256.18641235 255.10097046 -256.18585205 254.05828857 C-256.14511956 237.52969428 -255.24174222 221.59586001 -251.8125 205.375 C-251.59287598 204.33311523 -251.37325195 203.29123047 -251.14697266 202.21777344 C-241.04935215 155.92450689 -218.69021242 113.51086279 -185.8125 79.375 C-185.18037598 78.71564453 -184.54825195 78.05628906 -183.89697266 77.37695312 C-174.75252521 67.88869695 -165.45515991 59.1487956 -154.8125 51.375 C-153.66144983 50.51693848 -152.51040823 49.65886549 -151.359375 48.80078125 C-143.16974019 42.76322604 -134.66711724 37.38042698 -125.8125 32.375 C-125.10528809 31.9728125 -124.39807617 31.570625 -123.66943359 31.15625 C-97.52250209 16.4353033 -68.50055577 6.73434742 -38.8125 2.375 C-37.61004639 2.19839844 -36.40759277 2.02179687 -35.16870117 1.83984375 C-23.45224155 0.2358565 -11.81347836 -0.02463344 0 0 Z " fill="#8CC9FC" transform="translate(255.8125,-0.375)"/>
<path d="M0 0 C0.98584076 0.00054382 1.97168152 0.00108765 2.98739624 0.00164795 C68.02856613 0.16600456 130.28692922 25.20305026 177.1875 70.375 C178.1765332 71.32318604 178.1765332 71.32318604 179.18554688 72.29052734 C188.67380305 81.43497479 197.4137044 90.73234009 205.1875 101.375 C206.04556152 102.52605017 206.90363451 103.67709177 207.76171875 104.828125 C213.79986829 113.01930614 219.15845521 121.53304105 224.1875 130.375 C224.55198242 131.00680176 224.91646484 131.63860352 225.29199219 132.28955078 C238.57951944 155.50460832 247.42121576 181.29913223 252.5625 207.5 C252.79622314 208.68770996 252.79622314 208.68770996 253.03466797 209.89941406 C254.3200924 217.01121244 254.75851029 224.16771374 255.1875 231.375 C254.40963135 231.46998779 253.6317627 231.56497559 252.83032227 231.6628418 C236.31789745 233.70492883 220.06464296 236.20237469 203.77490234 239.63037109 C186.90509095 243.13199929 169.9689725 246.628708 152.9375 249.25 C152.25647217 249.35779785 151.57544434 249.4655957 150.8737793 249.57666016 C122.99030806 253.59815219 93.48371069 253.14633467 66.1875 246.375 C64.37406521 245.95025171 62.56027324 245.52702495 60.74609375 245.10546875 C53.92488855 243.48182442 47.18445816 241.68018605 40.463974 239.67660522 C31.0491535 236.8714478 21.58466958 234.31997507 12.06640625 231.89013672 C9.55593459 231.24832152 7.04747641 230.59902391 4.5390625 229.94921875 C-5.19891934 227.44383158 -14.9355424 225.25838698 -24.8125 223.375 C-26.58348539 223.00071878 -28.35433353 222.62578709 -30.125 222.25 C-41.31454915 220.05747609 -52.57866915 220.13272594 -63.9375 220.125 C-64.82855438 220.12432526 -65.71960876 220.12365051 -66.63766479 220.12295532 C-88.334814 220.14900758 -108.64050549 222.91128301 -129.74145508 227.96362305 C-131.8125 228.375 -131.8125 228.375 -134.8125 228.375 C-134.8125 244.215 -134.8125 260.055 -134.8125 276.375 C-171.93724921 291.81764778 -171.93724921 291.81764778 -184.8125 294.375 C-185.58932129 294.53145996 -186.36614258 294.68791992 -187.16650391 294.84912109 C-209.40200207 299.11220281 -231.58981062 298.1158936 -253.8125 294.375 C-255.91686383 281.97039274 -256.21283048 269.74758177 -256.1875 257.1875 C-256.18695618 256.17298767 -256.18641235 255.15847534 -256.18585205 254.11322021 C-256.14515298 237.5656277 -255.24569022 221.61453471 -251.8125 205.375 C-251.59287598 204.33311523 -251.37325195 203.29123047 -251.14697266 202.21777344 C-241.04935215 155.92450689 -218.69021242 113.51086279 -185.8125 79.375 C-185.18037598 78.71564453 -184.54825195 78.05628906 -183.89697266 77.37695312 C-174.75252521 67.88869695 -165.45515991 59.1487956 -154.8125 51.375 C-153.66144983 50.51693848 -152.51040823 49.65886549 -151.359375 48.80078125 C-143.16974019 42.76322604 -134.66711724 37.38042698 -125.8125 32.375 C-125.10528809 31.9728125 -124.39807617 31.570625 -123.66943359 31.15625 C-97.52250209 16.4353033 -68.50055577 6.73434742 -38.8125 2.375 C-37.61004639 2.19839844 -36.40759277 2.02179687 -35.16870117 1.83984375 C-23.45224155 0.2358565 -11.81347836 -0.02463344 0 0 Z " fill="#31A7FB" transform="translate(255.8125,-0.375)"/>
<path d="M0 0 C8.54317516 4.86673819 17.22002259 9.4596559 25.9515686 13.97824097 C27.5406071 14.8013244 29.12806211 15.62747401 30.7137146 16.45706177 C59.86168452 31.68494897 84.46945049 37.06905477 117.12451172 31.75463867 C119.19403431 31.42232468 121.26990571 31.12992486 123.34667969 30.84643555 C143.63328851 27.59314204 163.14948334 17.87165968 181.95019531 9.8293457 C193.04395896 5.0879752 203.98052938 1.03678167 215.69433594 -1.88793945 C216.71398437 -2.15606445 217.73363281 -2.42418945 218.78417969 -2.70043945 C224.89174139 -4.2371302 230.27348309 -4.92589946 236.56933594 -4.63793945 C234.58996228 25.35998058 225.46184152 54.3410651 212.56933594 81.36206055 C212.20759277 82.12276855 211.84584961 82.88347656 211.47314453 83.66723633 C200.46591757 106.42507541 185.06769258 127.1940842 167.56933594 145.36206055 C166.93721191 146.02141602 166.30508789 146.68077148 165.65380859 147.36010742 C156.51119455 156.84646127 147.2207599 165.60266332 136.56933594 173.36206055 C135.99135254 173.79550781 135.41336914 174.22895508 134.81787109 174.67553711 C133.10067134 175.96260333 131.36980193 177.22822041 129.63183594 178.48706055 C128.13330078 179.57374023 128.13330078 179.57374023 126.60449219 180.68237305 C120.63975134 183.98332358 113.70210962 183.54130477 107.03417969 183.6003418 C106.12688614 183.61018097 105.21959259 183.62002014 104.2848053 183.63015747 C68.18850628 183.94119789 68.18850628 183.94119789 50.56933594 179.36206055 C48.26153217 178.80927287 45.95287324 178.26004806 43.64355469 177.71362305 C32.88348271 175.13003433 22.1885439 172.36197198 11.60205078 169.13793945 C5.38245102 167.25701836 -0.90743547 165.70286666 -7.21972656 164.16625977 C-11.84352556 163.0343552 -16.38603221 161.78547354 -20.93066406 160.36206055 C-27.89996732 158.33312729 -34.97971266 157.03101399 -42.11816406 155.73706055 C-43.9472229 155.40375732 -43.9472229 155.40375732 -45.81323242 155.0637207 C-52.09796011 153.96514174 -58.2383961 153.17281143 -64.6081543 152.86474609 C-71.87392684 152.47576063 -76.10695113 151.72337766 -81.55566406 146.42456055 C-83.22837655 144.4430396 -84.85545886 142.42194427 -86.43066406 140.36206055 C-87.18089844 139.47776367 -87.93113281 138.5934668 -88.70410156 137.68237305 C-91.01026321 134.95543804 -93.22080642 132.1674561 -95.43066406 129.36206055 C-96.30174568 128.29197897 -97.17419471 127.22300938 -98.04785156 126.1550293 C-116.27635947 103.69414771 -129.46842938 78.44210991 -139.43066406 51.36206055 C-139.7372998 50.53722168 -140.04393555 49.71238281 -140.35986328 48.86254883 C-147.53175993 29.33698796 -152.68313444 8.24824667 -152.43066406 -12.63793945 C-97.88417211 -39.83073337 -51.08693965 -29.33998056 0 0 Z " fill="#B4DAFC" transform="translate(274.4306640625,287.637939453125)"/>
<path d="M0 0 C3.07357088 2.76830466 6.07957106 5.59171307 9.05859375 8.4609375 C10.04762695 9.40912354 10.04762695 9.40912354 11.05664062 10.37646484 C20.5448968 19.52091229 29.28479815 28.81827759 37.05859375 39.4609375 C37.91665527 40.61198767 38.77472826 41.76302927 39.6328125 42.9140625 C48.81041806 55.36464125 56.37963587 68.52317652 63.05859375 82.4609375 C61.94170166 82.44522705 61.94170166 82.44522705 60.80224609 82.42919922 C26.91134714 82.01519257 2.09679491 89.70084272 -27.94140625 105.0234375 C-42.95192914 112.65852864 -58.26158896 119.5069885 -74.94140625 122.4609375 C-75.89917969 122.66332031 -76.85695313 122.86570313 -77.84375 123.07421875 C-84.95441998 124.41948064 -91.97577289 124.66592606 -99.19140625 124.7109375 C-100.11429443 124.72020264 -101.03718262 124.72946777 -101.98803711 124.73901367 C-130.80442214 124.60705393 -158.77936099 101.37092633 -181.84082031 86.3046875 C-185.8664177 83.677749 -189.89923811 81.06230666 -193.94140625 78.4609375 C-194.61220215 78.02910156 -195.28299805 77.59726563 -195.97412109 77.15234375 C-217.76572037 63.25013621 -239.18679975 56.81456827 -264.94140625 55.4609375 C-263.30772867 50.47186225 -260.40653156 46.5571864 -257.37890625 42.3359375 C-256.83951416 41.57966064 -256.30012207 40.82338379 -255.74438477 40.04418945 C-249.26270992 31.02942419 -242.239895 22.62069147 -234.65795898 14.51831055 C-232.24791252 11.93709475 -229.99415247 9.33614164 -227.94140625 6.4609375 C-228.8022583 6.19756592 -229.66311035 5.93419434 -230.55004883 5.6628418 C-233.98277438 4.44627655 -236.9999721 2.95894242 -240.203125 1.23046875 C-241.40743416 0.58818784 -242.61212006 -0.05338705 -243.81713867 -0.69433594 C-244.43978607 -1.02687378 -245.06243347 -1.35941162 -245.70394897 -1.70202637 C-257.49428769 -7.97729709 -269.18439261 -13.47970128 -281.94140625 -17.5390625 C-282.9159375 -17.87035156 -283.89046875 -18.20164063 -284.89453125 -18.54296875 C-291.11957978 -20.56904587 -297.47370082 -21.59446635 -303.94140625 -22.5390625 C-283.64336932 -44.18875272 -240.7376505 -53.54294015 -212.94140625 -58.5390625 C-212.11543945 -58.70132324 -211.28947266 -58.86358398 -210.43847656 -59.03076172 C-136.24212585 -73.31289597 -56.55964037 -48.82306274 0 0 Z " fill="#8CC9FC" transform="translate(423.94140625,61.5390625)"/>
<path d="M0 0 C3.26801096 2.00467158 6.53907641 4.00417911 9.8125 6 C10.64740967 6.51602783 11.48231934 7.03205566 12.3425293 7.5637207 C17.33591579 10.59430559 22.31308462 13.05957395 27.71142578 15.27929688 C37.996625 19.57105029 42.07071008 24.06090597 46.90283203 33.92480469 C48.90280761 37.70758003 51.39014516 41.14894243 53.875 44.625 C54.38401855 45.34002686 54.89303711 46.05505371 55.41748047 46.79174805 C68.64807066 66.74856124 68.64807066 66.74856124 86.109375 80.4230957 C86.98078125 80.50648193 87.8521875 80.58986816 88.75 80.67578125 C89.73742187 80.77858398 90.72484375 80.88138672 91.7421875 80.98730469 C92.81726563 81.09461914 93.89234375 81.20193359 95 81.3125 C115.17690056 83.55502503 134.59692087 87.63101717 154.078125 93.30078125 C159.56369312 94.89494651 165.07734888 96.32704788 170.625 97.6875 C176.18234982 99.05205218 181.72561041 100.4430975 187.25 101.9375 C193.86393972 103.71038319 200.4895364 105.43440017 207.125 107.125 C208.10243164 107.37886475 209.07986328 107.63272949 210.08691406 107.89428711 C213.04914462 108.64326299 216.01741181 109.33687684 219 110 C219.90032959 110.20447754 220.80065918 110.40895508 221.72827148 110.61962891 C233.60000883 112.87986541 245.78375168 112.21472256 257.8125 112.125 C260.16210557 112.11495133 262.51171528 112.10582882 264.86132812 112.09765625 C270.57431049 112.07578961 276.28713551 112.04246123 282 112 C247.87150254 139.83589577 196.65141798 153.84773764 153.1640625 154.23828125 C152.25499649 154.2480751 151.34593048 154.25786896 150.40931702 154.26795959 C85.63610327 154.82184194 24.71718733 136.8870306 -25 94 C-25.74507813 93.36578125 -26.49015625 92.7315625 -27.2578125 92.078125 C-40.76279833 80.26698485 -53.43418743 67.51639772 -64 53 C-64.85649066 51.85005169 -65.71326433 50.70031411 -66.5703125 49.55078125 C-80.69641215 30.39615564 -91.92777229 9.3723662 -100 -13 C-65.6805173 -23.50596409 -30.34518226 -18.61760898 0 0 Z " fill="#0094FD" transform="translate(115,358)"/>
<path d="M0 0 C0.81275391 0.21398437 1.62550781 0.42796875 2.46289062 0.6484375 C23.84951403 6.44698644 41.91705258 18.26352549 59 32 C54.12648348 42.95882633 44.20515581 52.48389674 36 61 C35.36642578 61.66080566 34.73285156 62.32161133 34.08007812 63.00244141 C24.93896257 72.48732171 15.64972428 81.24184096 5 89 C4.4220166 89.43344727 3.8440332 89.86689453 3.24853516 90.31347656 C1.5313354 91.60054279 -0.19953401 92.86615986 -1.9375 94.125 C-3.43603516 95.21167969 -3.43603516 95.21167969 -4.96484375 96.3203125 C-10.9295846 99.62126303 -17.86722632 99.17924423 -24.53515625 99.23828125 C-25.4424498 99.24812042 -26.34974335 99.25795959 -27.28453064 99.26809692 C-63.38082966 99.57913735 -63.38082966 99.57913735 -81 95 C-83.30780377 94.44721232 -85.6164627 93.89798752 -87.92578125 93.3515625 C-98.68585323 90.76797379 -109.38079203 87.99991144 -119.96728516 84.77587891 C-126.18688492 82.89495781 -132.47677141 81.34080612 -138.7890625 79.80419922 C-143.4128615 78.67229465 -147.95536814 77.423413 -152.5 76 C-159.46930326 73.97106674 -166.5490486 72.66895344 -173.6875 71.375 C-175.51655884 71.04169678 -175.51655884 71.04169678 -177.38256836 70.70166016 C-183.66729605 69.6030812 -189.80773203 68.81075089 -196.17749023 68.50268555 C-203.44326278 68.11370008 -207.67628707 67.36131712 -213.125 62.0625 C-214.79771249 60.08097905 -216.4247948 58.05988372 -218 56 C-218.75023437 55.11570312 -219.50046875 54.23140625 -220.2734375 53.3203125 C-222.57959915 50.5933775 -224.79014235 47.80539555 -227 45 C-227.87108162 43.92991843 -228.74353065 42.86094884 -229.6171875 41.79296875 C-238.10154884 31.33124288 -246.20355413 20.20304393 -252 8 C-243.95220193 10.62298604 -243.95220193 10.62298604 -240.69140625 11.9140625 C-234.47802194 14.35965056 -228.16734698 16.0600602 -221.6875 17.625 C-220.84670898 17.83108887 -220.00591797 18.03717773 -219.13964844 18.24951172 C-205.85079848 21.36811697 -192.78601157 22.43820045 -179.1875 22.4375 C-177.97984985 22.44009827 -177.97984985 22.44009827 -176.74780273 22.44274902 C-162.37195824 22.4292419 -148.91029865 20.77553 -135 17 C-133.79988281 16.68933594 -132.59976563 16.37867188 -131.36328125 16.05859375 C-122.54827987 13.54163433 -113.97306193 10.10523478 -105.3671875 6.95703125 C-70.92317279 -5.61690542 -35.79678156 -9.7556064 0 0 Z " fill="#8CC9FC" transform="translate(406,372)"/>
<path d="M0 0 C-0.72703125 1.43666016 -0.72703125 1.43666016 -1.46875 2.90234375 C-3.28652884 6.50536745 -5.08468417 10.11787606 -6.87548828 13.734375 C-7.58606765 15.16602426 -8.30013366 16.59595298 -9.01904297 18.0234375 C-18.36093321 36.62318299 -25.7385316 56.60685813 -30 77 C-30.22171875 78.04188477 -30.4434375 79.08376953 -30.671875 80.15722656 C-35.86469406 105.59482772 -35.91735731 131.12473562 -36 157 C-72.43376218 172.30540018 -72.43376218 172.30540018 -86 175 C-87.16523193 175.23468994 -87.16523193 175.23468994 -88.35400391 175.47412109 C-110.58950207 179.73720281 -132.77731062 178.7408936 -155 175 C-157.10436383 162.59539274 -157.40033048 150.37258177 -157.375 137.8125 C-157.37445618 136.79798767 -157.37391235 135.78347534 -157.37335205 134.73822021 C-157.33265298 118.1906277 -156.43319022 102.23953471 -153 86 C-152.78037598 84.95811523 -152.56075195 83.91623047 -152.33447266 82.84277344 C-145.0916313 49.63744694 -145.0916313 49.63744694 -138 39 C-135.07348633 38.61523438 -135.07348633 38.61523438 -131.33203125 38.59375 C-130.32422859 38.57749573 -130.32422859 38.57749573 -129.29606628 38.56091309 C-127.13478295 38.52659982 -124.97401953 38.5110909 -122.8125 38.5 C-94.70405619 38.35102104 -72.38824407 28.61230583 -47.48974609 16.25830078 C-13.85401061 -0.40880687 -13.85401061 -0.40880687 0 0 Z " fill="#0094FC" transform="translate(157,119)"/>
<path d="M0 0 C44.7376807 8.40494654 92.72608241 27.58841185 125 61 C124.45811035 61.12004395 123.9162207 61.24008789 123.35791016 61.36376953 C120.77802324 61.94124264 118.2016297 62.53316909 115.625 63.125 C114.77421875 63.31320313 113.9234375 63.50140625 113.046875 63.6953125 C96.91822195 67.43529002 81.6587871 73.59988481 66.4375 80 C33.1160555 93.98038368 33.1160555 93.98038368 18 97 C17.3488623 97.13535156 16.69772461 97.27070312 16.02685547 97.41015625 C-4.49014925 101.53679276 -28.5432875 103.79065639 -48 95 C-48.86157715 94.62939453 -49.7231543 94.25878906 -50.61083984 93.87695312 C-68.92783928 85.98540258 -86.61259731 76.75267735 -104 67 C-90.35437352 38.25836049 -38.99464803 15.21571663 -11 5 C-10.14792969 4.66355469 -9.29585938 4.32710938 -8.41796875 3.98046875 C-5.45373644 2.8107987 -3.21698463 2 0 2 C0 1.34 0 0.68 0 0 Z " fill="#B4DAFD" transform="translate(301,3)"/>
<path d="M0 0 C3.26801096 2.00467158 6.53907641 4.00417911 9.8125 6 C10.64740967 6.51602783 11.48231934 7.03205566 12.3425293 7.5637207 C17.33591579 10.59430559 22.31308462 13.05957395 27.71142578 15.27929688 C37.996625 19.57105029 42.07071008 24.06090597 46.90283203 33.92480469 C48.90280761 37.70758003 51.39014516 41.14894243 53.875 44.625 C54.38401855 45.34002686 54.89303711 46.05505371 55.41748047 46.79174805 C62.80008481 57.02507259 71.18049568 66.32948318 79.78515625 75.5390625 C82 78 82 78 84 81 C83.37359619 81.01458252 82.74719238 81.02916504 82.10180664 81.04418945 C57.2565158 81.68194159 33.69401863 84.73878842 9.45996094 90.22265625 C3.83709142 91.48593712 -1.79855263 92.685896 -7.4375 93.875 C-8.43209229 94.0901123 -9.42668457 94.30522461 -10.45141602 94.52685547 C-11.37365967 94.72166504 -12.29590332 94.91647461 -13.24609375 95.1171875 C-14.04716553 95.28847168 -14.8482373 95.45975586 -15.67358398 95.63623047 C-18.1938211 96.03030679 -20.45407773 96.19507478 -23 96 C-25.1312344 94.41984192 -26.88019722 92.91230489 -28.75 91.0625 C-29.30220215 90.53253418 -29.8544043 90.00256836 -30.42333984 89.45654297 C-31.6376044 88.28443806 -32.84548279 87.10569144 -34.04785156 85.92138672 C-36.09869118 83.90286399 -38.17004416 81.9067869 -40.2421875 79.91015625 C-48.93989785 71.45256376 -56.84621578 62.79383771 -64 53 C-64.85806152 51.84894983 -65.71613451 50.69790823 -66.57421875 49.546875 C-80.69642289 30.39082748 -91.92804986 9.37159691 -100 -13 C-65.6805173 -23.50596409 -30.34518226 -18.61760898 0 0 Z " fill="#31A7FB" transform="translate(115,358)"/>
<path d="M0 0 C0 15.84 0 31.68 0 48 C-37.12474921 63.44264778 -37.12474921 63.44264778 -50 66 C-51.16523193 66.23468994 -51.16523193 66.23468994 -52.35400391 66.47412109 C-74.58950207 70.73720281 -96.77731062 69.7408936 -119 66 C-121.17352138 53.49183777 -121.23668665 41.22629106 -121.125 28.5625 C-121.11494238 26.5592493 -121.10582149 24.55599368 -121.09765625 22.55273438 C-121.07588101 17.70169851 -121.04150712 12.85090551 -121 8 C-114.53510335 7.94624407 -108.1357708 8.05132528 -101.6875 8.5 C-69.75293509 10.41600607 -37.73151016 7.8651492 -6.57421875 0.515625 C-4 0 -4 0 0 0 Z " fill="#31A7FB" transform="translate(121,228)"/>
<path d="M0 0 C25.53356368 0.37152011 50.47828549 6.48090654 74.83874512 13.73561096 C84.09187906 16.48617675 93.38776589 19.02504912 102.73657227 21.42993164 C105.17086305 22.05820611 107.60196739 22.69791114 110.03320312 23.33789062 C115.00545225 24.6324263 119.99374859 25.84416981 125 27 C126.28118713 27.29707855 126.28118713 27.29707855 127.58825684 27.60015869 C142.92004297 31.04665405 157.70820784 31.49183486 173.375 31.25 C175.68357792 31.22986611 177.99217318 31.21162775 180.30078125 31.1953125 C185.86757623 31.15195144 191.43370233 31.08560698 197 31 C174.7974997 49.10881024 145.24228041 59.56322469 117.875 66.625 C116.88604736 66.88498779 115.89709473 67.14497559 114.87817383 67.4128418 C104.72933062 69.88840485 98.34637143 67.58059208 89.1875 63.0625 C87.66443237 62.31987915 87.66443237 62.31987915 86.1105957 61.56225586 C61.44280667 49.42100282 39.07899726 34.6638078 18 17 C17.41331543 16.51031738 16.82663086 16.02063477 16.22216797 15.51611328 C14.33039205 13.93349918 12.44552664 12.34301019 10.5625 10.75 C9.97098145 10.25459717 9.37946289 9.75919434 8.77001953 9.2487793 C5.43781975 6.40891228 2.62655111 3.5364865 0 0 Z " fill="#31A7FB" transform="translate(200,439)"/>
<path d="M0 0 C1.31037231 0.00845947 1.31037231 0.00845947 2.6472168 0.01708984 C21.84529982 0.37336111 40.426852 7.22062111 54.53515625 20.38671875 C56.2921861 22.28550472 57.82784462 24.19580562 59.3125 26.3125 C59.74304688 26.92480469 60.17359375 27.53710938 60.6171875 28.16796875 C64.37811748 34.45779993 64.44994998 41.59448564 62.7578125 48.61328125 C59.80334313 55.85876567 53.19616328 59.59375084 46.3203125 62.63671875 C30.93254302 67.89512918 13.45210359 66.75635276 -1.6875 61.3125 C-2.75355469 60.93867188 -3.81960937 60.56484375 -4.91796875 60.1796875 C-11.92796766 57.49651935 -17.75822689 53.88165312 -23.6875 49.3125 C-24.26242188 48.90257812 -24.83734375 48.49265625 -25.4296875 48.0703125 C-31.31548381 43.64834118 -36.21087078 36.5479832 -37.6875 29.3125 C-38.47897479 22.90480681 -37.979821 18.36529002 -34.16796875 13.05859375 C-25.30320935 2.60332343 -13.12681688 -0.08984816 0 0 Z " fill="#8DCAFC" transform="translate(188.6875,292.6875)"/>
</svg>
