<?xml version="1.0" encoding="UTF-8"?>
<svg version="1.1" xmlns="http://www.w3.org/2000/svg" width="512" height="512">
<path d="M0 0 C11.69252778 9.83155489 18.21558303 23.01060456 20.3515625 38 C21.7509476 56.82666098 20.15665966 74.76233511 15.3515625 93 C15.09987305 93.96454102 14.84818359 94.92908203 14.58886719 95.92285156 C6.56595851 125.86495223 -7.25490833 154.14558446 -22.703125 180.8984375 C-23.19321045 181.75880615 -23.6832959 182.6191748 -24.18823242 183.50561523 C-25.14934082 185.14742171 -26.15173182 186.76585505 -27.1965332 188.35571289 C-29.6061317 192.16663235 -31.09621255 194.76590818 -30.33203125 199.32421875 C-29.9483961 200.78733527 -29.53171927 202.24210577 -29.0859375 203.6875 C-28.66776221 205.26714612 -28.25373606 206.84789615 -27.84375 208.4296875 C-27.53099121 209.58936035 -27.53099121 209.58936035 -27.21191406 210.77246094 C-14.75094566 260.03323897 -29.03179228 315.02500648 -53.6484375 358 C-62.00886156 371.88571395 -72.48846094 384.30160352 -83.6484375 396 C-84.44765625 396.85207031 -85.246875 397.70414062 -86.0703125 398.58203125 C-113.43013198 426.97007924 -151.36217758 445.33223523 -189.6484375 453 C-190.95433838 453.26466064 -190.95433838 453.26466064 -192.28662109 453.53466797 C-218.27327786 458.533817 -250.51645627 458.97395764 -275.89013672 450.97851562 C-281.94282061 449.14865527 -285.68922674 448.38275538 -291.4296875 451.3828125 C-293.35969243 452.59312915 -295.26549818 453.84268765 -297.1484375 455.125 C-299.24893581 456.44907379 -301.3518457 457.76932885 -303.45703125 459.0859375 C-304.49714355 459.75077148 -305.53725586 460.41560547 -306.60888672 461.10058594 C-341.17170796 482.69887905 -385.27050081 500.43253988 -426.3984375 500.375 C-427.05663483 500.37445618 -427.71483215 500.37391235 -428.39297485 500.37335205 C-447.06126115 500.30251327 -462.42730012 496.66456012 -476.359375 483.484375 C-491.91864072 466.59752688 -492.73487992 445.68482555 -491.87792969 423.89599609 C-490.23130959 395.94199229 -479.21840075 369.15494643 -467.6484375 344 C-466.92278566 342.38559255 -466.19751097 340.77101551 -465.47265625 339.15625 C-458.68001275 324.2273803 -450.86289023 309.62580747 -441.66796875 296.03515625 C-441.01787842 295.06425049 -440.36778809 294.09334473 -439.69799805 293.09301758 C-438.45084232 291.25068236 -437.17882729 289.42483759 -435.87817383 287.61987305 C-432.15470441 282.12362462 -431.14931788 278.80342545 -432.19287109 272.26367188 C-432.75954053 268.2040593 -432.82257399 264.22679158 -432.8515625 260.1328125 C-432.85870773 259.33289383 -432.86585297 258.53297516 -432.87321472 257.70881653 C-432.89023505 255.18082211 -432.8966712 252.65304971 -432.8984375 250.125 C-432.89911224 249.25628265 -432.89978699 248.38756531 -432.90048218 247.49252319 C-432.88439039 234.44298675 -432.44212391 221.79372098 -429.6484375 209 C-429.47683105 208.18692383 -429.30522461 207.37384766 -429.12841797 206.53613281 C-419.04882481 159.89436927 -393.54895231 116.44057847 -355.6484375 87 C-354.81699219 86.35393799 -354.81699219 86.35393799 -353.96875 85.69482422 C-313.42298903 54.44080014 -264.64634847 40.24051886 -213.6484375 43 C-211.15030484 43.36342953 -208.70011287 43.83219465 -206.2265625 44.33203125 C-196.63718738 46.20440924 -191.14679761 43.37151603 -183.109375 38.07763672 C-181.43159358 36.93863123 -179.75853928 35.7926309 -178.09033203 34.63964844 C-174.38177913 32.14948234 -170.50892105 30.00538188 -166.5859375 27.875 C-165.84432373 27.46902588 -165.10270996 27.06305176 -164.33862305 26.64477539 C-162.84586526 25.82899422 -161.35180885 25.01558469 -159.85644531 24.20458984 C-157.69177065 23.02364062 -155.54112987 21.81979442 -153.390625 20.61328125 C-112.44014081 -2.02303291 -42.58166036 -32.1560621 0 0 Z M-121.6484375 71 C-121.6484375 71.99 -121.6484375 72.98 -121.6484375 74 C-119.66303537 75.55144668 -119.66303537 75.55144668 -117.0234375 77 C-95.97816276 89.86999494 -77.7712875 107.97640043 -63.48022461 127.97167969 C-62.24670914 129.68023833 -60.9529076 131.34498011 -59.6484375 133 C-58.9884375 133 -58.3284375 133 -57.6484375 133 C-41.67604502 102.00311794 -41.67604502 102.00311794 -40.8984375 68.07421875 C-43.4135603 61.11833225 -46.92302686 57.17880737 -53.6484375 54 C-75.42844571 46.55019327 -102.52980984 61.67730285 -121.6484375 71 Z M-405.6484375 354 C-419.38508445 372.2010572 -427.97691172 399.48840056 -426.6484375 422 C-425.5728527 427.58965329 -423.10231475 431.4368982 -418.6484375 435 C-409.82282731 440.83120673 -400.67774414 440.50926524 -390.53125 438.84375 C-375.29695495 435.53327945 -356.97971697 429.71256789 -344.6484375 420 C-345.88391897 418.96719786 -347.11953232 417.93455316 -348.35571289 416.90258789 C-349.44000502 415.99738948 -350.5238148 415.09161303 -351.60717773 414.18530273 C-355.10615188 411.26432722 -358.6476084 408.40492437 -362.2109375 405.5625 C-378.78546742 391.99284889 -393.10837501 374.35300126 -403.625 355.66015625 C-403.96273437 355.11230469 -404.30046875 354.56445312 -404.6484375 354 C-404.9784375 354 -405.3084375 354 -405.6484375 354 Z " fill="#FDB97E" transform="translate(491.6484375,12)"/>
<path d="M0 0 C11.69252778 9.83155489 18.21558303 23.01060456 20.3515625 38 C21.7509476 56.82666098 20.15665966 74.76233511 15.3515625 93 C15.09987305 93.96454102 14.84818359 94.92908203 14.58886719 95.92285156 C6.56595851 125.86495223 -7.25490833 154.14558446 -22.703125 180.8984375 C-23.19321045 181.75880615 -23.6832959 182.6191748 -24.18823242 183.50561523 C-25.14934082 185.14742171 -26.15173182 186.76585505 -27.1965332 188.35571289 C-29.6061317 192.16663235 -31.09621255 194.76590818 -30.33203125 199.32421875 C-29.9483961 200.78733527 -29.53171927 202.24210577 -29.0859375 203.6875 C-28.66776221 205.26714612 -28.25373606 206.84789615 -27.84375 208.4296875 C-27.53099121 209.58936035 -27.53099121 209.58936035 -27.21191406 210.77246094 C-14.75094566 260.03323897 -29.03179228 315.02500648 -53.6484375 358 C-62.00886156 371.88571395 -72.48846094 384.30160352 -83.6484375 396 C-84.44765625 396.85207031 -85.246875 397.70414062 -86.0703125 398.58203125 C-113.43013198 426.97007924 -151.36217758 445.33223523 -189.6484375 453 C-190.95433838 453.26466064 -190.95433838 453.26466064 -192.28662109 453.53466797 C-218.27327786 458.533817 -250.51645627 458.97395764 -275.89013672 450.97851562 C-281.94282061 449.14865527 -285.68922674 448.38275538 -291.4296875 451.3828125 C-293.35969243 452.59312915 -295.26549818 453.84268765 -297.1484375 455.125 C-299.24893581 456.44907379 -301.3518457 457.76932885 -303.45703125 459.0859375 C-304.49714355 459.75077148 -305.53725586 460.41560547 -306.60888672 461.10058594 C-341.17170796 482.69887905 -385.27050081 500.43253988 -426.3984375 500.375 C-427.05663483 500.37445618 -427.71483215 500.37391235 -428.39297485 500.37335205 C-447.06126115 500.30251327 -462.42730012 496.66456012 -476.359375 483.484375 C-491.91864072 466.59752688 -492.73487992 445.68482555 -491.87792969 423.89599609 C-490.23130959 395.94199229 -479.21840075 369.15494643 -467.6484375 344 C-466.92278566 342.38559255 -466.19751097 340.77101551 -465.47265625 339.15625 C-456.03126518 318.40596375 -444.08114039 299.06685393 -431.6484375 280 C-429.7123964 282.90406165 -429.21219704 284.36524801 -428.5703125 287.69140625 C-428.28873291 289.09410767 -428.28873291 289.09410767 -428.00146484 290.52514648 C-427.80246582 291.52747314 -427.6034668 292.5297998 -427.3984375 293.5625 C-423.25887405 313.23841025 -416.89695536 334.12722321 -405.6484375 351 C-405.91751895 356.06891273 -407.98904252 360.04383141 -410.3359375 364.4375 C-419.50632554 382.21182129 -429.74669026 404.19655131 -425.046875 424.61328125 C-424.22108635 426.93243967 -424.22108635 426.93243967 -422.6484375 430 C-422.3596875 430.78375 -422.0709375 431.5675 -421.7734375 432.375 C-420.14006085 434.73432183 -418.34002717 435.12366848 -415.6484375 436 C-414.9265625 436.350625 -414.2046875 436.70125 -413.4609375 437.0625 C-392.10047553 444.18265399 -367.54581241 430.97782263 -348.6484375 422 C-347.58496094 421.50113281 -347.58496094 421.50113281 -346.5 420.9921875 C-314.96614755 406.13140646 -286.12911424 384.58176544 -259.37646484 362.42822266 C-256.91689572 360.39537731 -254.43754935 358.38702377 -251.9609375 356.375 C-242.81641401 348.87566814 -233.82516502 341.24943417 -225.11328125 333.25 C-223.06727796 331.38233297 -220.99826593 329.55630403 -218.8984375 327.75 C-206.30683828 316.76322892 -194.46191117 304.9738187 -182.66601562 293.14794922 C-180.127449 290.60396672 -177.5835042 288.06544872 -175.0390625 285.52734375 C-173.39811638 283.8857376 -171.75748006 282.24382169 -170.1171875 280.6015625 C-168.9951593 279.48257065 -168.9951593 279.48257065 -167.85046387 278.3409729 C-163.80769243 274.28029942 -159.92691438 270.13446892 -156.19552612 265.78520203 C-153.64173477 262.83835501 -150.94868877 260.02361017 -148.2734375 257.1875 C-143.64247535 252.23905028 -139.24345555 247.18127256 -135.0078125 241.88671875 C-132.74649059 239.11996893 -130.41605494 236.43527757 -128.05395508 233.75512695 C-121.02044715 225.76736047 -114.51646774 217.46267018 -108.12695312 208.95458984 C-106.80140492 207.20222212 -105.45886381 205.46609786 -104.1015625 203.73828125 C-91.18802311 187.25874814 -79.60152241 169.83117374 -68.6484375 152 C-68.21692383 151.29987793 -67.78541016 150.59975586 -67.34082031 149.87841797 C-54.23548178 128.3621099 -36.78893587 96.52156497 -41.3359375 70.25 C-42.24028076 66.77448472 -43.60377424 63.97405565 -45.6484375 61 C-45.6484375 60.34 -45.6484375 59.68 -45.6484375 59 C-46.95920857 58.289999 -48.3019109 57.63960014 -49.6484375 57 C-50.7209375 56.46375 -51.7934375 55.9275 -52.8984375 55.375 C-69.65890136 49.31138135 -89.22850665 57.3582828 -104.6484375 64 C-106.1796004 64.7223152 -107.70556882 65.4557288 -109.2265625 66.19921875 C-109.98598145 66.57014648 -110.74540039 66.94107422 -111.52783203 67.32324219 C-112.98999258 68.04875869 -114.44467585 68.78960981 -115.89013672 69.54785156 C-120.21876489 71.71793156 -122.84432682 72.57397837 -127.6484375 71 C-130.1678548 69.72607342 -132.58386522 68.40956337 -135.0234375 67 C-152.43510198 57.37319928 -172.65171143 50.05109532 -192.41796875 47.4921875 C-193.15402344 47.32976563 -193.89007813 47.16734375 -194.6484375 47 C-194.9784375 46.34 -195.3084375 45.68 -195.6484375 45 C-183.84927675 37.8238805 -171.99724074 30.78902386 -159.85644531 24.20458984 C-157.69177065 23.02364062 -155.54112987 21.81979442 -153.390625 20.61328125 C-112.44014081 -2.02303291 -42.58166036 -32.1560621 0 0 Z " fill="#FEE87C" transform="translate(491.6484375,12)"/>
<path d="M0 0 C-0.89460937 0.85980469 -1.78921875 1.71960937 -2.7109375 2.60546875 C-10.57517796 10.25465433 -17.64928317 18.04311764 -24 27 C-24.59409668 27.81960205 -24.59409668 27.81960205 -25.20019531 28.65576172 C-59.62452984 76.41502551 -68.19756323 133.10815312 -59.19140625 190.2890625 C-54.97673007 214.84644667 -45.19060883 239.60047305 -30.87158203 260.02905273 C-29.640625 261.84765625 -29.640625 261.84765625 -28 265 C-28.76306312 268.87081108 -31.86542466 270.72898869 -34.875 273.0625 C-39.07393884 276.40082082 -43.08020579 279.83960863 -47 283.5 C-51.57843315 287.75618444 -56.29294422 291.77329463 -61.1640625 295.6953125 C-64.25587906 298.2079458 -67.28430911 300.7865464 -70.3125 303.375 C-75.29018887 307.61481623 -80.36685186 311.70303427 -85.53369141 315.7097168 C-88.84497289 318.28367399 -92.10917225 320.90257448 -95.3359375 323.58203125 C-96.06063232 324.18160645 -96.78532715 324.78118164 -97.53198242 325.39892578 C-98.94602881 326.57225275 -100.35523875 327.75143823 -101.7590332 328.93701172 C-102.39929443 329.46697754 -103.03955566 329.99694336 -103.69921875 330.54296875 C-104.26471436 331.01758545 -104.83020996 331.49220215 -105.4128418 331.98120117 C-107 333 -107 333 -110 333 C-111.31518555 331.73754883 -111.31518555 331.73754883 -112.63671875 329.95703125 C-113.1272876 329.30275146 -113.61785645 328.64847168 -114.12329102 327.97436523 C-114.63947998 327.26094971 -115.15566895 326.54753418 -115.6875 325.8125 C-116.49368774 324.71047241 -116.49368774 324.71047241 -117.31616211 323.58618164 C-127.02236623 310.17960539 -134.17067241 296.04107664 -141 281 C-141.32274902 280.29053223 -141.64549805 279.58106445 -141.97802734 278.85009766 C-151.37942159 257.81766517 -157.06613674 233.38844293 -157.203125 210.328125 C-157.21013931 209.53177139 -157.21715363 208.73541779 -157.22438049 207.91493225 C-157.24177903 205.35989655 -157.24823256 202.80509276 -157.25 200.25 C-157.25067474 199.37628754 -157.25134949 198.50257507 -157.25204468 197.60238647 C-157.23598106 184.51564467 -156.80166804 171.83027297 -154 159 C-153.82839355 158.18692383 -153.65678711 157.37384766 -153.47998047 156.53613281 C-143.40038731 109.89436927 -117.90051481 66.44057847 -80 37 C-79.44570312 36.56929199 -78.89140625 36.13858398 -78.3203125 35.69482422 C-57.08759154 19.32793515 -33.7098624 7.57929519 -8 0 C-7.33347412 -0.21269531 -6.66694824 -0.42539062 -5.98022461 -0.64453125 C-3.6915592 -1.05536799 -2.19447322 -0.70536639 0 0 Z " fill="#FDB97D" transform="translate(216,62)"/>
<path d="M0 0 C0.66 0 1.32 0 2 0 C15.56685324 58.08720658 7.89555488 115.0077682 -23.02734375 166.3671875 C-31.13743349 178.87231564 -40.7294313 190.23392141 -51 201 C-51.79921875 201.85207031 -52.5984375 202.70414063 -53.421875 203.58203125 C-80.78169448 231.97007924 -118.71374008 250.33223523 -157 258 C-158.30590088 258.26466064 -158.30590088 258.26466064 -159.63818359 258.53466797 C-190.04066923 264.38330629 -222.25279021 261.83812223 -252 254 C-250.85556028 250.56668084 -250.35329642 250.31738847 -247.37890625 248.5390625 C-246.61739258 248.0742749 -245.85587891 247.6094873 -245.07128906 247.13061523 C-243.82943848 246.38533569 -243.82943848 246.38533569 -242.5625 245.625 C-233.42820024 240.00369322 -224.73638723 233.93103911 -216.11376953 227.55957031 C-214.0807752 226.05959713 -212.04015632 224.57078018 -209.99609375 223.0859375 C-187.57397895 206.77997937 -166.03257865 189.30279949 -145.68359375 170.46484375 C-143.3830635 168.35183852 -141.05340817 166.28894966 -138.6875 164.25 C-135.59840355 161.57490617 -132.72366324 158.74794662 -129.86376953 155.83129883 C-128.11357056 154.11159192 -126.3113954 152.52093611 -124.44140625 150.93359375 C-119.20528754 146.37924251 -114.33211148 141.47807341 -109.4375 136.5625 C-108.53064453 135.65951172 -107.62378906 134.75652344 -106.68945312 133.82617188 C-102.12643392 129.25653481 -97.68603404 124.64468007 -93.50610352 119.72045898 C-91.90991284 117.89709123 -90.22995374 116.19628129 -88.5 114.5 C-85.46405075 111.51127663 -82.65491341 108.38293521 -79.875 105.15625 C-77.82640906 102.80037042 -75.72796998 100.4949254 -73.625 98.1875 C-69.72758553 93.86874343 -66.02699645 89.42237949 -62.37109375 84.8984375 C-60.30327052 82.37071948 -58.19378901 79.88609315 -56.06225586 77.41210938 C-49.8601953 70.19564679 -44.14791164 62.67098704 -38.49853516 55.01757812 C-37.0585312 53.07880447 -35.60176848 51.15426864 -34.13671875 49.234375 C-22.59739747 34.08460327 -11.54029385 18.50507507 -1.6015625 2.25390625 C-1.07304687 1.51011719 -0.54453125 0.76632813 0 0 Z " fill="#FDB97D" transform="translate(459,207)"/>
<path d="M0 0 C11.74117385 8.05766833 21.31581623 18.80529765 30 30 C30.86093953 31.05943944 31.72295564 32.11800475 32.5859375 33.17578125 C33.43344117 34.24127419 34.27982358 35.30766009 35.125 36.375 C35.89070312 37.33148438 36.65640625 38.28796875 37.4453125 39.2734375 C39 42 39 42 39.01953125 44.34375 C37.55361476 48.16299602 35.63391204 51.60255374 33.5625 55.125 C33.08731934 55.93831787 32.61213867 56.75163574 32.12255859 57.58959961 C18.14111964 81.12844119 2.17636312 103.69754652 -15 125 C-15.75796875 125.94101563 -16.5159375 126.88203125 -17.296875 127.8515625 C-22.62528833 134.40815621 -28.07201963 140.86358687 -33.54980469 147.29541016 C-35.01803039 149.02119329 -36.48173533 150.75074272 -37.9453125 152.48046875 C-43.28579165 158.77326194 -48.70856169 164.96912574 -54.34353638 171.00056458 C-56.74531835 173.57152574 -59.13565724 176.14961261 -61.49902344 178.75610352 C-70.22385322 188.35814916 -79.37222499 197.52440549 -88.55566406 206.68603516 C-91.26223325 209.38720886 -93.96336896 212.09373429 -96.6640625 214.80078125 C-98.4059292 216.54198765 -100.1481058 218.28288409 -101.890625 220.0234375 C-102.68664124 220.82147797 -103.48265747 221.61951843 -104.30279541 222.44174194 C-108.49525142 226.61684351 -112.76186898 230.64025394 -117.25401306 234.49212646 C-120.01308542 236.87492332 -122.65402549 239.38136936 -125.3125 241.875 C-130.07125228 246.30269069 -134.95264856 250.49676483 -140.02734375 254.5625 C-144.40480595 258.15190396 -148.64438742 261.89843909 -152.87451172 265.65991211 C-153.48182129 266.19366455 -154.08913086 266.72741699 -154.71484375 267.27734375 C-155.25230225 267.75421631 -155.78976074 268.23108887 -156.34350586 268.72241211 C-158.13484493 270.10400052 -159.95073001 271.0524461 -162 272 C-162.6290625 271.43152344 -163.258125 270.86304688 -163.90625 270.27734375 C-167.92865054 266.6487023 -171.95223629 263.02901429 -176.0625 259.5 C-187.34037805 249.62619512 -196.62889582 238.40861424 -205 226 C-203.43663288 222.00783038 -200.63934888 219.58412453 -197.5 216.8125 C-196.95956055 216.32620117 -196.41912109 215.83990234 -195.86230469 215.33886719 C-194.24663022 213.88675717 -192.62426757 212.44248478 -191 211 C-173.65191103 195.50274218 -157.10772878 179.26855985 -140.67895508 162.80932617 C-137.54251599 159.66714043 -134.40153737 156.52953654 -131.2592535 153.39319706 C-128.80804316 150.94561575 -126.35923823 148.49563893 -123.91113472 146.04495049 C-122.75378046 144.88693604 -121.59570213 143.72964472 -120.43684196 142.57313728 C-114.40975668 136.55562865 -108.52886082 130.48501636 -103 124 C-101.77045367 122.65740533 -100.53343535 121.32150538 -99.28125 120 C-98.34732422 119.01 -98.34732422 119.01 -97.39453125 118 C-96.13151042 116.66666667 -94.86848958 115.33333333 -93.60546875 114 C-89.83736882 110.00565804 -86.16694898 105.94620278 -82.56738281 101.79931641 C-80.62031046 99.56412587 -78.62505531 97.37529997 -76.625 95.1875 C-72.67312063 90.81364029 -68.94724635 86.29027878 -65.2421875 81.70703125 C-63.10516218 79.12696409 -60.89264255 76.65285515 -58.625 74.1875 C-54.58582425 69.75562661 -50.89686492 65.11918179 -47.22705078 60.38354492 C-44.07983447 56.33564141 -40.83653479 52.39292113 -37.5 48.5 C-31.79221313 41.82551448 -26.37646837 34.94254521 -21 28 C-20.15760229 26.91792967 -19.31515543 25.83589758 -18.47265625 24.75390625 C-12.15744616 16.61697708 -6.05916632 8.32847386 0 0 Z " fill="#FDCA9B" transform="translate(394,103)"/>
<path d="M0 0 C1.27447998 0.00080566 2.54895996 0.00161133 3.86206055 0.00244141 C15.44265815 0.07744432 26.64337212 0.75656899 37.89038086 3.67431641 C39.76146099 4.15814104 41.64229594 4.60377956 43.5234375 5.046875 C53.85523504 7.51610963 63.84299139 10.70416368 73.875 14.1875 C71.08682988 18.47600185 68.11790345 22.55457522 64.9375 26.5625 C64.46658936 27.15901367 63.99567871 27.75552734 63.51049805 28.37011719 C58.6873959 34.46063259 53.78149217 40.48373873 48.87109375 46.50390625 C46.47503947 49.44353408 44.1056009 52.40280009 41.75 55.375 C38.25679651 59.75805112 34.64533076 64.03319867 31.01123047 68.29931641 C28.08123318 71.74345484 25.21175907 75.228156 22.375 78.75 C18.73350067 83.23034472 14.90015387 87.47662796 10.9675293 91.69848633 C7.90183034 95.00914038 5.01319341 98.41632611 2.1875 101.9375 C-1.00181984 105.89998829 -4.31885512 109.54255808 -8.0078125 113.04296875 C-9.88441937 114.94381224 -11.63238263 116.89034156 -13.3828125 118.90625 C-17.1128812 123.20182606 -20.97034886 127.3631727 -24.875 131.5 C-25.57165771 132.23984131 -26.26831543 132.97968262 -26.98608398 133.74194336 C-31.76195968 138.79509602 -36.61668479 143.74585098 -41.59765625 148.59765625 C-43.62097877 150.67101456 -45.51661071 152.7694939 -47.40625 154.9609375 C-51.27143087 159.41730669 -55.38134429 163.59142479 -59.5625 167.75 C-60.27470703 168.46607422 -60.98691406 169.18214844 -61.72070312 169.91992188 C-65.10928019 173.30234348 -68.53276586 176.5888216 -72.16015625 179.71484375 C-76.36160449 183.3363898 -80.24265899 187.22933201 -84.125 191.1875 C-90.44126104 197.62712551 -96.85020399 203.82797108 -104.125 209.1875 C-118.58488887 156.48597608 -110.88380425 100.89061576 -84.4921875 53.28515625 C-75.08609244 36.79606697 -63.10209997 21.72100367 -49.4375 8.5625 C-48.00935687 7.20128527 -48.00935687 7.20128527 -47.125 5.1875 C-45.16650391 4.60913086 -45.16650391 4.60913086 -42.6015625 4.15234375 C-41.19197266 3.89807617 -41.19197266 3.89807617 -39.75390625 3.63867188 C-38.76261719 3.46916016 -37.77132812 3.29964844 -36.75 3.125 C-35.79738281 2.95162109 -34.84476562 2.77824219 -33.86328125 2.59960938 C-22.55946469 0.60346856 -11.47106094 -0.00755321 0 0 Z " fill="#FDC99B" transform="translate(263.125,54.8125)"/>
<path d="M0 0 C0.66 0 1.32 0 2 0 C5.48108654 14.90445792 8.27314713 29.67001216 9 45 C9.03931641 45.74507812 9.07863281 46.49015625 9.11914062 47.2578125 C9.23659459 49.73429942 9.31053802 52.20910641 9.375 54.6875 C9.41318848 55.45924561 9.45137695 56.23099121 9.49072266 57.02612305 C9.64229443 67.67347488 2.90416572 76.02689984 -2.9375 84.4375 C-3.92049072 85.86376709 -3.92049072 85.86376709 -4.92333984 87.31884766 C-14.92723335 101.7566397 -25.37935725 115.75466129 -36.58496094 129.28076172 C-37.84502665 130.81171112 -39.08419469 132.35980647 -40.3203125 133.91015625 C-45.77646026 140.74544099 -51.67191306 147.09899023 -57.671875 153.453125 C-60.25532658 156.19210209 -62.76904726 158.97991616 -65.25 161.8125 C-69.6838655 166.77241734 -74.36742783 171.47675225 -79.0625 176.1875 C-80.19703613 177.32892456 -80.19703613 177.32892456 -81.35449219 178.4934082 C-85.47234417 182.60005575 -89.6757784 186.53710667 -94.08227539 190.33178711 C-97.80835364 193.57307199 -101.37848681 196.98524824 -104.97460938 200.36914062 C-106.12316874 201.44359939 -107.28029717 202.50898889 -108.44677734 203.56396484 C-109.76592762 204.78358791 -111.01146232 206.08207051 -112.23828125 207.39453125 C-119.32547662 211.51452742 -129.4395801 208.71663057 -137.125 207.3125 C-138.11838379 207.13533447 -139.11176758 206.95816895 -140.13525391 206.77563477 C-148.96992291 205.13271875 -157.46893349 202.79707099 -166 200 C-167.00417969 199.67515625 -168.00835937 199.3503125 -169.04296875 199.015625 C-171.03442222 198.36106975 -173.01863028 197.68447318 -175 197 C-171.16320819 193.0540016 -167.12108843 189.44802229 -162.9375 185.875 C-157.07164826 180.83150427 -151.32723699 175.68219641 -145.6484375 170.4296875 C-143.35906603 168.32940865 -141.04038382 166.27834812 -138.6875 164.25 C-135.59840355 161.57490617 -132.72366324 158.74794662 -129.86376953 155.83129883 C-128.11357056 154.11159192 -126.3113954 152.52093611 -124.44140625 150.93359375 C-119.20528754 146.37924251 -114.33211148 141.47807341 -109.4375 136.5625 C-108.53064453 135.65951172 -107.62378906 134.75652344 -106.68945312 133.82617188 C-102.12643392 129.25653481 -97.68603404 124.64468007 -93.50610352 119.72045898 C-91.90991284 117.89709123 -90.22995374 116.19628129 -88.5 114.5 C-85.46405075 111.51127663 -82.65491341 108.38293521 -79.875 105.15625 C-77.82640906 102.80037042 -75.72796998 100.4949254 -73.625 98.1875 C-69.72758553 93.86874343 -66.02699645 89.42237949 -62.37109375 84.8984375 C-60.30327052 82.37071948 -58.19378901 79.88609315 -56.06225586 77.41210938 C-49.8601953 70.19564679 -44.14791164 62.67098704 -38.49853516 55.01757812 C-37.0585312 53.07880447 -35.60176848 51.15426864 -34.13671875 49.234375 C-22.59739747 34.08460327 -11.54029385 18.50507507 -1.6015625 2.25390625 C-1.07304687 1.51011719 -0.54453125 0.76632813 0 0 Z " fill="#FDCA9B" transform="translate(459,207)"/>
<path d="M0 0 C-0.89460937 0.85980469 -1.78921875 1.71960937 -2.7109375 2.60546875 C-10.57517796 10.25465433 -17.64928317 18.04311764 -24 27 C-24.59409668 27.81960205 -24.59409668 27.81960205 -25.20019531 28.65576172 C-39.8977383 49.04668117 -51.08567528 72.26849559 -56.43017578 96.83642578 C-59.32345453 109.98628292 -61.98857232 118.03743536 -73 126 C-74.32459148 127.13183377 -75.63863839 128.27622966 -76.9375 129.4375 C-77.55496094 129.96214844 -78.17242187 130.48679688 -78.80859375 131.02734375 C-82.37931208 134.24162674 -85.72494679 137.68330331 -89.08178711 141.11889648 C-92.56448568 144.6577589 -96.19088556 147.95522814 -99.94726562 151.20117188 C-103.38205541 154.2111066 -106.684812 157.35963637 -110 160.5 C-117.32727005 167.44087105 -124.88813405 174.07257065 -132.5625 180.625 C-136.44554445 183.94315037 -140.31855946 187.27174879 -144.16796875 190.62890625 C-144.84980225 191.22300293 -145.53163574 191.81709961 -146.23413086 192.42919922 C-147.55810314 193.58400707 -148.88058121 194.74053069 -150.20141602 195.89892578 C-154.7791332 199.8895666 -154.7791332 199.8895666 -157 201 C-158.55069366 144.31353186 -135.75763082 93.63468158 -97.62109375 52.4296875 C-92.13721442 46.79865577 -86.20308136 41.81846498 -80 37 C-79.44570312 36.56929199 -78.89140625 36.13858398 -78.3203125 35.69482422 C-57.08759154 19.32793515 -33.7098624 7.57929519 -8 0 C-7.33347412 -0.21269531 -6.66694824 -0.42539062 -5.98022461 -0.64453125 C-3.6915592 -1.05536799 -2.19447322 -0.70536639 0 0 Z " fill="#FDA95C" transform="translate(216,62)"/>
<path d="M0 0 C3.57151428 3.84870644 4.56851818 8.53786307 6.0625 13.4375 C11.03583788 28.9543682 17.7543551 43.65613537 27.12817383 57.02856445 C28.359375 58.84765625 28.359375 58.84765625 30 62 C29.23693688 65.87081108 26.13457534 67.72898869 23.125 70.0625 C18.92606116 73.40082082 14.91979421 76.83960863 11 80.5 C6.42156685 84.75618444 1.70705578 88.77329463 -3.1640625 92.6953125 C-6.25587906 95.2079458 -9.28430911 97.7865464 -12.3125 100.375 C-17.29018887 104.61481623 -22.36685186 108.70303427 -27.53369141 112.7097168 C-30.84497289 115.28367399 -34.10917225 117.90257448 -37.3359375 120.58203125 C-38.42297974 121.48139404 -38.42297974 121.48139404 -39.53198242 122.39892578 C-40.94602881 123.57225275 -42.35523875 124.75143823 -43.7590332 125.93701172 C-44.39929443 126.46697754 -45.03955566 126.99694336 -45.69921875 127.54296875 C-46.26471436 128.01758545 -46.83020996 128.49220215 -47.4128418 128.98120117 C-49 130 -49 130 -52 130 C-53.31518555 128.73754883 -53.31518555 128.73754883 -54.63671875 126.95703125 C-55.37257202 125.97561157 -55.37257202 125.97561157 -56.12329102 124.97436523 C-56.63947998 124.26094971 -57.15566895 123.54753418 -57.6875 122.8125 C-58.2249585 122.07781494 -58.76241699 121.34312988 -59.31616211 120.58618164 C-66.60344192 110.52071513 -72.52048742 100.2306717 -77.9375 89.0625 C-78.6656189 87.56867798 -78.6656189 87.56867798 -79.40844727 86.04467773 C-80.08605103 84.6168396 -80.08605103 84.6168396 -80.77734375 83.16015625 C-81.18202881 82.31074463 -81.58671387 81.46133301 -82.00366211 80.58618164 C-83.1161874 77.69841384 -83.70787202 75.08020812 -84 72 C-82.48046875 69.9453125 -82.48046875 69.9453125 -80.1875 68.125 C-78.93259766 67.10212891 -78.93259766 67.10212891 -77.65234375 66.05859375 C-76.77707031 65.37925781 -75.90179688 64.69992187 -75 64 C-73.41641534 62.72947985 -71.83308285 61.45864534 -70.25 60.1875 C-69.41855469 59.53007812 -68.58710937 58.87265625 -67.73046875 58.1953125 C-64.060454 55.24459964 -60.4792622 52.19481952 -56.89428711 49.1418457 C-53.40303547 46.17333185 -49.87498078 43.25819419 -46.3125 40.375 C-41.92273353 36.80474131 -37.72172307 33.07117495 -33.54296875 29.2578125 C-30.86222776 26.87767687 -28.10495866 24.62268159 -25.3125 22.375 C-21.5398561 19.32297347 -18.05483891 16.1758347 -14.68359375 12.69140625 C-10.12207684 8.10872221 -5.09101723 3.97735721 0 0 Z " fill="#FDA95C" transform="translate(158,265)"/>
<path d="M0 0 C0.33 0 0.66 0 1 0 C1.2322764 7.27700131 0.60408201 14.14324812 -0.625 21.3125 C-0.80321289 22.3550293 -0.98142578 23.39755859 -1.16503906 24.47167969 C-8.67461422 66.36519797 -28.74882663 103.37397407 -58 134 C-58.55300781 134.72574219 -59.10601562 135.45148438 -59.67578125 136.19921875 C-63.41440483 139.0958666 -67.65826666 139.434913 -72.25 140.1875 C-73.16652344 140.35185547 -74.08304687 140.51621094 -75.02734375 140.68554688 C-77.68099501 141.1530589 -80.33794994 141.58329296 -83 142 C-84.23492187 142.19851563 -85.46984375 142.39703125 -86.7421875 142.6015625 C-93.08358577 143.34832015 -99.50022672 143.18435662 -105.875 143.1875 C-107.21875192 143.19965992 -108.56250196 143.21202808 -109.90625 143.22460938 C-111.80503906 143.22750977 -111.80503906 143.22750977 -113.7421875 143.23046875 C-114.8957373 143.23457764 -116.04928711 143.23868652 -117.23779297 143.24291992 C-120 143 -120 143 -122 141 C-120.16776737 139.31129226 -118.33423723 137.62402822 -116.5 135.9375 C-115.9946875 135.47150391 -115.489375 135.00550781 -114.96875 134.52539062 C-112.03592789 131.83086031 -109.07150529 129.18020303 -106.06640625 126.56640625 C-91.98029401 114.28184956 -77.79710796 101.30676635 -65.7265625 87.0078125 C-63.88849026 84.87032577 -61.98202516 82.80324677 -60.0637207 80.73779297 C-54.44936685 74.68804803 -49.15850987 68.44600573 -44 62 C-43.07759625 60.86916043 -42.15437804 59.73898485 -41.23046875 58.609375 C-26.76717526 40.84794135 -12.90803382 21.96945513 -1.35400391 2.1809082 C-0.90718262 1.4612085 -0.46036133 0.74150879 0 0 Z " fill="#FDB97E" transform="translate(466,274)"/>
<path d="M0 0 C1.80017578 0.01353516 1.80017578 0.01353516 3.63671875 0.02734375 C4.51972656 0.03894531 5.40273438 0.05054688 6.3125 0.0625 C3.53183395 4.39878343 0.49792663 8.35321607 -2.875 12.25 C-3.8614521 13.40168037 -4.84711876 14.55403393 -5.83203125 15.70703125 C-6.31752441 16.27502441 -6.80301758 16.84301758 -7.30322266 17.42822266 C-9.25824205 19.73631786 -11.16056772 22.08557265 -13.0625 24.4375 C-21.22330028 34.45236402 -29.77353675 44.13656415 -38.5 53.66015625 C-40.3841034 55.72930552 -42.23204747 57.82103926 -44.0625 59.9375 C-48.62508319 65.1839364 -53.37909721 70.25567964 -58.10693359 75.35253906 C-59.64669524 77.01835472 -61.17821752 78.69132452 -62.70703125 80.3671875 C-68.18032451 86.35611977 -73.76141284 92.18968175 -79.53466797 97.89038086 C-82.81982449 101.14893033 -85.89151407 104.51616667 -88.88671875 108.0390625 C-92.62118235 112.23527106 -96.68078899 116.12834512 -100.6875 120.0625 C-105.79293102 104.74620694 -89.79948484 76.35797475 -83.1015625 62.6875 C-72.85564844 42.44494986 -59.34890627 24.18089123 -43 8.4375 C-41.57185687 7.07628527 -41.57185687 7.07628527 -40.6875 5.0625 C-38.72900391 4.48413086 -38.72900391 4.48413086 -36.1640625 4.02734375 C-34.75447266 3.77307617 -34.75447266 3.77307617 -33.31640625 3.51367188 C-32.32511719 3.34416016 -31.33382812 3.17464844 -30.3125 3 C-29.35988281 2.82662109 -28.40726562 2.65324219 -27.42578125 2.47460938 C-18.30794552 0.86449089 -9.26137997 -0.09169683 0 0 Z " fill="#FDB97D" transform="translate(256.6875,54.9375)"/>
<path d="M0 0 C-3.44203387 4.37611741 -6.96413732 7.86804672 -11.375 11.25 C-11.9844043 11.72107178 -12.59380859 12.19214355 -13.22167969 12.67749023 C-43.00144131 35.4155632 -82.34934874 55.89301303 -120.75 55.125 C-122.53664063 55.09792969 -122.53664063 55.09792969 -124.359375 55.0703125 C-125.66648437 55.03550781 -125.66648437 55.03550781 -127 55 C-122.7534807 51.51951947 -118.33554844 48.32119433 -113.875 45.125 C-99.84777172 35.01964088 -85.86701306 24.93065576 -72.515625 13.9375 C-71.91919189 13.45837158 -71.32275879 12.97924316 -70.70825195 12.4855957 C-68.96671107 11.04494564 -68.96671107 11.04494564 -67.56323242 9.31713867 C-64.27025333 5.70784551 -61.54676535 4.66751252 -56.63752747 4.36148071 C-53.78332286 4.27719513 -50.93486051 4.26333607 -48.07962036 4.29150391 C-44.26591731 4.3268231 -40.45386505 4.26552349 -36.640625 4.20703125 C-35.51824181 4.19248398 -35.51824181 4.19248398 -34.3731842 4.17764282 C-22.82935589 3.97708251 -11.2561522 -0.30422033 0 0 Z " fill="#FEA95C" transform="translate(403,412)"/>
</svg>
