<?xml version="1.0" encoding="UTF-8"?>
<svg version="1.1" xmlns="http://www.w3.org/2000/svg" width="512" height="512">
<path d="M0 0 C0.80824219 -0.06316406 1.61648437 -0.12632813 2.44921875 -0.19140625 C11.81157479 2.27371614 19.9029263 14.17720272 26.359375 20.91210938 C37.30205211 32.07139373 50.01908067 39.20265695 65.875 39.8125 C88.06397353 39.47933223 101.16803929 25.92618916 115.8125 11.0625 C117.57061526 9.27897845 119.33091704 7.49760872 121.09375 5.71875 C121.85751953 4.94337891 122.62128906 4.16800781 123.40820312 3.36914062 C126.29563104 0.62978594 128.2264575 0.33946717 132.125 0.1875 C133.40310547 0.11402344 133.40310547 0.11402344 134.70703125 0.0390625 C138.56680669 0.81448965 139.90906443 2.48965117 142.3125 5.5625 C143.32607783 8.28847571 144.08812326 10.75782807 144.75 13.5625 C145.16447569 15.16559467 145.57988034 16.76844937 145.99609375 18.37109375 C146.20862793 19.21269043 146.42116211 20.05428711 146.64013672 20.92138672 C147.80709208 25.50530941 149.05044945 30.06648806 150.3125 34.625 C150.53736084 35.48029297 150.76222168 36.33558594 150.99389648 37.21679688 C154.8033109 50.97949646 163.08368442 61.81091056 175.43359375 69.09375 C192.07363066 77.58310397 207.20578407 75.81503774 224.54296875 70.765625 C225.64737305 70.4459375 226.75177734 70.12625 227.88964844 69.796875 C230.09177605 69.15178792 232.28934081 68.49086658 234.48144531 67.8125 C240.57576218 66.00507458 245.08201861 65.05100508 251.3125 66.5625 C255.10011024 69.22188591 256.14396252 70.72119589 257.05615234 75.2746582 C257.49080829 79.54297955 256.70904578 82.98143072 255.4765625 87.10546875 C255.27775482 87.7957869 255.07894714 88.48610504 254.87411499 89.19734192 C254.24287027 91.38604896 253.59247427 93.56828654 252.9375 95.75 C247.70785316 113.24179247 244.9597433 128.4569903 252.9375 145.8125 C260.76911083 160.31548301 272.14533099 167.36596324 287.3125 172.5625 C292.11495854 173.91038134 296.95326873 175.06373774 301.8125 176.1875 C304.26224539 176.7551863 306.71025704 177.33041993 309.15625 177.9140625 C310.22037109 178.15979004 311.28449219 178.40551758 312.38085938 178.65869141 C316.96126432 180.07080492 319.63834868 181.55127302 322.3125 185.5625 C322.75390625 187.76171875 322.75390625 187.76171875 322.875 190.25 C322.93816406 191.05824219 323.00132812 191.86648437 323.06640625 192.69921875 C320.60128386 202.06157479 308.69779728 210.1529263 301.96289062 216.609375 C290.80360627 227.55205211 283.67234305 240.26908067 283.0625 256.125 C283.39566777 278.31397353 296.94881084 291.41803929 311.8125 306.0625 C313.59602155 307.82061526 315.37739128 309.58091704 317.15625 311.34375 C317.93162109 312.10751953 318.70699219 312.87128906 319.50585938 313.65820312 C322.24521406 316.54563104 322.53553283 318.4764575 322.6875 322.375 C322.73648438 323.22707031 322.78546875 324.07914062 322.8359375 324.95703125 C322.06051035 328.81680669 320.38534883 330.15906443 317.3125 332.5625 C314.58652429 333.57607783 312.11717193 334.33812326 309.3125 335 C307.70940533 335.41447569 306.10655063 335.82988034 304.50390625 336.24609375 C303.66230957 336.45862793 302.82071289 336.67116211 301.95361328 336.89013672 C297.36969059 338.05709208 292.80851194 339.30044945 288.25 340.5625 C287.39470703 340.78736084 286.53941406 341.01222168 285.65820312 341.24389648 C271.89550354 345.0533109 261.06408944 353.33368442 253.78125 365.68359375 C245.29189603 382.32363066 247.05996226 397.45578407 252.109375 414.79296875 C252.58890625 416.4495752 252.58890625 416.4495752 253.078125 418.13964844 C253.72321208 420.34177605 254.38413342 422.53934081 255.0625 424.73144531 C256.86992542 430.82576218 257.82399492 435.33201861 256.3125 441.5625 C253.65311409 445.35011024 252.15380411 446.39396252 247.6003418 447.30615234 C243.33202045 447.74080829 239.89356928 446.95904578 235.76953125 445.7265625 C235.0792131 445.52775482 234.38889496 445.32894714 233.67765808 445.12411499 C231.48895104 444.49287027 229.30671346 443.84247427 227.125 443.1875 C209.63320753 437.95785316 194.4180097 435.2097433 177.0625 443.1875 C162.55951699 451.01911083 155.50903676 462.39533099 150.3125 477.5625 C148.96461866 482.36495854 147.81126226 487.20326873 146.6875 492.0625 C146.1198137 494.51224539 145.54458007 496.96025704 144.9609375 499.40625 C144.71520996 500.47037109 144.46948242 501.53449219 144.21630859 502.63085938 C142.80419508 507.21126432 141.32372698 509.88834868 137.3125 512.5625 C135.11328125 513.00390625 135.11328125 513.00390625 132.625 513.125 C131.81675781 513.18816406 131.00851562 513.25132812 130.17578125 513.31640625 C120.81342521 510.85128386 112.7220737 498.94779728 106.265625 492.21289062 C95.32294789 481.05360627 82.60591933 473.92234305 66.75 473.3125 C44.56102647 473.64566777 31.45696071 487.19881084 16.8125 502.0625 C15.05438474 503.84602155 13.29408296 505.62739128 11.53125 507.40625 C10.76748047 508.18162109 10.00371094 508.95699219 9.21679688 509.75585938 C6.32936896 512.49521406 4.3985425 512.78553283 0.5 512.9375 C-0.35207031 512.98648438 -1.20414063 513.03546875 -2.08203125 513.0859375 C-5.94180669 512.31051035 -7.28406443 510.63534883 -9.6875 507.5625 C-10.70107783 504.83652429 -11.46312326 502.36717193 -12.125 499.5625 C-12.53947569 497.95940533 -12.95488034 496.35655063 -13.37109375 494.75390625 C-13.58362793 493.91230957 -13.79616211 493.07071289 -14.01513672 492.20361328 C-15.18209208 487.61969059 -16.42544945 483.05851194 -17.6875 478.5 C-17.91236084 477.64470703 -18.13722168 476.78941406 -18.36889648 475.90820312 C-22.1783109 462.14550354 -30.45868442 451.31408944 -42.80859375 444.03125 C-59.44863066 435.54189603 -74.58078407 437.30996226 -91.91796875 442.359375 C-93.5745752 442.83890625 -93.5745752 442.83890625 -95.26464844 443.328125 C-97.46677605 443.97321208 -99.66434081 444.63413342 -101.85644531 445.3125 C-107.95076218 447.11992542 -112.45701861 448.07399492 -118.6875 446.5625 C-122.47511024 443.90311409 -123.51896252 442.40380411 -124.43115234 437.8503418 C-124.86580829 433.58202045 -124.08404578 430.14356928 -122.8515625 426.01953125 C-122.65275482 425.3292131 -122.45394714 424.63889496 -122.24911499 423.92765808 C-121.61787027 421.73895104 -120.96747427 419.55671346 -120.3125 417.375 C-115.08285316 399.88320753 -112.3347433 384.6680097 -120.3125 367.3125 C-128.14411083 352.80951699 -139.52033099 345.75903676 -154.6875 340.5625 C-159.48995854 339.21461866 -164.32826873 338.06126226 -169.1875 336.9375 C-171.63724539 336.3698137 -174.08525704 335.79458007 -176.53125 335.2109375 C-177.59537109 334.96520996 -178.65949219 334.71948242 -179.75585938 334.46630859 C-184.33626432 333.05419508 -187.01334868 331.57372698 -189.6875 327.5625 C-190.12890625 325.36328125 -190.12890625 325.36328125 -190.25 322.875 C-190.34474609 321.66263672 -190.34474609 321.66263672 -190.44140625 320.42578125 C-187.97628386 311.06342521 -176.07279728 302.9720737 -169.33789062 296.515625 C-158.17860627 285.57294789 -151.04734305 272.85591933 -150.4375 257 C-150.77066777 234.81102647 -164.32381084 221.70696071 -179.1875 207.0625 C-180.97102155 205.30438474 -182.75239128 203.54408296 -184.53125 201.78125 C-185.69430664 200.6355957 -185.69430664 200.6355957 -186.88085938 199.46679688 C-189.62021406 196.57936896 -189.91053283 194.6485425 -190.0625 190.75 C-190.11148438 189.89792969 -190.16046875 189.04585937 -190.2109375 188.16796875 C-189.43551035 184.30819331 -187.76034883 182.96593557 -184.6875 180.5625 C-181.96152429 179.54892217 -179.49217193 178.78687674 -176.6875 178.125 C-175.08440533 177.71052431 -173.48155063 177.29511966 -171.87890625 176.87890625 C-171.03730957 176.66637207 -170.19571289 176.45383789 -169.32861328 176.23486328 C-164.74469059 175.06790792 -160.18351194 173.82455055 -155.625 172.5625 C-154.76970703 172.33763916 -153.91441406 172.11277832 -153.03320312 171.88110352 C-139.27050354 168.0716891 -128.43908944 159.79131558 -121.15625 147.44140625 C-112.66689603 130.80136934 -114.43496226 115.66921593 -119.484375 98.33203125 C-119.96390625 96.6754248 -119.96390625 96.6754248 -120.453125 94.98535156 C-121.09821208 92.78322395 -121.75913342 90.58565919 -122.4375 88.39355469 C-124.24492542 82.29923782 -125.19899492 77.79298139 -123.6875 71.5625 C-121.02811409 67.77488976 -119.52880411 66.73103748 -114.9753418 65.81884766 C-110.70702045 65.38419171 -107.26856928 66.16595422 -103.14453125 67.3984375 C-102.4542131 67.59724518 -101.76389496 67.79605286 -101.05265808 68.00088501 C-98.86395104 68.63212973 -96.68171346 69.28252573 -94.5 69.9375 C-77.00820753 75.16714684 -61.7930097 77.9152567 -44.4375 69.9375 C-29.93451699 62.10588917 -22.88403676 50.72966901 -17.6875 35.5625 C-16.33961866 30.76004146 -15.18626226 25.92173127 -14.0625 21.0625 C-13.4948137 18.61275461 -12.91958007 16.16474296 -12.3359375 13.71875 C-12.09020996 12.65462891 -11.84448242 11.59050781 -11.59130859 10.49414062 C-9.63788568 4.15791632 -6.92002875 0.33676749 0 0 Z " fill="#FEC344" transform="translate(189.6875,-0.5625)"/>
<path d="M0 0 C0.80824219 -0.06316406 1.61648437 -0.12632813 2.44921875 -0.19140625 C11.81157479 2.27371614 19.9029263 14.17720272 26.359375 20.91210938 C37.30205211 32.07139373 50.01908067 39.20265695 65.875 39.8125 C88.06397353 39.47933223 101.16803929 25.92618916 115.8125 11.0625 C117.57061526 9.27897845 119.33091704 7.49760872 121.09375 5.71875 C121.85751953 4.94337891 122.62128906 4.16800781 123.40820312 3.36914062 C126.29563104 0.62978594 128.2264575 0.33946717 132.125 0.1875 C133.40310547 0.11402344 133.40310547 0.11402344 134.70703125 0.0390625 C138.56680669 0.81448965 139.90906443 2.48965117 142.3125 5.5625 C143.32607783 8.28847571 144.08812326 10.75782807 144.75 13.5625 C145.16447569 15.16559467 145.57988034 16.76844937 145.99609375 18.37109375 C146.20862793 19.21269043 146.42116211 20.05428711 146.64013672 20.92138672 C147.80709208 25.50530941 149.05044945 30.06648806 150.3125 34.625 C150.53736084 35.48029297 150.76222168 36.33558594 150.99389648 37.21679688 C154.8033109 50.97949646 163.08368442 61.81091056 175.43359375 69.09375 C192.07363066 77.58310397 207.20578407 75.81503774 224.54296875 70.765625 C225.64737305 70.4459375 226.75177734 70.12625 227.88964844 69.796875 C230.09177605 69.15178792 232.28934081 68.49086658 234.48144531 67.8125 C240.57576218 66.00507458 245.08201861 65.05100508 251.3125 66.5625 C255.10011024 69.22188591 256.14396252 70.72119589 257.05615234 75.2746582 C257.49080829 79.54297955 256.70904578 82.98143072 255.4765625 87.10546875 C255.27775482 87.7957869 255.07894714 88.48610504 254.87411499 89.19734192 C254.24287027 91.38604896 253.59247427 93.56828654 252.9375 95.75 C247.70785316 113.24179247 244.9597433 128.4569903 252.9375 145.8125 C260.76911083 160.31548301 272.14533099 167.36596324 287.3125 172.5625 C292.11495854 173.91038134 296.95326873 175.06373774 301.8125 176.1875 C304.26224539 176.7551863 306.71025704 177.33041993 309.15625 177.9140625 C310.22037109 178.15979004 311.28449219 178.40551758 312.38085938 178.65869141 C316.96126432 180.07080492 319.63834868 181.55127302 322.3125 185.5625 C322.75390625 187.76171875 322.75390625 187.76171875 322.875 190.25 C322.93816406 191.05824219 323.00132812 191.86648437 323.06640625 192.69921875 C320.60128386 202.06157479 308.69779728 210.1529263 301.96289062 216.609375 C290.80360627 227.55205211 283.67234305 240.26908067 283.0625 256.125 C283.39566777 278.31397353 296.94881084 291.41803929 311.8125 306.0625 C313.59602155 307.82061526 315.37739128 309.58091704 317.15625 311.34375 C317.93162109 312.10751953 318.70699219 312.87128906 319.50585938 313.65820312 C322.24521406 316.54563104 322.53553283 318.4764575 322.6875 322.375 C322.73648438 323.22707031 322.78546875 324.07914062 322.8359375 324.95703125 C322.06051035 328.81680669 320.38534883 330.15906443 317.3125 332.5625 C314.58652429 333.57607783 312.11717193 334.33812326 309.3125 335 C307.70940533 335.41447569 306.10655063 335.82988034 304.50390625 336.24609375 C303.66230957 336.45862793 302.82071289 336.67116211 301.95361328 336.89013672 C297.36969059 338.05709208 292.80851194 339.30044945 288.25 340.5625 C287.39470703 340.78736084 286.53941406 341.01222168 285.65820312 341.24389648 C271.89550354 345.0533109 261.06408944 353.33368442 253.78125 365.68359375 C245.29189603 382.32363066 247.05996226 397.45578407 252.109375 414.79296875 C252.58890625 416.4495752 252.58890625 416.4495752 253.078125 418.13964844 C253.72321208 420.34177605 254.38413342 422.53934081 255.0625 424.73144531 C256.86992542 430.82576218 257.82399492 435.33201861 256.3125 441.5625 C253.65311409 445.35011024 252.15380411 446.39396252 247.6003418 447.30615234 C243.33202045 447.74080829 239.89356928 446.95904578 235.76953125 445.7265625 C235.0792131 445.52775482 234.38889496 445.32894714 233.67765808 445.12411499 C231.48895104 444.49287027 229.30671346 443.84247427 227.125 443.1875 C209.63320753 437.95785316 194.4180097 435.2097433 177.0625 443.1875 C162.55951699 451.01911083 155.50903676 462.39533099 150.3125 477.5625 C148.96461866 482.36495854 147.81126226 487.20326873 146.6875 492.0625 C146.1198137 494.51224539 145.54458007 496.96025704 144.9609375 499.40625 C144.71520996 500.47037109 144.46948242 501.53449219 144.21630859 502.63085938 C142.80419508 507.21126432 141.32372698 509.88834868 137.3125 512.5625 C135.11328125 513.00390625 135.11328125 513.00390625 132.625 513.125 C131.81675781 513.18816406 131.00851562 513.25132812 130.17578125 513.31640625 C120.81342521 510.85128386 112.7220737 498.94779728 106.265625 492.21289062 C95.32294789 481.05360627 82.60591933 473.92234305 66.75 473.3125 C44.56102647 473.64566777 31.45696071 487.19881084 16.8125 502.0625 C15.05438474 503.84602155 13.29408296 505.62739128 11.53125 507.40625 C10.76748047 508.18162109 10.00371094 508.95699219 9.21679688 509.75585938 C6.32936896 512.49521406 4.3985425 512.78553283 0.5 512.9375 C-0.35207031 512.98648438 -1.20414063 513.03546875 -2.08203125 513.0859375 C-5.94180669 512.31051035 -7.28406443 510.63534883 -9.6875 507.5625 C-10.70107783 504.83652429 -11.46312326 502.36717193 -12.125 499.5625 C-12.53947569 497.95940533 -12.95488034 496.35655063 -13.37109375 494.75390625 C-13.58362793 493.91230957 -13.79616211 493.07071289 -14.01513672 492.20361328 C-15.18209208 487.61969059 -16.42544945 483.05851194 -17.6875 478.5 C-17.91236084 477.64470703 -18.13722168 476.78941406 -18.36889648 475.90820312 C-22.1783109 462.14550354 -30.45868442 451.31408944 -42.80859375 444.03125 C-59.44863066 435.54189603 -74.58078407 437.30996226 -91.91796875 442.359375 C-93.5745752 442.83890625 -93.5745752 442.83890625 -95.26464844 443.328125 C-97.46677605 443.97321208 -99.66434081 444.63413342 -101.85644531 445.3125 C-107.95076218 447.11992542 -112.45701861 448.07399492 -118.6875 446.5625 C-122.47511024 443.90311409 -123.51896252 442.40380411 -124.43115234 437.8503418 C-124.86580829 433.58202045 -124.08404578 430.14356928 -122.8515625 426.01953125 C-122.65275482 425.3292131 -122.45394714 424.63889496 -122.24911499 423.92765808 C-121.61787027 421.73895104 -120.96747427 419.55671346 -120.3125 417.375 C-115.08285316 399.88320753 -112.3347433 384.6680097 -120.3125 367.3125 C-128.14411083 352.80951699 -139.52033099 345.75903676 -154.6875 340.5625 C-159.48995854 339.21461866 -164.32826873 338.06126226 -169.1875 336.9375 C-171.63724539 336.3698137 -174.08525704 335.79458007 -176.53125 335.2109375 C-177.59537109 334.96520996 -178.65949219 334.71948242 -179.75585938 334.46630859 C-184.33626432 333.05419508 -187.01334868 331.57372698 -189.6875 327.5625 C-190.12890625 325.36328125 -190.12890625 325.36328125 -190.25 322.875 C-190.34474609 321.66263672 -190.34474609 321.66263672 -190.44140625 320.42578125 C-187.97628386 311.06342521 -176.07279728 302.9720737 -169.33789062 296.515625 C-158.17860627 285.57294789 -151.04734305 272.85591933 -150.4375 257 C-150.77066777 234.81102647 -164.32381084 221.70696071 -179.1875 207.0625 C-180.97102155 205.30438474 -182.75239128 203.54408296 -184.53125 201.78125 C-185.69430664 200.6355957 -185.69430664 200.6355957 -186.88085938 199.46679688 C-189.62021406 196.57936896 -189.91053283 194.6485425 -190.0625 190.75 C-190.11148438 189.89792969 -190.16046875 189.04585937 -190.2109375 188.16796875 C-189.43551035 184.30819331 -187.76034883 182.96593557 -184.6875 180.5625 C-181.96152429 179.54892217 -179.49217193 178.78687674 -176.6875 178.125 C-175.08440533 177.71052431 -173.48155063 177.29511966 -171.87890625 176.87890625 C-171.03730957 176.66637207 -170.19571289 176.45383789 -169.32861328 176.23486328 C-164.74469059 175.06790792 -160.18351194 173.82455055 -155.625 172.5625 C-154.76970703 172.33763916 -153.91441406 172.11277832 -153.03320312 171.88110352 C-139.27050354 168.0716891 -128.43908944 159.79131558 -121.15625 147.44140625 C-112.66689603 130.80136934 -114.43496226 115.66921593 -119.484375 98.33203125 C-119.96390625 96.6754248 -119.96390625 96.6754248 -120.453125 94.98535156 C-121.09821208 92.78322395 -121.75913342 90.58565919 -122.4375 88.39355469 C-124.24492542 82.29923782 -125.19899492 77.79298139 -123.6875 71.5625 C-121.02811409 67.77488976 -119.52880411 66.73103748 -114.9753418 65.81884766 C-110.70702045 65.38419171 -107.26856928 66.16595422 -103.14453125 67.3984375 C-102.4542131 67.59724518 -101.76389496 67.79605286 -101.05265808 68.00088501 C-98.86395104 68.63212973 -96.68171346 69.28252573 -94.5 69.9375 C-77.00820753 75.16714684 -61.7930097 77.9152567 -44.4375 69.9375 C-29.93451699 62.10588917 -22.88403676 50.72966901 -17.6875 35.5625 C-16.33961866 30.76004146 -15.18626226 25.92173127 -14.0625 21.0625 C-13.4948137 18.61275461 -12.91958007 16.16474296 -12.3359375 13.71875 C-12.09020996 12.65462891 -11.84448242 11.59050781 -11.59130859 10.49414062 C-9.63788568 4.15791632 -6.92002875 0.33676749 0 0 Z M-47.14941406 125.18017578 C-48.67651299 126.55262564 -50.22273803 127.900417 -51.7734375 129.24609375 C-69.16605643 144.51888293 -82.11191556 163.57029157 -91.6875 184.5625 C-92.24179688 185.75617188 -92.79609375 186.94984375 -93.3671875 188.1796875 C-96.93034578 196.13918037 -99.4578415 204.14378941 -101.6875 212.5625 C-101.96464844 213.46226562 -102.24179688 214.36203125 -102.52734375 215.2890625 C-106.74774015 229.18907453 -107.10059997 243.95069744 -107.0625 258.375 C-107.06195618 259.1596463 -107.06141235 259.9442926 -107.06085205 260.75271606 C-107.0243862 272.24194028 -106.42061644 283.15351124 -103.3203125 294.28173828 C-102.64166349 296.72770244 -102.03903041 299.18634757 -101.4375 301.65234375 C-90.38775348 345.16526082 -61.49982584 382.35124536 -23.30712891 405.51660156 C-7.06907867 415.15987418 9.85893103 421.92213963 28.1875 426.375 C29.45207031 426.68546265 29.45207031 426.68546265 30.7421875 427.00219727 C71.2621244 436.40013185 118.24281267 428.4043124 153.71240234 407.12255859 C192.57216563 382.80487792 220.03997403 348.36822331 233.625 304.5 C233.85533936 303.77071289 234.08567871 303.04142578 234.32299805 302.29003906 C238.37125927 288.52149411 239.80274691 274.57504046 239.64868164 260.27539062 C239.62493052 257.93064122 239.62817899 255.58702858 239.63476562 253.2421875 C239.6107324 239.30519462 238.31438291 225.75836336 234.6875 212.25 C234.42952637 211.27998047 234.17155273 210.30996094 233.90576172 209.31054688 C231.23422899 199.67096329 227.61830041 190.58054197 223.3125 181.5625 C222.83707764 180.56597412 222.83707764 180.56597412 222.35205078 179.54931641 C202.89261082 139.55103779 167.30115373 107.77453356 125.28564453 93.24609375 C123.34988439 92.57545178 121.42304912 91.88297242 119.49609375 91.1875 C102.47754823 85.22479792 85.75644548 83.34450449 67.8125 83.375 C66.66883972 83.37690338 66.66883972 83.37690338 65.5020752 83.37884521 C24.26161217 83.51004614 -16.19415097 97.28137873 -47.14941406 125.18017578 Z " fill="#FFE076" transform="translate(189.6875,-0.5625)"/>
<path d="M0 0 C3.78761024 2.65938591 4.83146252 4.15869589 5.74365234 8.7121582 C6.17830829 12.98047955 5.39654578 16.41893072 4.1640625 20.54296875 C3.96525482 21.2332869 3.76644714 21.92360504 3.56161499 22.63484192 C2.93037027 24.82354896 2.27997427 27.00578654 1.625 29.1875 C-3.60464684 46.67929247 -6.3527567 61.8944903 1.625 79.25 C9.45661083 93.75298301 20.83283099 100.80346324 36 106 C40.80245854 107.34788134 45.64076873 108.50123774 50.5 109.625 C52.94974539 110.1926863 55.39775704 110.76791993 57.84375 111.3515625 C58.90787109 111.59729004 59.97199219 111.84301758 61.06835938 112.09619141 C65.64876432 113.50830492 68.32584868 114.98877302 71 119 C71.44140625 121.19921875 71.44140625 121.19921875 71.5625 123.6875 C71.65724609 124.89986328 71.65724609 124.89986328 71.75390625 126.13671875 C69.28878386 135.49907479 57.38529728 143.5904263 50.65039062 150.046875 C39.49110627 160.98955211 32.35984305 173.70658067 31.75 189.5625 C32.08316777 211.75147353 45.63631084 224.85553929 60.5 239.5 C62.28352155 241.25811526 64.06489128 243.01841704 65.84375 244.78125 C66.61912109 245.54501953 67.39449219 246.30878906 68.19335938 247.09570312 C70.93271406 249.98313104 71.22303283 251.9139575 71.375 255.8125 C71.42398437 256.66457031 71.47296875 257.51664062 71.5234375 258.39453125 C70.74801035 262.25430669 69.07284883 263.59656443 66 266 C63.27402429 267.01357783 60.80467193 267.77562326 58 268.4375 C56.39690533 268.85197569 54.79405063 269.26738034 53.19140625 269.68359375 C52.34980957 269.89612793 51.50821289 270.10866211 50.64111328 270.32763672 C46.05719059 271.49459208 41.49601194 272.73794945 36.9375 274 C36.08220703 274.22486084 35.22691406 274.44972168 34.34570312 274.68139648 C20.58300354 278.4908109 9.75158944 286.77118442 2.46875 299.12109375 C-6.02060397 315.76113066 -4.25253774 330.89328407 0.796875 348.23046875 C1.27640625 349.8870752 1.27640625 349.8870752 1.765625 351.57714844 C2.41071208 353.77927605 3.07163342 355.97684081 3.75 358.16894531 C5.55742542 364.26326218 6.51149492 368.76951861 5 375 C2.34061409 378.78761024 0.84130411 379.83146252 -3.7121582 380.74365234 C-7.98047955 381.17830829 -11.41893072 380.39654578 -15.54296875 379.1640625 C-16.2332869 378.96525482 -16.92360504 378.76644714 -17.63484192 378.56161499 C-19.82354896 377.93037027 -22.00578654 377.27997427 -24.1875 376.625 C-41.67929247 371.39535316 -56.8944903 368.6472433 -74.25 376.625 C-88.75298301 384.45661083 -95.80346324 395.83283099 -101 411 C-102.34788134 415.80245854 -103.50123774 420.64076873 -104.625 425.5 C-105.1926863 427.94974539 -105.76791993 430.39775704 -106.3515625 432.84375 C-106.59729004 433.90787109 -106.84301758 434.97199219 -107.09619141 436.06835938 C-108.50830492 440.64876432 -109.98877302 443.32584868 -114 446 C-116.19921875 446.44140625 -116.19921875 446.44140625 -118.6875 446.5625 C-119.49574219 446.62566406 -120.30398438 446.68882812 -121.13671875 446.75390625 C-130.49907479 444.28878386 -138.5904263 432.38529728 -145.046875 425.65039062 C-155.98955211 414.49110627 -168.70658067 407.35984305 -184.5625 406.75 C-206.75147353 407.08316777 -219.85553929 420.63631084 -234.5 435.5 C-236.25811526 437.28352155 -238.01841704 439.06489128 -239.78125 440.84375 C-240.54501953 441.61912109 -241.30878906 442.39449219 -242.09570312 443.19335938 C-244.98313104 445.93271406 -246.9139575 446.22303283 -250.8125 446.375 C-251.66457031 446.42398437 -252.51664062 446.47296875 -253.39453125 446.5234375 C-257.25430669 445.74801035 -258.59656443 444.07284883 -261 441 C-262.01357783 438.27402429 -262.77562326 435.80467193 -263.4375 433 C-263.85197569 431.39690533 -264.26738034 429.79405063 -264.68359375 428.19140625 C-265.00239502 426.92901123 -265.00239502 426.92901123 -265.32763672 425.64111328 C-266.49459208 421.05719059 -267.73794945 416.49601194 -269 411.9375 C-269.22486084 411.08220703 -269.44972168 410.22691406 -269.68139648 409.34570312 C-273.4908109 395.58300354 -281.77118442 384.75158944 -294.12109375 377.46875 C-310.76113066 368.97939603 -325.89328407 370.74746226 -343.23046875 375.796875 C-344.8870752 376.27640625 -344.8870752 376.27640625 -346.57714844 376.765625 C-348.77927605 377.41071208 -350.97684081 378.07163342 -353.16894531 378.75 C-359.26326218 380.55742542 -363.76951861 381.51149492 -370 380 C-373.78069869 377.34546688 -374.8300804 375.84519104 -375.74365234 371.30102539 C-376.17838987 367.03226774 -375.39506438 363.32234992 -374.1640625 359.24609375 C-373.86585098 358.18927147 -373.86585098 358.18927147 -373.56161499 357.11109924 C-372.93014701 354.88224979 -372.27869585 352.65992084 -371.625 350.4375 C-370.9821907 348.21062492 -370.34376382 345.9826007 -369.70980835 343.75318909 C-369.31620823 342.37349538 -368.91701476 340.99537991 -368.51113892 339.61924744 C-367.29386562 335.40760219 -366.52889266 331.33797061 -366 327 C-362.15536463 328.20328282 -358.51148855 329.62441971 -354.8527832 331.30908203 C-329.39981796 342.98273008 -300.14172282 351.31663352 -271.98828125 351.00390625 C-271.28877853 350.99690201 -270.58927582 350.98989777 -269.86857605 350.98268127 C-266.40624984 350.93902382 -262.95063927 350.85619922 -259.4909668 350.71411133 C-251.21908095 350.50838943 -244.92496309 351.64766879 -237.24169922 354.71728516 C-232.69189733 356.51760592 -228.07204708 357.65475287 -223.3125 358.75 C-222.46623047 358.95753906 -221.61996094 359.16507812 -220.74804688 359.37890625 C-180.22564137 368.91720975 -133.08155479 360.84893288 -97.60009766 339.56005859 C-59.09830407 315.46638837 -32.13258849 281.3538428 -18.6875 237.9375 C-18.45716064 237.20821289 -18.22682129 236.47892578 -17.98950195 235.72753906 C-13.94124073 221.95899411 -12.50975309 208.01254046 -12.66381836 193.71289062 C-12.68756948 191.36814122 -12.68432101 189.02452858 -12.67773438 186.6796875 C-12.70183865 172.43266761 -14.13196047 158.78429683 -17.9375 145 C-18.18951172 144.04222656 -18.44152344 143.08445313 -18.70117188 142.09765625 C-19.80722695 137.97328721 -20.94299861 134.05346397 -22.69140625 130.15625 C-24.89083523 124.49585987 -24.17640307 118.46509544 -24 112.5 C-23.57475666 78.77037538 -30.87720995 44.5733676 -46.30078125 14.390625 C-48 11 -48 11 -48 9 C-47.20722656 8.86464844 -46.41445313 8.72929688 -45.59765625 8.58984375 C-39.20302354 7.4098397 -32.96588201 6.03099082 -26.71875 4.20703125 C-25.62167725 3.88677979 -24.52460449 3.56652832 -23.39428711 3.23657227 C-21.20353658 2.58787124 -19.01664836 1.92595446 -16.83422852 1.24975586 C-10.73829412 -0.55582691 -6.23176463 -1.51180623 0 0 Z " fill="#FED15B" transform="translate(441,66)"/>
<path d="M0 0 C4.48313053 2.83886859 8.37807043 5.94082714 12.25 9.5625 C13.0996936 10.35684448 13.0996936 10.35684448 13.96655273 11.16723633 C39.09289918 34.91281976 55.69274302 65.39597253 63.8125 98.875 C64.01939453 99.71788574 64.22628906 100.56077148 64.43945312 101.42919922 C73.83926493 141.94808496 65.84118942 188.93135097 44.56005859 224.39990234 C20.24237792 263.25966563 -14.19427669 290.72747403 -58.0625 304.3125 C-58.79178711 304.54283936 -59.52107422 304.77317871 -60.27246094 305.01049805 C-74.04100589 309.05875927 -87.98745954 310.49024691 -102.28710938 310.33618164 C-104.63185878 310.31243052 -106.97547142 310.31567899 -109.3203125 310.32226562 C-123.2568215 310.29823324 -136.80485831 309.00315133 -150.3125 305.375 C-151.28469482 305.11557617 -152.25688965 304.85615234 -153.25854492 304.58886719 C-188.43545263 294.81638748 -220.74545522 272.88355811 -243 244 C-239.0925849 244 -237.57742247 245.36981219 -234.3125 247.5 C-216.50244608 258.79776238 -197.46023258 266.12809115 -177 271 C-176.2790918 271.18111328 -175.55818359 271.36222656 -174.81542969 271.54882812 C-164.31629251 274.07683006 -153.69469896 274.18653197 -142.94995117 274.18530273 C-140.83296259 274.18747896 -138.71650576 274.20567998 -136.59960938 274.22460938 C-123.21515597 274.2817025 -110.17020191 273.05725133 -97.25 269.375 C-96.32952881 269.11702637 -95.40905762 268.85905273 -94.46069336 268.59326172 C-48.04416003 255.13861888 -11.43082666 225.19471109 12 183 C31.01095327 147.7062514 36.85117628 104.14030584 28 65 C27.83902832 64.2373584 27.67805664 63.4747168 27.51220703 62.68896484 C23.15165854 42.40257066 14.54745588 21.96946515 2.234375 5.1796875 C0 2 0 2 0 0 Z " fill="#FEB237" transform="translate(362,119)"/>
</svg>
