<?xml version="1.0" encoding="UTF-8"?>
<svg version="1.1" xmlns="http://www.w3.org/2000/svg" width="512" height="512">
<path d="M0 0 C13.31706121 15.47658464 13.68836499 32.00828587 12.3125 51.6875 C10.92283395 64.02773455 7.38694789 75.99299321 3.3125 87.6875 C2.89484375 88.90953125 2.4771875 90.1315625 2.046875 91.390625 C-4.21007818 109.12786719 -12.60988305 126.14318224 -21.49609375 142.69140625 C-22.03919189 143.70485107 -22.03919189 143.70485107 -22.59326172 144.73876953 C-23.32048594 146.03388416 -24.0882796 147.30706344 -24.89501953 148.55419922 C-26.64545949 151.29568055 -27.69561549 153.16441995 -27.64453125 156.45703125 C-26.26556647 161.11174095 -24.84752429 165.74898238 -23.375 170.375 C-21.08894876 177.73766158 -18.96768142 185.07942353 -17.375 192.625 C-17.22828857 193.30715576 -17.08157715 193.98931152 -16.93041992 194.69213867 C-14.03719234 209.10091814 -13.27820481 223.34766835 -13.3125 238 C-13.31337616 238.91925262 -13.31425232 239.83850525 -13.31515503 240.78561401 C-13.48888337 296.28791102 -33.92220791 350.51989491 -72.2265625 391.07421875 C-74.35186034 393.33108265 -76.37474636 395.63318404 -78.375 398 C-81.83032285 401.96873167 -85.65538017 405.31819439 -89.6875 408.6875 C-90.5846875 409.4609375 -91.481875 410.234375 -92.40625 411.03125 C-139.95030289 451.56881088 -200.11922732 467.75803241 -261.84008789 463.54040527 C-280.58477416 461.99141732 -300.17570974 457.80480568 -317.46875 450.25390625 C-324.27750048 448.51575692 -329.95753124 452.81742517 -335.625 456.0625 C-367.12139176 473.6104897 -401.68509298 489.76967881 -438.375 489.9375 C-440.03692383 489.9684375 -440.03692383 489.9684375 -441.73242188 490 C-455.07906731 490.06240395 -466.2171349 487.13917895 -476.4375 478.3125 C-477.18 477.44625 -477.9225 476.58 -478.6875 475.6875 C-479.17863281 475.12546875 -479.66976563 474.5634375 -480.17578125 473.984375 C-490.39441218 461.50902408 -491.61442321 444.69487663 -490.21484375 429.1796875 C-486.32388923 393.52695737 -470.51271872 355.88324193 -450.734375 326.125 C-448.20864288 320.24419089 -452.15420833 312.79865802 -454 307 C-456.28605124 299.63733842 -458.40731858 292.29557647 -460 284.75 C-460.14671143 284.06784424 -460.29342285 283.38568848 -460.44458008 282.68286133 C-463.33780766 268.27408186 -464.09679519 254.02733165 -464.0625 239.375 C-464.06162384 238.45574738 -464.06074768 237.53649475 -464.05984497 236.58938599 C-463.88824147 181.76592857 -444.28181349 129.64009457 -407.6875 88.6875 C-407.2028125 88.14109863 -406.718125 87.59469727 -406.21875 87.03173828 C-368.95982364 45.20034603 -315.65118271 18.29218701 -259.6875 13.6875 C-252.92125285 13.31466187 -246.14971687 13.29732792 -239.375 13.3125 C-237.99761658 13.31331573 -237.99761658 13.31331573 -236.59240723 13.31414795 C-210.51455616 13.38484876 -184.03980555 16.58332549 -159.90625 27.12109375 C-154.63237161 28.46741834 -150.57711518 26.29676344 -146.13427734 23.70483398 C-145.42996582 23.28661377 -144.7256543 22.86839355 -144 22.4375 C-118.78464836 8.01622791 -92.09909635 -3.91845879 -63.6875 -10.3125 C-62.140625 -10.66248047 -62.140625 -10.66248047 -60.5625 -11.01953125 C-39.1780964 -15.33992674 -17.11254487 -14.72474791 0 0 Z M-132.6875 37.6875 C-131.31816485 41.79550544 -129.48125163 42.12034715 -125.6875 44.125 C-111.86243151 51.70637302 -99.47340823 61.26693666 -87.6875 71.6875 C-86.77097656 72.4815625 -85.85445313 73.275625 -84.91015625 74.09375 C-80.51398464 77.95444808 -76.40562515 81.87991639 -72.64453125 86.36328125 C-71.12810093 88.16423143 -69.58748516 89.92010124 -68.01171875 91.66796875 C-57.38783569 103.56917417 -48.61910982 116.69364914 -40.9921875 130.6953125 C-40.56164062 131.35273438 -40.13109375 132.01015625 -39.6875 132.6875 C-39.0275 132.6875 -38.3675 132.6875 -37.6875 132.6875 C-18.12254428 88.37740175 -18.12254428 88.37740175 -21.4296875 41.3828125 C-26.16335667 31.2392357 -32.75910567 24.81326194 -43.12890625 20.5 C-71.83899519 11.38290305 -107.21360473 24.59931578 -132.6875 37.6875 Z M-438.6875 343.6875 C-452.53246182 369.04108634 -465.12146902 402.9204664 -457.5 432 C-453.87405027 442.44412315 -448.09841706 450.07026667 -438.0625 454.96875 C-411.74376949 465.93488771 -381.18892976 454.88076502 -356.37255859 444.74169922 C-352.45124787 443.11450063 -348.55857334 441.43146478 -344.6875 439.6875 C-344.6875 439.0275 -344.6875 438.3675 -344.6875 437.6875 C-347.20261837 436.1041325 -349.71940815 434.63304721 -352.3125 433.1875 C-365.33122197 425.71215501 -376.86611386 417.03847848 -388.09619141 407.09521484 C-389.57093907 405.79061297 -391.05651208 404.4982761 -392.54296875 403.20703125 C-397.7036226 398.67096485 -402.28766276 393.95465628 -406.6875 388.6875 C-407.95400391 387.23537109 -407.95400391 387.23537109 -409.24609375 385.75390625 C-418.20176281 375.45276239 -425.7942179 364.48365572 -432.68212891 352.71142578 C-434.52847403 349.56047752 -436.41681077 346.5508534 -438.6875 343.6875 Z " fill="#3279AF" transform="translate(494.6875,17.3125)"/>
<path d="M0 0 C13.31706121 15.47658464 13.68836499 32.00828587 12.3125 51.6875 C10.92283395 64.02773455 7.38694789 75.99299321 3.3125 87.6875 C2.89484375 88.90953125 2.4771875 90.1315625 2.046875 91.390625 C-4.21007818 109.12786719 -12.60988305 126.14318224 -21.49609375 142.69140625 C-22.03919189 143.70485107 -22.03919189 143.70485107 -22.59326172 144.73876953 C-23.32048594 146.03388416 -24.0882796 147.30706344 -24.89501953 148.55419922 C-26.64545949 151.29568055 -27.69561549 153.16441995 -27.64453125 156.45703125 C-26.26556647 161.11174095 -24.84752429 165.74898238 -23.375 170.375 C-21.08894876 177.73766158 -18.96768142 185.07942353 -17.375 192.625 C-17.22828857 193.30715576 -17.08157715 193.98931152 -16.93041992 194.69213867 C-14.03719234 209.10091814 -13.27820481 223.34766835 -13.3125 238 C-13.31337616 238.91925262 -13.31425232 239.83850525 -13.31515503 240.78561401 C-13.48888337 296.28791102 -33.92220791 350.51989491 -72.2265625 391.07421875 C-74.35186034 393.33108265 -76.37474636 395.63318404 -78.375 398 C-81.83032285 401.96873167 -85.65538017 405.31819439 -89.6875 408.6875 C-90.5846875 409.4609375 -91.481875 410.234375 -92.40625 411.03125 C-139.95030289 451.56881088 -200.11922732 467.75803241 -261.84008789 463.54040527 C-280.58477416 461.99141732 -300.17570974 457.80480568 -317.46875 450.25390625 C-324.27750048 448.51575692 -329.95753124 452.81742517 -335.625 456.0625 C-367.12139176 473.6104897 -401.68509298 489.76967881 -438.375 489.9375 C-440.03692383 489.9684375 -440.03692383 489.9684375 -441.73242188 490 C-455.07906731 490.06240395 -466.2171349 487.13917895 -476.4375 478.3125 C-477.18 477.44625 -477.9225 476.58 -478.6875 475.6875 C-479.17863281 475.12546875 -479.66976563 474.5634375 -480.17578125 473.984375 C-490.39441218 461.50902408 -491.61442321 444.69487663 -490.21484375 429.1796875 C-486.32388923 393.52695737 -470.51271872 355.88324193 -450.734375 326.125 C-448.20862772 320.24415558 -452.15424748 312.79867109 -454 307 C-464.18176058 274.19733022 -464.18176058 274.19733022 -461.6875 265.6875 C-458.51845802 262.58923067 -454.37176276 261.09185186 -450.375 259.3125 C-425.27990112 247.77572157 -401.7294806 232.55356682 -379.59765625 216.10693359 C-377.8938082 214.84080724 -376.18182138 213.58565023 -374.46875 212.33203125 C-351.92946321 195.70021882 -331.02070601 177.06025313 -311.1875 157.3125 C-310.4459668 156.57563965 -309.70443359 155.8387793 -308.94042969 155.07958984 C-304.31818669 150.44375817 -299.94948716 145.65454413 -295.6875 140.6875 C-294.65364501 139.50797276 -293.61851981 138.32955746 -292.58203125 137.15234375 C-262.22838151 102.48751121 -235.98706733 64.1068192 -215.6875 22.6875 C-207.31465736 24.02257741 -200.97856637 33.16736513 -196.1875 39.625 C-183.78542666 56.94225087 -164.58771378 87.01080035 -165.86499023 108.70166016 C-166.81840634 112.16271061 -168.22455712 114.53579734 -170.23046875 117.51171875 C-170.59053009 118.05107056 -170.95059143 118.59042236 -171.32156372 119.14611816 C-172.49518376 120.89668943 -173.68419728 122.63608073 -174.875 124.375 C-175.69786232 125.59066313 -176.52036892 126.80656711 -177.3425293 128.02270508 C-187.64548335 143.20267609 -198.55195398 157.82117303 -210.25488281 171.95068359 C-212.31632132 174.44984405 -214.34166707 176.97795371 -216.375 179.5 C-220.14354698 184.10523356 -224.09538304 188.51623534 -228.1328125 192.88671875 C-230.13500703 195.08178523 -232.09789734 197.29738423 -234.046875 199.5390625 C-237.55573082 203.56114407 -241.15841391 207.48479028 -244.8125 211.375 C-245.45775635 212.06198975 -246.1030127 212.74897949 -246.76782227 213.45678711 C-254.67120082 221.83434903 -262.61664055 230.23643839 -271.41015625 237.69140625 C-274.00835127 239.96872641 -276.51518169 242.33049436 -279.02758789 244.70166016 C-285.70113955 250.99771297 -292.50991964 256.96665974 -299.6875 262.6875 C-300.86615952 263.65563633 -302.04313408 264.62582631 -303.21875 265.59765625 C-340.59703314 296.43760334 -381.76052633 323.31140702 -425.875 343.5 C-426.61153809 343.84401855 -427.34807617 344.18803711 -428.10693359 344.54248047 C-431.75859199 346.16284441 -433.88684239 347.00642438 -437.6875 345.6875 C-438.0175 345.3575 -438.3475 345.0275 -438.6875 344.6875 C-450.85253071 371.01623364 -465.85609317 404.9662885 -455.6875 434.34765625 C-451.29951126 444.61486427 -445.8222892 450.69009916 -435.5 455 C-406.14254413 466.2402537 -370.78376528 450.2659205 -344.07543945 438.52709961 C-312.39737759 424.30862563 -283.12968265 404.85258515 -255.6875 383.6875 C-254.18316406 382.54667969 -254.18316406 382.54667969 -252.6484375 381.3828125 C-235.96568415 368.70627505 -219.79428106 355.33410056 -204.3828125 341.13671875 C-202.20661147 339.15921433 -200.00996066 337.21628198 -197.79296875 335.28515625 C-185.93567785 324.9322106 -174.76237579 313.86470572 -163.625 302.75 C-163.03673431 302.16432251 -162.44846863 301.57864502 -161.84237671 300.97521973 C-156.11874692 295.27145429 -150.43506317 289.58641809 -145.1887207 283.43383789 C-142.65954285 280.49169947 -139.97418378 277.69675138 -137.3125 274.875 C-132.66110822 269.90431045 -128.2359995 264.82528808 -123.98046875 259.5078125 C-121.85262928 256.8906062 -119.66703197 254.34239876 -117.45092773 251.80053711 C-110.67057395 244.01390401 -104.39258199 235.90314792 -98.18212891 227.65820312 C-96.84878047 225.90015207 -95.49965996 224.15701855 -94.13671875 222.421875 C-70.21981114 191.88965252 -47.48601448 157.36500207 -33.5703125 120.99072266 C-32.95402859 119.38286249 -32.32826138 117.77861922 -31.6953125 116.17724609 C-22.72847489 93.44412161 -13.38689342 65.52836111 -22.43359375 41.3828125 C-26.98570244 31.59790597 -32.55631798 26.9889057 -41.9375 21.9375 C-70.07523756 12.55825415 -103.44216884 24.41236988 -128.859375 36.875 C-130.6875 37.6875 -130.6875 37.6875 -132.6875 37.6875 C-133.0175 38.3475 -133.3475 39.0075 -133.6875 39.6875 C-140.2875 36.7175 -146.8875 33.7475 -153.6875 30.6875 C-153.6875 29.6975 -153.6875 28.7075 -153.6875 27.6875 C-125.07793188 11.62447785 -95.88310558 -3.06686598 -63.6875 -10.3125 C-62.140625 -10.66248047 -62.140625 -10.66248047 -60.5625 -11.01953125 C-39.1780964 -15.33992674 -17.11254487 -14.72474791 0 0 Z " fill="#4792CB" transform="translate(494.6875,17.3125)"/>
<path d="M0 0 C6.71088123 10.06632185 9.25780436 24.13782621 11.8125 35.8125 C12.10411011 37.13266113 12.10411011 37.13266113 12.40161133 38.47949219 C15.5158309 53.42227056 16.41061535 68.0961438 16.375 83.3125 C16.37412384 84.23175262 16.37324768 85.15100525 16.37234497 86.09811401 C16.19861663 141.60041102 -4.23470791 195.83239491 -42.5390625 236.38671875 C-44.66436034 238.64358265 -46.68724636 240.94568404 -48.6875 243.3125 C-52.14282285 247.28123167 -55.96788017 250.63069439 -60 254 C-61.34578125 255.16015625 -61.34578125 255.16015625 -62.71875 256.34375 C-110.26280289 296.88131088 -170.43172732 313.07053241 -232.15258789 308.85290527 C-253.04062439 307.12679919 -273.49205406 301.52354229 -293 294 C-289.29105665 289.68988176 -284.60661131 287.24598341 -279.75 284.4375 C-270.53732924 279.00513226 -261.70204288 273.21155923 -253 267 C-252.28102539 266.48824219 -251.56205078 265.97648437 -250.82128906 265.44921875 C-235.10098552 254.23699358 -219.68054765 242.73010592 -204.77197266 230.45605469 C-203.20075905 229.16496651 -201.62237609 227.88261416 -200.04296875 226.6015625 C-189.66597814 218.1845013 -179.52264192 209.50236949 -169.6953125 200.44921875 C-167.52179741 198.47415503 -165.32776784 196.5339319 -163.11328125 194.60546875 C-149.81302533 182.99026393 -137.36546225 170.46986918 -124.875 158 C-124.14499786 157.27258606 -123.41499573 156.54517212 -122.66287231 155.79571533 C-120.54049634 153.6792672 -118.4219668 151.55904563 -116.3046875 149.4375 C-115.67287064 148.80766205 -115.04105377 148.1778241 -114.39009094 147.52890015 C-110.64057344 143.76015467 -107.07528358 139.87891063 -103.609375 135.8474884 C-100.87415296 132.70757943 -97.98916517 129.70928875 -95.125 126.6875 C-90.20506227 121.4605134 -85.54625318 116.14137138 -81.06640625 110.53125 C-78.99887218 107.99861847 -76.83886659 105.5926884 -74.625 103.1875 C-70.10346488 98.21929677 -65.98847794 92.99196423 -61.875 87.6875 C-59.51016025 84.63962751 -57.0966101 81.63514157 -54.66625977 78.6394043 C-37.3006981 57.18546705 -21.25570232 34.51649749 -7.10595703 10.82226562 C-4.8653925 7.1305275 -2.45925716 3.54880148 0 0 Z " fill="#275E87" transform="translate(465,172)"/>
<path d="M0 0 C2.84522265 0.01853485 5.69012295 0.020507 8.53540039 0.02026367 C10.36027299 0.02517094 12.18514341 0.03099576 14.01000977 0.0378418 C15.27405891 0.03951103 15.27405891 0.03951103 16.56364441 0.04121399 C20.54607247 0.07342198 24.23621943 0.22015498 28.12329102 1.20581055 C27.79329102 3.84581055 27.46329102 6.48581055 27.12329102 9.20581055 C26.46329102 9.20581055 25.80329102 9.20581055 25.12329102 9.20581055 C24.88352539 10.01791992 24.64375977 10.8300293 24.39672852 11.66674805 C22.85909829 15.9400394 20.87758999 19.82656854 18.74829102 23.83081055 C18.30839844 24.65983887 17.86850586 25.48886719 17.4152832 26.34301758 C1.97554771 55.11805371 -16.58789796 82.3457185 -37.43676758 107.46166992 C-39.46425296 109.91747792 -41.44676595 112.40903923 -43.43920898 114.89331055 C-47.2694604 119.57708023 -51.31576962 124.02936275 -55.453125 128.44091797 C-58.05325226 131.2140027 -60.58659315 134.02214476 -63.06030273 136.90893555 C-67.28140528 141.756608 -71.81183351 146.29133251 -76.36474609 150.82421875 C-77.81195284 152.26606276 -79.25372924 153.7131817 -80.69506836 155.16088867 C-85.91931668 160.38927896 -91.25022225 165.41337654 -96.87670898 170.20581055 C-98.06840598 171.25087201 -99.25853099 172.29772895 -100.44702148 173.34643555 C-108.70986424 180.59080813 -117.12174906 187.56411681 -125.87670898 194.20581055 C-126.57747559 194.73787109 -127.27824219 195.26993164 -128.00024414 195.81811523 C-156.03533972 217.00181728 -186.00922027 236.14656622 -217.89379883 251.03222656 C-220.18082712 252.19234725 -220.18082712 252.19234725 -221.87670898 255.20581055 C-222.6254013 249.1401594 -223.05609235 243.19753853 -223.11499023 237.08862305 C-223.12482941 236.24217728 -223.13466858 235.39573151 -223.14480591 234.52363586 C-223.69244934 175.11586002 -206.98300136 120.08865094 -166.87670898 75.20581055 C-166.14967773 74.3862085 -166.14967773 74.3862085 -165.40795898 73.55004883 C-123.55552671 26.56142939 -62.83193409 -0.4241307 0 0 Z " fill="#3279AF" transform="translate(253.876708984375,30.794189453125)"/>
<path d="M0 0 C13.31706121 15.47658464 13.68836499 32.00828587 12.3125 51.6875 C10.92283395 64.02773455 7.38694789 75.99299321 3.3125 87.6875 C2.89484375 88.90953125 2.4771875 90.1315625 2.046875 91.390625 C-3.61544547 107.4421994 -11.06322015 122.93009904 -18.9375 138 C-19.50065918 139.08148315 -19.50065918 139.08148315 -20.07519531 140.18481445 C-23.29469482 146.2245119 -26.97772369 151.94017595 -30.6875 157.6875 C-31.84415071 159.50803386 -32.99911482 161.32964042 -34.15234375 163.15234375 C-46.97720282 183.37560024 -46.97720282 183.37560024 -52.6875 191.6875 C-53.09581055 192.28208008 -53.50412109 192.87666016 -53.92480469 193.48925781 C-62.45136515 205.85616629 -71.5028695 217.80421751 -80.6875 229.6875 C-81.21794922 230.37537598 -81.74839844 231.06325195 -82.29492188 231.77197266 C-88.04182992 239.21128025 -93.96871763 246.4652133 -100.078125 253.609375 C-102.46222092 256.40416189 -104.76555515 259.25801045 -107.0625 262.125 C-111.13841102 267.13925024 -115.47602794 271.86792287 -119.90771484 276.56616211 C-122.65126182 279.47664449 -125.34099913 282.41762785 -127.96020508 285.44091797 C-138.74816294 297.79704949 -150.29532172 309.45911965 -161.90600586 321.03637695 C-164.1514158 323.27635186 -166.39132839 325.52172696 -168.63085938 327.76757812 C-170.08561646 329.22167542 -171.54068318 330.67546303 -172.99609375 332.12890625 C-173.65145615 332.78629288 -174.30681854 333.4436795 -174.98204041 334.12098694 C-178.81286671 337.93269713 -182.74979368 341.56501018 -186.84893799 345.08705139 C-189.9866388 347.81838646 -192.98127991 350.70124342 -196 353.5625 C-201.2269866 358.48243773 -206.54612862 363.14124682 -212.15625 367.62109375 C-214.68888153 369.68862782 -217.0948116 371.84863341 -219.5 374.0625 C-224.46820323 378.58403512 -229.69553577 382.69902206 -235 386.8125 C-238.04810258 389.17751828 -241.05277895 391.59130154 -244.04882812 394.02172852 C-264.88711725 410.89015641 -286.92100163 426.32465314 -309.69873047 440.44775391 C-312.25496387 442.0412419 -314.78356014 443.67612715 -317.3125 445.3125 C-352.95128587 467.90738109 -395.30208147 489.74048265 -438.375 489.9375 C-440.03692383 489.9684375 -440.03692383 489.9684375 -441.73242188 490 C-455.07906731 490.06240395 -466.2171349 487.13917895 -476.4375 478.3125 C-477.18 477.44625 -477.9225 476.58 -478.6875 475.6875 C-479.17863281 475.12546875 -479.66976563 474.5634375 -480.17578125 473.984375 C-490.39441218 461.50902408 -491.61442321 444.69487663 -490.21484375 429.1796875 C-486.05465852 391.0600023 -468.09818128 354.27964679 -448.6875 321.6875 C-445.82208825 325.17198218 -443.8731491 329.01595785 -441.9375 333.0625 C-441.44443359 334.03316406 -441.44443359 334.03316406 -440.94140625 335.0234375 C-438.8269664 339.44859433 -438.24024681 342.01088577 -439.6875 346.6875 C-441.15475077 350.43867163 -442.76087858 354.12262019 -444.375 357.8125 C-454.16616369 380.86336762 -464.33183816 409.37050608 -455.6875 434.34765625 C-451.29951126 444.61486427 -445.8222892 450.69009916 -435.5 455 C-406.14254413 466.2402537 -370.78376528 450.2659205 -344.07543945 438.52709961 C-312.39737759 424.30862563 -283.12968265 404.85258515 -255.6875 383.6875 C-254.18316406 382.54667969 -254.18316406 382.54667969 -252.6484375 381.3828125 C-235.96568415 368.70627505 -219.79428106 355.33410056 -204.3828125 341.13671875 C-202.20661147 339.15921433 -200.00996066 337.21628198 -197.79296875 335.28515625 C-185.93567785 324.9322106 -174.76237579 313.86470572 -163.625 302.75 C-163.03673431 302.16432251 -162.44846863 301.57864502 -161.84237671 300.97521973 C-156.11874692 295.27145429 -150.43506317 289.58641809 -145.1887207 283.43383789 C-142.65954285 280.49169947 -139.97418378 277.69675138 -137.3125 274.875 C-132.66110822 269.90431045 -128.2359995 264.82528808 -123.98046875 259.5078125 C-121.85262928 256.8906062 -119.66703197 254.34239876 -117.45092773 251.80053711 C-110.67057395 244.01390401 -104.39258199 235.90314792 -98.18212891 227.65820312 C-96.84878047 225.90015207 -95.49965996 224.15701855 -94.13671875 222.421875 C-70.21981114 191.88965252 -47.48601448 157.36500207 -33.5703125 120.99072266 C-32.95402859 119.38286249 -32.32826138 117.77861922 -31.6953125 116.17724609 C-22.72847489 93.44412161 -13.38689342 65.52836111 -22.43359375 41.3828125 C-26.98570244 31.59790597 -32.55631798 26.9889057 -41.9375 21.9375 C-70.07523756 12.55825415 -103.44216884 24.41236988 -128.859375 36.875 C-130.6875 37.6875 -130.6875 37.6875 -132.6875 37.6875 C-133.0175 38.3475 -133.3475 39.0075 -133.6875 39.6875 C-140.2875 36.7175 -146.8875 33.7475 -153.6875 30.6875 C-153.6875 29.6975 -153.6875 28.7075 -153.6875 27.6875 C-125.07793188 11.62447785 -95.88310558 -3.06686598 -63.6875 -10.3125 C-62.140625 -10.66248047 -62.140625 -10.66248047 -60.5625 -11.01953125 C-39.1780964 -15.33992674 -17.11254487 -14.72474791 0 0 Z " fill="#9BD2FB" transform="translate(494.6875,17.3125)"/>
<path d="M0 0 C6.26384457 9.39576685 8.8503979 22.61038896 11.5625 33.5 C11.83296143 34.52988037 11.83296143 34.52988037 12.10888672 35.58056641 C13.09953936 39.80432019 13.04856236 42.18689426 11 46 C10.44828125 47.06089844 9.8965625 48.12179688 9.328125 49.21484375 C-8.46346227 81.425642 -30.12502957 111.95893093 -53.58056641 140.28076172 C-55.57220029 142.69305718 -57.53318419 145.12995367 -59.5 147.5625 C-75.54306661 167.09951941 -92.60899423 186.81152031 -111.921875 203.203125 C-114.08108176 205.07010829 -116.17592009 206.99934665 -118.26757812 208.94140625 C-124.31538067 214.55340002 -130.56766 219.82981974 -137 225 C-138.68799565 226.3952339 -140.37548348 227.79108236 -142.0625 229.1875 C-154.43937275 239.30762102 -167.16071939 249.02064499 -180.01220703 258.52880859 C-181.3145719 259.49270575 -182.61510111 260.45908924 -183.91357422 261.42822266 C-195.953286 270.39773164 -208.40019304 278.76607975 -220.94458008 287.0090332 C-222.36805786 287.94473818 -223.79148004 288.88052776 -225.21484375 289.81640625 C-225.90288589 290.26852982 -226.59092804 290.72065338 -227.29981995 291.18647766 C-231.07399154 293.68041142 -234.7590368 296.24868849 -238.37890625 298.96484375 C-247.71722327 305.88230582 -247.71722327 305.88230582 -253.63671875 306.1875 C-256.87055145 305.63764534 -259.80862017 304.85886602 -262.88964844 303.74267578 C-265.27078487 302.90470528 -267.67200642 302.21203683 -270.1015625 301.52734375 C-277.86068535 299.32004975 -285.47215167 296.90396905 -293 294 C-289.29105665 289.68988176 -284.60661131 287.24598341 -279.75 284.4375 C-270.53732924 279.00513226 -261.70204288 273.21155923 -253 267 C-252.28102539 266.48824219 -251.56205078 265.97648437 -250.82128906 265.44921875 C-235.10098552 254.23699358 -219.68054765 242.73010592 -204.77197266 230.45605469 C-203.20075905 229.16496651 -201.62237609 227.88261416 -200.04296875 226.6015625 C-189.66597814 218.1845013 -179.52264192 209.50236949 -169.6953125 200.44921875 C-167.52179741 198.47415503 -165.32776784 196.5339319 -163.11328125 194.60546875 C-149.81302533 182.99026393 -137.36546225 170.46986918 -124.875 158 C-124.14499786 157.27258606 -123.41499573 156.54517212 -122.66287231 155.79571533 C-120.54049634 153.6792672 -118.4219668 151.55904563 -116.3046875 149.4375 C-115.67287064 148.80766205 -115.04105377 148.1778241 -114.39009094 147.52890015 C-110.64057344 143.76015467 -107.07528358 139.87891063 -103.609375 135.8474884 C-100.87415296 132.70757943 -97.98916517 129.70928875 -95.125 126.6875 C-90.20506227 121.4605134 -85.54625318 116.14137138 -81.06640625 110.53125 C-78.99887218 107.99861847 -76.83886659 105.5926884 -74.625 103.1875 C-70.10346488 98.21929677 -65.98847794 92.99196423 -61.875 87.6875 C-59.51016025 84.63962751 -57.0966101 81.63514157 -54.66625977 78.6394043 C-37.3006981 57.18546705 -21.25570232 34.51649749 -7.10595703 10.82226562 C-4.8653925 7.1305275 -2.45925716 3.54880148 0 0 Z " fill="#3279AF" transform="translate(465,172)"/>
<path d="M0 0 C15.50389946 1.92720086 33.43123889 20.19425471 44.453125 30.60546875 C46.52265535 32.55120818 48.6186913 34.38682958 50.8125 36.1875 C54.63593012 39.43467151 57.7714689 43.17359277 61 47 C62.58759435 48.85394109 64.1782799 50.70520826 65.76879883 52.55664062 C68.18282265 55.36799829 70.59138062 58.18401149 73 61 C72.69054443 61.4839624 72.38108887 61.9679248 72.06225586 62.46655273 C69.03957186 67.24093467 66.2562536 72.09720767 63.5625 77.0625 C46.19735963 108.59515862 25.78701398 138.3771022 4 167 C3.56977539 167.5667041 3.13955078 168.1334082 2.69628906 168.71728516 C-2.31358295 175.3091191 -7.41393124 181.82857861 -12.5625 188.3125 C-13.08779297 188.97773682 -13.61308594 189.64297363 -14.15429688 190.32836914 C-15.4125607 191.90474039 -16.70310077 193.45525842 -18 195 C-18.33 195 -18.66 195 -19 195 C-19.0093457 194.14398193 -19.01869141 193.28796387 -19.02832031 192.40600586 C-19.50884489 156.79301015 -23.18241394 122.33149726 -30.1953125 87.40234375 C-30.34730606 86.63849365 -30.49929962 85.87464355 -30.65589905 85.08764648 C-31.30842518 81.9139936 -32.01122702 78.96884859 -33.11279297 75.91235352 C-34.51863799 71.29751441 -34.6749326 67.59549198 -32.78173828 63.12011719 C-31.93458252 61.7226123 -31.93458252 61.7226123 -31.0703125 60.296875 C-30.44463379 59.24395264 -29.81895508 58.19103027 -29.17431641 57.10620117 C-28.49804199 55.99865479 -27.82176758 54.8911084 -27.125 53.75 C-26.08135705 51.99708424 -25.04426482 50.24040714 -24.00765991 48.48332214 C-23.31554527 47.31037863 -22.62188171 46.13834768 -21.92666626 44.96723938 C-13.35294975 30.50997434 -6.37760721 15.53812789 0 0 Z " fill="#275E87" transform="translate(364,59)"/>
<path d="M0 0 C0.33 0 0.66 0 1 0 C7.24217711 42.29967304 7.24217711 42.29967304 -2.50244141 56.93408203 C-11.27505639 68.30382274 -22.57285308 77.53437405 -33.86213684 86.30075073 C-39.78859244 91.01130729 -45.30954703 96.18359492 -50.8125 101.375 C-55.85910944 106.10196376 -61.03334148 110.57509143 -66.43359375 114.8984375 C-68.97559363 116.98001427 -71.39529335 119.1503838 -73.8125 121.375 C-79.38657653 126.44635127 -85.28675322 131.05016976 -91.25048828 135.64892578 C-92.88945166 136.91462817 -94.52181353 138.18830683 -96.15234375 139.46484375 C-123.11691769 160.44484643 -151.66274341 179.29284936 -181.75 195.5 C-182.61302734 195.97526123 -183.47605469 196.45052246 -184.36523438 196.94018555 C-185.16767578 197.36211182 -185.97011719 197.78403809 -186.796875 198.21875 C-187.83859863 198.7746582 -187.83859863 198.7746582 -188.90136719 199.34179688 C-192.33557698 200.41888268 -194.90242624 199.53897202 -198.0612793 197.98779297 C-198.72554932 197.57674316 -199.38981934 197.16569336 -200.07421875 196.7421875 C-201.19304443 196.05539917 -201.19304443 196.05539917 -202.33447266 195.35473633 C-203.11097168 194.86642334 -203.8874707 194.37811035 -204.6875 193.875 C-205.88318604 193.13382935 -205.88318604 193.13382935 -207.10302734 192.37768555 C-212.87490581 188.77451676 -218.51895326 185.03504195 -224 181 C-221.78291216 178.57236793 -219.60882511 177.09641358 -216.703125 175.57421875 C-215.83921143 175.11515137 -214.97529785 174.65608398 -214.08520508 174.18310547 C-213.1495874 173.68955566 -212.21396973 173.19600586 -211.25 172.6875 C-170.53542598 150.79232998 -132.3164533 123.76586939 -96.68701172 94.38720703 C-95.16356841 93.1345001 -93.63113365 91.8927474 -92.09765625 90.65234375 C-72.81391685 75.04978809 -54.98506222 58.06956521 -37.4375 40.5625 C-36.4465181 39.57553635 -36.4465181 39.57553635 -35.43551636 38.56863403 C-28.73752982 31.89124357 -22.09718271 25.23907766 -16 18 C-14.50429773 16.32947538 -13.00495734 14.66219168 -11.5 13 C-8.04684661 9.18024471 -4.65589485 5.3145435 -1.3125 1.3984375 C-0.879375 0.93695313 -0.44625 0.47546875 0 0 Z " fill="#4893CC" transform="translate(344,256)"/>
<path d="M0 0 C1.43916467 2.87832934 0.68944692 4.7848854 0.14453125 7.94140625 C-0.16762329 9.76393921 -0.16762329 9.76393921 -0.48608398 11.62329102 C-0.71915567 12.9364911 -0.9529764 14.24955843 -1.1875 15.5625 C-1.30392853 16.22337616 -1.42035706 16.88425232 -1.54031372 17.56515503 C-3.21879159 27.07749299 -4.94857096 36.5559987 -7.44775391 45.89111328 C-7.84845536 47.42128974 -8.22824717 48.95699038 -8.59521484 50.49560547 C-11.38387632 62.15825505 -13.70705049 70.00453237 -24 77 C-25.20704891 77.90452615 -26.40853479 78.81650589 -27.60546875 79.734375 C-30.29610349 81.79189933 -33.00396391 83.8222782 -35.73046875 85.83203125 C-39.27489427 88.45041377 -42.77638892 91.11963147 -46.26538086 93.8112793 C-62.37390917 106.22869708 -78.9490781 117.84140425 -95.94482422 129.00927734 C-97.36821893 129.94490352 -98.7915597 130.88061176 -100.21484375 131.81640625 C-100.90288086 132.26852478 -101.59091797 132.72064331 -102.29980469 133.1864624 C-106.07397754 135.6804067 -109.75903121 138.2486843 -113.37890625 140.96484375 C-122.71722327 147.88230582 -122.71722327 147.88230582 -128.63671875 148.1875 C-131.87055145 147.63764534 -134.80862017 146.85886602 -137.88964844 145.74267578 C-140.27078487 144.90470528 -142.67200642 144.21203683 -145.1015625 143.52734375 C-152.86068535 141.32004975 -160.47215167 138.90396905 -168 136 C-164.29105665 131.68988176 -159.60661131 129.24598341 -154.75 126.4375 C-145.53732924 121.00513226 -136.70204288 115.21155923 -128 109 C-127.28102539 108.48824219 -126.56205078 107.97648437 -125.82128906 107.44921875 C-110.10098552 96.23699358 -94.68054765 84.73010592 -79.77197266 72.45605469 C-78.20075905 71.16496651 -76.62237609 69.88261416 -75.04296875 68.6015625 C-64.66597814 60.1845013 -54.52264192 51.50236949 -44.6953125 42.44921875 C-42.54326461 40.49366219 -40.37024887 38.57513242 -38.17578125 36.66796875 C-34.05592616 33.07202866 -30.04272377 29.37443808 -26.0625 25.625 C-24.98464233 24.61083008 -24.98464233 24.61083008 -23.88500977 23.57617188 C-15.75641578 15.88550864 -7.86354891 7.9602258 0 0 Z " fill="#4893CC" transform="translate(340,330)"/>
<path d="M0 0 C1 3 1 3 0.1706543 5.12207031 C-0.27366943 5.93256836 -0.71799316 6.74306641 -1.17578125 7.578125 C-1.66884766 8.4841748 -2.16191406 9.39022461 -2.66992188 10.32373047 C-3.21197266 11.28939941 -3.75402344 12.25506836 -4.3125 13.25 C-4.86357422 14.24273926 -5.41464844 15.23547852 -5.98242188 16.25830078 C-10.59296478 24.46767289 -15.5098172 32.35377021 -21 40 C-21.68763428 40.96147949 -21.68763428 40.96147949 -22.38916016 41.94238281 C-29.71744328 52.11518057 -37.64178291 61.66207494 -46 71 C-46.45165527 71.50950195 -46.90331055 72.01900391 -47.36865234 72.54394531 C-53.26040072 79.18184897 -59.42744686 85.52395507 -65.6875 91.8125 C-66.38842773 92.51810059 -67.08935547 93.22370117 -67.81152344 93.95068359 C-87.62227526 113.70083782 -110.44053682 130.66675678 -135 144 C-135.97332275 144.52907959 -135.97332275 144.52907959 -136.96630859 145.06884766 C-143.9730285 148.83535761 -143.9730285 148.83535761 -147 150 C-147.66 149.67 -148.32 149.34 -149 149 C-139.98903777 123.04277881 -128.90260911 99.77786699 -112 78 C-111.27296875 77.05898437 -110.5459375 76.11796875 -109.796875 75.1484375 C-81.84753349 40.0564865 -43.36766279 12.49734799 0 0 Z " fill="#4792CB" transform="translate(189,40)"/>
<path d="M0 0 C1 2 1 2 0.32250977 4.26806641 C-0.23738647 5.67064697 -0.23738647 5.67064697 -0.80859375 7.1015625 C-1.22189941 8.14159424 -1.63520508 9.18162598 -2.06103516 10.25317383 C-2.51526855 11.36587646 -2.96950195 12.4785791 -3.4375 13.625 C-3.89688965 14.75768311 -4.3562793 15.89036621 -4.82958984 17.05737305 C-14.38209391 40.32276986 -27.18964254 66.59482127 -50.8046875 78.40234375 C-68.62103062 85.83022567 -90.54688447 82.49901062 -109 79 C-105.54170703 75.10270092 -101.56634748 72.78807992 -97.125 70.1875 C-86.09830874 63.58782276 -75.54686399 56.33470187 -65 49 C-64.23268555 48.46729492 -63.46537109 47.93458984 -62.67480469 47.38574219 C-46.42062467 36.07690553 -30.46861404 24.36317259 -15 12 C-13.56140625 10.85337891 -13.56140625 10.85337891 -12.09375 9.68359375 C-9.72604236 7.79290956 -7.36229277 5.89744088 -5 4 C-3.33356202 2.66638086 -1.66695244 1.33297603 0 0 Z " fill="#3279AE" transform="translate(324,399)"/>
<path d="M0 0 C2.5625718 -0.02710123 5.12485365 -0.04688771 7.6875 -0.0625 C8.40873047 -0.07087891 9.12996094 -0.07925781 9.87304688 -0.08789062 C13.71555382 -0.10543632 17.26639526 0.06475779 21 1 C20.25 5.75 20.25 5.75 18 8 C17.3709375 7.66226563 16.741875 7.32453125 16.09375 6.9765625 C10.75466652 4.19444972 5.90038308 2.20192989 0 1 C0 0.67 0 0.34 0 0 Z " fill="#28618C" transform="translate(261,31)"/>
</svg>
