<?xml version="1.0" encoding="UTF-8"?>
<svg version="1.1" xmlns="http://www.w3.org/2000/svg" width="512" height="512">
<path d="M0 0 C0.90045044 -0.00705963 1.80090088 -0.01411926 2.7286377 -0.02139282 C40.56271231 -0.2507174 40.56271231 -0.2507174 57.20703125 3.203125 C58.69759033 3.50911621 58.69759033 3.50911621 60.21826172 3.82128906 C116.92522511 15.81380371 171.93488599 46.2140709 207.20703125 93.203125 C207.94300537 94.18104004 207.94300537 94.18104004 208.69384766 95.17871094 C216.17006772 105.16645615 223.11651041 115.31319857 229.20703125 126.203125 C229.60486816 126.90453613 230.00270508 127.60594727 230.41259766 128.32861328 C248.66086947 160.73122155 260.21390279 198.63338691 260.41015625 235.99609375 C260.41721588 236.89654419 260.42427551 237.79699463 260.43154907 238.72473145 C260.66087365 276.55880606 260.66087365 276.55880606 257.20703125 293.203125 C256.90104004 294.69368408 256.90104004 294.69368408 256.58886719 296.21435547 C242.51250897 362.77483535 204.09457829 420.03311569 147.23681641 457.50146484 C142.97655694 460.21784308 138.61596235 462.73729689 134.20703125 465.203125 C133.50562012 465.60096191 132.80420898 465.99879883 132.08154297 466.40869141 C99.6789347 484.65696322 61.77676934 496.20999654 24.4140625 496.40625 C23.06338684 496.41683945 23.06338684 496.41683945 21.6854248 496.42764282 C-16.14864981 496.6569674 -16.14864981 496.6569674 -32.79296875 493.203125 C-34.28352783 492.89713379 -34.28352783 492.89713379 -35.80419922 492.58496094 C-102.29810922 478.52268106 -159.75561962 440.10251905 -197.10742188 383.20068359 C-199.80859884 378.94578085 -202.3224062 374.59485547 -204.79296875 370.203125 C-205.15310059 369.57712402 -205.51323242 368.95112305 -205.88427734 368.30615234 C-224.38936501 335.98545493 -235.69710889 297.67901619 -236.03125 260.33203125 C-236.04104385 259.42023102 -236.05083771 258.50843079 -236.06092834 257.56900024 C-236.23260511 237.44104818 -236.06932869 217.96420382 -231.79296875 198.203125 C-231.57866211 197.18605469 -231.36435547 196.16898438 -231.14355469 195.12109375 C-222.96279434 157.25381879 -206.04522667 122.38317423 -181.79296875 92.203125 C-181.32068848 91.61515137 -180.8484082 91.02717773 -180.36181641 90.42138672 C-169.28155041 76.78092213 -156.86582205 63.76685597 -142.79296875 53.203125 C-142.14102539 52.71247559 -141.48908203 52.22182617 -140.81738281 51.71630859 C-130.82707934 44.23817357 -120.66915508 37.32151018 -109.79296875 31.203125 C-109.16696777 30.84299316 -108.5409668 30.48286133 -107.89599609 30.11181641 C-75.65552438 11.65266164 -37.27934428 0.19581559 0 0 Z " fill="#FDAA25" transform="translate(243.79296875,7.796875)"/>
<path d="M0 0 C0.90045044 -0.00705963 1.80090088 -0.01411926 2.7286377 -0.02139282 C40.56271231 -0.2507174 40.56271231 -0.2507174 57.20703125 3.203125 C58.69759033 3.50911621 58.69759033 3.50911621 60.21826172 3.82128906 C116.92522511 15.81380371 171.93488599 46.2140709 207.20703125 93.203125 C207.94300537 94.18104004 207.94300537 94.18104004 208.69384766 95.17871094 C216.17006772 105.16645615 223.11651041 115.31319857 229.20703125 126.203125 C229.60486816 126.90453613 230.00270508 127.60594727 230.41259766 128.32861328 C245.74382564 155.55156239 254.96507157 185.29784823 259.20703125 216.203125 C259.31233154 216.94884766 259.41763184 217.69457031 259.52612305 218.46289062 C260.54623776 226.88129566 260.31625154 235.36381927 260.26953125 243.828125 C260.2645052 245.42057151 260.25994425 247.01301955 260.25585938 248.60546875 C260.24494362 252.47139279 260.2277402 256.33724153 260.20703125 260.203125 C243.47545311 267.53423126 226.64916586 274.15774769 209.37548828 280.11035156 C206.42830156 281.12681078 203.48722219 282.1592753 200.546875 283.1953125 C198.9131956 283.76167351 197.27911405 284.32687661 195.64453125 284.890625 C194.91878906 285.14690674 194.19304687 285.40318848 193.4453125 285.66723633 C188.55380993 287.31871789 188.55380993 287.31871789 185.20703125 286.203125 C185.65433594 285.04039062 186.10164063 283.87765625 186.5625 282.6796875 C193.31641046 264.90170059 197.80686757 247.49501449 200.80566406 228.70996094 C201.08559842 226.96156313 201.39314578 225.21745964 201.72167969 223.47753906 C202.34584692 219.26660802 202.56284119 215.07713043 202.76953125 210.828125 C202.81271484 209.99667969 202.85589844 209.16523438 202.90039062 208.30859375 C203.0056493 206.27359272 203.10676197 204.23837797 203.20703125 202.203125 C202.20663818 202.34411621 201.20624512 202.48510742 200.17553711 202.63037109 C164.62365043 207.62226488 129.71837316 210.39139857 93.78320312 210.33349609 C89.84371071 210.32814088 85.90433272 210.33347551 81.96484375 210.33984375 C58.07391957 210.34880859 34.46289836 209.53156731 10.70703125 206.953125 C9.67819824 206.84363525 8.64936523 206.73414551 7.58935547 206.62133789 C-17.82645745 203.90814991 -42.94625484 200.3501355 -67.92041016 194.828125 C-70.90838093 194.17801407 -73.90162797 193.56113201 -76.8984375 192.953125 C-114.1931881 185.3847454 -151.28829755 174.96473016 -186.79296875 161.203125 C-189.06619137 160.33016941 -191.33964677 159.45781984 -193.61328125 158.5859375 C-199.20161279 156.44130436 -204.78588219 154.28638537 -210.3671875 152.12353516 C-212.16094518 151.44293266 -213.97288421 150.80981985 -215.79296875 150.203125 C-213.86116771 143.7628328 -211.34748689 137.93316388 -208.16796875 132.015625 C-207.72630371 131.18828857 -207.28463867 130.36095215 -206.82958984 129.50854492 C-191.23828119 100.67159677 -169.08203825 72.93690973 -142.79296875 53.203125 C-142.14102539 52.71247559 -141.48908203 52.22182617 -140.81738281 51.71630859 C-130.82707934 44.23817357 -120.66915508 37.32151018 -109.79296875 31.203125 C-109.16696777 30.84299316 -108.5409668 30.48286133 -107.89599609 30.11181641 C-75.65552438 11.65266164 -37.27934428 0.19581559 0 0 Z " fill="#FEB028" transform="translate(243.79296875,7.796875)"/>
<path d="M0 0 C0.74443359 0.60650391 1.48886719 1.21300781 2.25585938 1.83789062 C5.84738223 4.66765276 9.63229089 7.06865251 13.5 9.5 C14.32806152 10.02118408 15.15612305 10.54236816 16.00927734 11.0793457 C25.50940482 17.00869881 35.21389736 22.55894253 45 28 C45.71833008 28.4031543 46.43666016 28.80630859 47.17675781 29.22167969 C69.57046287 41.73612277 93.62800055 52.02539466 118.5 58.375 C119.47912354 58.62612549 120.45824707 58.87725098 121.46704102 59.13598633 C132.87179573 61.91095295 144.22027946 62.15131025 155.89810181 62.3873291 C197.15443382 63.26741279 237.02210784 69.60095822 276.48046875 81.70703125 C282.94625453 83.61727176 289.51234743 85.15994144 296.0625 86.75 C297.31321289 87.05623291 298.56392578 87.36246582 299.85253906 87.67797852 C311.29728279 90.42493312 321.95649006 91.2388423 333.6875 91.25 C334.79022247 91.25151062 334.79022247 91.25151062 335.91522217 91.25305176 C347.29464665 91.24253959 358.25974749 90.54415849 369.46923828 88.46191406 C372.2018592 87.9631567 374.94017323 87.52122504 377.68359375 87.0859375 C388.18967819 85.38763148 398.5060105 83.30466426 408.79516602 80.57470703 C414.73711827 79 414.73711827 79 418 79 C417.37521858 83.53834281 415.56942881 87.28341464 413.5 91.3125 C413.14325195 92.0125415 412.78650391 92.71258301 412.41894531 93.43383789 C411.29089599 95.6288216 410.14859589 97.81570439 409 100 C408.64873047 100.67063477 408.29746094 101.34126953 407.93554688 102.03222656 C397.34598524 122.0534258 383.50532722 139.56679493 368 156 C367.43023437 156.77085937 366.86046875 157.54171875 366.2734375 158.3359375 C362.60501443 161.02107192 358.84622415 160.37328814 354.4375 160.1875 C352.61854233 160.15331759 350.79952761 160.12203993 348.98046875 160.09375 C348.11212402 160.07570313 347.2437793 160.05765625 346.34912109 160.0390625 C329.24498039 159.75464528 314.11646394 167.06914831 298.76611328 173.79296875 C284.81195342 179.88205669 270.92615138 185.75249639 256 189 C254.7927124 189.27602051 254.7927124 189.27602051 253.56103516 189.55761719 C243.34389437 191.594148 232.99922526 191.39742432 222.625 191.375 C221.6403476 191.37412384 220.65569519 191.37324768 219.64120483 191.37234497 C205.35913492 191.33032819 191.84688833 190.75296954 178 187 C177.02192383 186.75330566 176.04384766 186.50661133 175.03613281 186.25244141 C129.77482213 174.83548955 87.89468637 152.78378117 52 123 C50.99453125 122.16855469 49.9890625 121.33710938 48.953125 120.48046875 C37.03101761 110.55049191 25.86062329 99.94960946 14.875 89 C13.94945312 88.07912598 13.02390625 87.15825195 12.0703125 86.20947266 C11.19890625 85.33597168 10.3275 84.4624707 9.4296875 83.5625 C8.64835449 82.78003906 7.86702148 81.99757813 7.06201172 81.19140625 C5.20187859 79.2145468 3.57453789 77.20749583 2 75 C1.34 75.99 0.68 76.98 0 78 C-1.79360063 65.76041208 -2.31448407 53.73409516 -2.26074219 41.37036133 C-2.24999983 38.43745321 -2.26071665 35.5051556 -2.2734375 32.57226562 C-2.28039189 21.55060207 -1.72293246 10.89587982 0 0 Z " fill="#FFD140" transform="translate(10,217)"/>
<path d="M0 0 C4.84459147 0.4605125 8.83905348 2.74314198 13.125 4.875 C64.28282783 29.59204017 121.07875537 46.50202647 177.1875 55.0703125 C180.78322667 55.62395332 184.33369122 56.26113408 187.890625 57.0234375 C198.11472107 59.11990589 208.64344492 59.71124072 219.02880859 60.64306641 C221.50884129 60.86597356 223.98842917 61.09395715 226.46728516 61.32958984 C244.64265716 63.02000963 262.75793348 63.18337162 281 63.1875 C282.78738083 63.18899551 282.78738083 63.18899551 284.61087036 63.19052124 C288.0323102 63.19019677 291.45358762 63.18115638 294.875 63.16796875 C296.42470741 63.16615601 296.42470741 63.16615601 298.00572205 63.16430664 C302.79500149 63.1331154 307.28405959 62.92233679 312 62 C313.54759445 61.8770316 315.09751097 61.78019581 316.6484375 61.7109375 C332.60900848 60.8092264 348.07491416 58.26320151 363.77880859 55.38818359 C364.63087891 55.23236816 365.48294922 55.07655273 366.36083984 54.91601562 C367.9745619 54.61931234 369.58771527 54.31949397 371.20019531 54.01611328 C374.18071638 53.46305438 376.96102525 53 380 53 C382.47130143 58.62574755 382.95894436 64.18650885 383.625 70.25 C383.82174316 72.02286377 383.82174316 72.02286377 384.02246094 73.83154297 C385.24055554 85.74197705 385.97354813 98.03715857 385 110 C383.01474887 111.98525113 379.34002874 111.75661436 376.6171875 112.12109375 C375.85960144 112.22537186 375.10201538 112.32964996 374.32147217 112.43708801 C371.84003671 112.77616487 369.35767976 113.10766378 366.875 113.4375 C366.03088562 113.55049438 365.18677124 113.66348877 364.31707764 113.77990723 C334.40959365 117.76852041 304.74429573 119.17898111 274.57617188 119.13037109 C270.63667946 119.12501588 266.69730147 119.13035051 262.7578125 119.13671875 C238.86688832 119.14568359 215.25586711 118.32844231 191.5 115.75 C190.47116699 115.64051025 189.44233398 115.53102051 188.38232422 115.41821289 C162.9665113 112.70502491 137.84671391 109.1470105 112.87255859 103.625 C109.88458782 102.97488907 106.89134078 102.35800701 103.89453125 101.75 C66.59978065 94.1816204 29.5046712 83.76160516 -6 70 C-8.27322262 69.12704441 -10.54667802 68.25469484 -12.8203125 67.3828125 C-18.40864404 65.23817936 -23.99291344 63.08326037 -29.57421875 60.92041016 C-31.36797643 60.23980766 -33.17991546 59.60669485 -35 59 C-33.06819896 52.5597078 -30.55451814 46.73003888 -27.375 40.8125 C-26.93333496 39.98516357 -26.49166992 39.15782715 -26.03662109 38.30541992 C-18.93760237 25.17541015 -10.61636721 10.61636721 0 0 Z " fill="#FFD140" transform="translate(63,99)"/>
<path d="M0 0 C1.49055908 0.30599121 1.49055908 0.30599121 3.01123047 0.61816406 C33.25370866 7.01391057 85.01851931 20.18063279 103.5390625 47.87329102 C103.93867188 48.49260498 104.33828125 49.11191895 104.75 49.75 C105.17539062 50.39960693 105.60078125 51.04921387 106.0390625 51.71850586 C109.17932865 56.5781374 112.14051454 61.53310048 115 66.5625 C115.37350586 67.21637695 115.74701172 67.87025391 116.13183594 68.54394531 C118.20484388 72.26999011 119.79052926 75.91173693 121 80 C102.32087335 86.51665889 81.39635555 88.53521157 61.875 91.3125 C60.99059235 91.4412854 60.10618469 91.5700708 59.19497681 91.70275879 C37.81670101 94.79447875 16.51361084 95.23816021 -5.0625 95.25 C-6.18074158 95.25067474 -7.29898315 95.25134949 -8.45111084 95.25204468 C-34.29701725 95.22736362 -58.75027312 92.71806949 -84 87 C-84.9998291 86.77973145 -85.9996582 86.55946289 -87.02978516 86.33251953 C-121.00594487 78.77066857 -156.30212689 64.88389124 -183 42 C-183.99 41.34 -184.98 40.68 -186 40 C-179.45143575 35.24648701 -172.80364422 30.97582283 -165.6875 27.125 C-164.73818604 26.61106689 -163.78887207 26.09713379 -162.81079102 25.56762695 C-139.86038003 13.34727825 -115.52081717 4.88491558 -90 0 C-89.17564453 -0.16516113 -88.35128906 -0.33032227 -87.50195312 -0.50048828 C-60.00164127 -5.78943052 -27.41732289 -5.68933536 0 0 Z " fill="#FFD140" transform="translate(301,11)"/>
<path d="M0 0 C3.21609951 3.21274125 6.4255986 6.43189192 9.63032532 9.65597534 C12.05187548 12.09105299 14.47621155 14.52334962 16.90063477 16.95556641 C18.17074662 18.23070616 19.43995939 19.50674211 20.70825195 20.78369141 C27.29175455 27.41080468 33.83650422 33.99231837 41 40 C41.98742188 40.86882812 42.97484375 41.73765625 43.9921875 42.6328125 C52.91551979 50.34702117 62.33390637 57.24783762 72 64 C72.63663574 64.44730469 73.27327148 64.89460938 73.92919922 65.35546875 C107.78394011 89.0110254 145.60137675 105.50359829 186 114 C186.97348389 114.20536377 187.94696777 114.41072754 188.94995117 114.62231445 C198.55343987 116.37285726 208.17184783 116.33779774 217.90063477 116.31567383 C220.79677129 116.31251714 223.69187979 116.33603867 226.58789062 116.36132812 C241.01388628 116.41126987 254.40271978 114.89170154 268.1875 110.375 C268.96738281 110.12411621 269.74726563 109.87323242 270.55078125 109.61474609 C279.39656763 106.67492622 287.89041857 102.91835189 296.40673828 99.14794922 C318.03102291 89.57561008 337.94912934 82.3696799 362 86 C347.23031431 103.98062982 326.548906 117.23824721 306.09667969 127.90478516 C304.1088157 128.94315938 302.13626741 130.00649374 300.1640625 131.07421875 C243.50002342 161.16371688 175.73300252 164.14088207 114.97265625 146.25390625 C91.07597607 138.89868164 67.44430001 127.48137918 47 113 C46.67 113.66 46.34 114.32 46 115 C39.52525045 105.92310524 33.53774302 96.67596929 28 87 C27.63406738 86.36674805 27.26813477 85.73349609 26.89111328 85.08105469 C13.94928969 62.46571793 -0.88590753 31.00676345 -0.125 4.375 C-0.10695313 3.53710938 -0.08890625 2.69921875 -0.0703125 1.8359375 C-0.03550781 0.92714844 -0.03550781 0.92714844 0 0 Z " fill="#FEB028" transform="translate(11,291)"/>
<path d="M0 0 C5.55073882 0.3709019 10.88865585 1.13384454 16.31640625 2.36328125 C24.44090062 4.13606251 32.60785813 5.52998584 40.8125 6.875 C41.97028458 7.06625961 41.97028458 7.06625961 43.15145874 7.26138306 C67.36966354 11.26125665 91.62839829 15.05577966 116 18 C117.47605713 18.18127441 117.47605713 18.18127441 118.98193359 18.36621094 C135.40145695 20.36258438 151.83992569 21.77643641 168.33227539 22.99804688 C169.12756653 23.05773651 169.92285767 23.11742615 170.74224854 23.17892456 C172.23331405 23.29043023 173.724558 23.39958631 175.21600342 23.50588989 C178.16078403 23.72613481 181.04834996 24.00826635 183.96020508 24.50610352 C187.82535905 25.13410179 191.68016411 25.36134299 195.5859375 25.55078125 C196.87568985 25.61353996 196.87568985 25.61353996 198.1914978 25.67756653 C209.40985816 26.16884158 220.6335331 26.18603263 231.86083984 26.18530273 C235.59874959 26.18748468 239.33636098 26.20570651 243.07421875 26.22460938 C265.53270636 26.27670395 287.69875383 24.5256833 310 22 C306.87103492 25.4287922 303.41133986 27.79536266 299.4375 30.125 C298.78330078 30.51042969 298.12910156 30.89585937 297.45507812 31.29296875 C295.3111562 32.54275266 293.15797396 33.77464899 291 35 C290.27828613 35.41088867 289.55657227 35.82177734 288.81298828 36.24511719 C256.43163446 54.47345698 218.53911229 66.00703241 181.20703125 66.203125 C179.85635559 66.21371445 179.85635559 66.21371445 178.47839355 66.22451782 C140.64431894 66.4538424 140.64431894 66.4538424 124 63 C122.50944092 62.69400879 122.50944092 62.69400879 120.98876953 62.38183594 C78.59850867 53.41704936 40.01312502 35.16971545 7 7 C6.26652344 6.38898438 5.53304687 5.77796875 4.77734375 5.1484375 C3.16161722 3.79289755 1.57631811 2.40117165 0 1 C0 0.67 0 0.34 0 0 Z " fill="#FEB028" transform="translate(87,438)"/>
<path d="M0 0 C1.79249647 4.87310728 2.74799725 9.64750657 3.5625 14.75 C3.75102539 15.87148437 3.75102539 15.87148437 3.94335938 17.015625 C4.32354499 19.3405297 4.67075047 21.66735081 5 24 C5.10223877 24.72171387 5.20447754 25.44342773 5.30981445 26.18701172 C6.32835178 34.63249628 6.10936709 43.13409872 6.0625 51.625 C6.05747395 53.21744651 6.052913 54.80989455 6.04882812 56.40234375 C6.03791237 60.26826779 6.02070895 64.13411653 6 68 C-10.73157814 75.33110626 -27.55786539 81.95462269 -44.83154297 87.90722656 C-47.77872969 88.92368578 -50.71980906 89.9561503 -53.66015625 90.9921875 C-55.29383565 91.55854851 -56.9279172 92.12375161 -58.5625 92.6875 C-59.28824219 92.94378174 -60.01398438 93.20006348 -60.76171875 93.46411133 C-65.65322132 95.11559289 -65.65322132 95.11559289 -69 94 C-68.32904297 92.25589844 -68.32904297 92.25589844 -67.64453125 90.4765625 C-60.86915435 72.64207054 -56.36741409 55.17520105 -53.375 36.32714844 C-53.08148939 34.5057011 -52.75749469 32.68916049 -52.421875 30.875 C-51.74279878 26.24722129 -51.60639386 21.59460536 -51.39453125 16.92578125 C-51.10301492 11.20602984 -51.10301492 11.20602984 -50 9 C-48.12426758 8.48510742 -48.12426758 8.48510742 -45.64453125 8.10546875 C-44.7220459 7.9569043 -43.79956055 7.80833984 -42.84912109 7.65527344 C-41.84703613 7.5009082 -40.84495117 7.34654297 -39.8125 7.1875 C-30.47526154 5.67223994 -21.2886067 3.80845176 -12.09692383 1.57495117 C-11.23736084 1.36974854 -10.37779785 1.1645459 -9.4921875 0.953125 C-8.74308105 0.76911133 -7.99397461 0.58509766 -7.22216797 0.39550781 C-4.77618893 -0.03983453 -2.47939543 -0.06655363 0 0 Z " fill="#F7941D" transform="translate(498,200)"/>
<path d="M0 0 C2.39620179 1.97906195 3.91171834 3.52445261 5.75 5.9375 C6.25313721 6.56213135 6.75627441 7.1867627 7.2746582 7.83032227 C8.88643558 9.86136689 10.44892056 11.92229285 12 14 C12.51675293 14.68964844 13.03350586 15.37929687 13.56591797 16.08984375 C20.68208935 25.68829658 27.00864133 35.67094854 33 46 C33.57621094 46.88171875 34.15242188 47.7634375 34.74609375 48.671875 C36 51 36 51 36 55 C31.6721376 56.35155836 27.33771302 57.68040796 23 59 C21.13408203 59.57234375 21.13408203 59.57234375 19.23046875 60.15625 C18.02003906 60.5171875 16.80960937 60.878125 15.5625 61.25 C14.45003906 61.58515625 13.33757812 61.9203125 12.19140625 62.265625 C9.01028613 62.99763306 6.25114119 63.1373031 3 63 C2.69707031 61.89785156 2.39414062 60.79570312 2.08203125 59.66015625 C0.96155995 55.59205317 -0.17693926 51.52912435 -1.31640625 47.46630859 C-1.92537489 45.26923673 -2.51314407 43.067971 -3.09375 40.86328125 C-6.54419935 28.10754768 -11.7491601 16.10521141 -17 4 C-12.82761043 -0.17238957 -5.69657329 -1.11958987 0 0 Z " fill="#F7951D" transform="translate(440,88)"/>
</svg>
